999
dxfrw 0.6.3
  0
SECTION
  2
HEADER
  9
$ACADVER
  1
AC1021
  9
$DWGCODEPAGE
  3
ANSI_1252
  9
$INSBASE
 10
0
 20
0
 30
0
  9
$EXTMIN
 10
-8.838134772435536
 20
-3.200000000000001
 30
0
  9
$EXTMAX
 10
16.00000000000001
 20
15.40000011920929
 30
0
  9
$LIMMIN
 10
0
 20
0
  9
$LIMMAX
 10
420
 20
297
  9
$ORTHOMODE
 70
    0
  9
$REGENMODE
 70
    1
  9
$FILLMODE
 70
    1
  9
$QTEXTMODE
 70
    0
  9
$MIRRTEXT
 70
    0
  9
$LTSCALE
 40
1
  9
$ATTMODE
 70
    0
  9
$TEXTSIZE
 40
2.5
  9
$TRACEWID
 40
15.68
  9
$TEXTSTYLE
  7
STANDARD
  9
$CLAYER
  8
const2
  9
$CELTYPE
  6
BYLAYER
  9
$CECOLOR
 62
  256
  9
$CELTSCALE
 40
1
  9
$DISPSILH
 70
    0
  9
$DIMSCALE
 40
1
  9
$DIMASZ
 40
0.1
  9
$DIMEXO
 40
0.025
  9
$DIMDLI
 40
3.75
  9
$DIMRND
 40
0
  9
$DIMDLE
 40
0
  9
$DIMEXE
 40
0.05
  9
$DIMTP
 40
0
  9
$DIMTM
 40
0
  9
$DIMTXT
 40
0.1
  9
$DIMCEN
 40
2.5
  9
$DIMTSZ
 40
0
  9
$DIMTOL
 70
    0
  9
$DIMLIM
 70
    0
  9
$DIMTIH
 70
    0
  9
$DIMTOH
 70
    0
  9
$DIMSE1
 70
    0
  9
$DIMSE2
 70
    0
  9
$DIMTAD
 70
    1
  9
$DIMZIN
 70
    1
  9
$DIMBLK
  1

  9
$DIMASO
 70
    1
  9
$DIMSHO
 70
    1
  9
$DIMPOST
  1

  9
$DIMAPOST
  1

  9
$DIMALT
 70
    0
  9
$DIMALTD
 70
    3
  9
$DIMALTF
 40
0.03937
  9
$DIMLFAC
 40
1
  9
$DIMTOFL
 70
    1
  9
$DIMTVP
 40
0
  9
$DIMTIX
 70
    0
  9
$DIMSOXD
 70
    0
  9
$DIMSAH
 70
    0
  9
$DIMBLK1
  1

  9
$DIMBLK2
  1

  9
$DIMSTYLE
  2
STANDARD
  9
$DIMCLRD
 70
    0
  9
$DIMCLRE
 70
    0
  9
$DIMCLRT
 70
    0
  9
$DIMTFAC
 40
1
  9
$DIMGAP
 40
0.025
  9
$DIMJUST
 70
    0
  9
$DIMSD1
 70
    0
  9
$DIMSD2
 70
    0
  9
$DIMTOLJ
 70
    0
  9
$DIMTZIN
 70
    8
  9
$DIMALTZ
 70
    0
  9
$DIMALTTZ
 70
    0
  9
$DIMUPT
 70
    0
  9
$DIMDEC
 70
    4
  9
$DIMTDEC
 70
    2
  9
$DIMALTU
 70
    2
  9
$DIMALTTD
 70
    3
  9
$DIMTXSTY
  7
standard
  9
$DIMAUNIT
 70
    0
  9
$DIMADEC
 70
    2
  9
$DIMALTRND
 40
0
  9
$DIMAZIN
 70
    0
  9
$DIMDSEP
 70
    0
  9
$DIMATFIT
 70
    3
  9
$DIMFRAC
 70
    0
  9
$DIMLDRBLK
  1
STANDARD
  9
$DIMLUNIT
 70
    2
  9
$DIMLWD
 70
   -2
  9
$DIMLWE
 70
   -2
  9
$DIMTMOVE
 70
    0
  9
$DIMFXL
 40
0.04
  9
$DIMFXLON
 70
    0
  9
$DIMJOGANG
 40
0.7854
  9
$DIMTFILL
 70
    0
  9
$DIMTFILLCLR
 70
    0
  9
$DIMARCSYM
 70
    0
  9
$DIMLTYPE
  6

  9
$DIMLTEX1
  6

  9
$DIMLTEX2
  6

  9
$LUNITS
 70
    2
  9
$LUPREC
 70
    4
  9
$SKETCHINC
 40
1
  9
$FILLETRAD
 40
0
  9
$AUNITS
 70
    0
  9
$AUPREC
 70
    2
  9
$MENU
  1
.
  9
$ELEVATION
 40
0
  9
$PELEVATION
 40
0
  9
$THICKNESS
 40
0
  9
$LIMCHECK
 70
    0
  9
$CHAMFERA
 40
0
  9
$CHAMFERB
 40
0
  9
$CHAMFERC
 40
0
  9
$CHAMFERD
 40
0
  9
$SKPOLY
 70
    0
  9
$USRTIMER
 70
    1
  9
$ANGBASE
 50
0
  9
$ANGDIR
 70
    0
  9
$PDMODE
 70
   34
  9
$PDSIZE
 40
0
  9
$PLINEWID
 40
0
  9
$SPLFRAME
 70
    0
  9
$SPLINETYPE
 70
    2
  9
$SPLINESEGS
 70
    8
  9
$HANDSEED
  5
20000
  9
$SURFTAB1
 70
    6
  9
$SURFTAB2
 70
    6
  9
$SURFTYPE
 70
    6
  9
$SURFU
 70
    6
  9
$SURFV
 70
    6
  9
$UCSBASE
  2

  9
$UCSNAME
  2

  9
$UCSORG
 10
0
 20
0
 30
0
  9
$UCSXDIR
 10
1
 20
0
 30
0
  9
$UCSYDIR
 10
0
 20
1
 30
0
  9
$UCSORTHOREF
  2

  9
$UCSORTHOVIEW
 70
    0
  9
$UCSORGTOP
 10
0
 20
0
 30
0
  9
$UCSORGBOTTOM
 10
0
 20
0
 30
0
  9
$UCSORGLEFT
 10
0
 20
0
 30
0
  9
$UCSORGRIGHT
 10
0
 20
0
 30
0
  9
$UCSORGFRONT
 10
0
 20
0
 30
0
  9
$UCSORGBACK
 10
0
 20
0
 30
0
  9
$PUCSBASE
  2

  9
$PUCSNAME
  2

  9
$PUCSORG
 10
0
 20
0
 30
0
  9
$PUCSXDIR
 10
1
 20
0
 30
0
  9
$PUCSYDIR
 10
0
 20
1
 30
0
  9
$PUCSORTHOREF
  2

  9
$PUCSORTHOVIEW
 70
    0
  9
$PUCSORGTOP
 10
0
 20
0
 30
0
  9
$PUCSORGBOTTOM
 10
0
 20
0
 30
0
  9
$PUCSORGLEFT
 10
0
 20
0
 30
0
  9
$PUCSORGRIGHT
 10
0
 20
0
 30
0
  9
$PUCSORGFRONT
 10
0
 20
0
 30
0
  9
$PUCSORGBACK
 10
0
 20
0
 30
0
  9
$USERI1
 70
    0
  9
$USERI2
 70
    0
  9
$USERI3
 70
    0
  9
$USERI4
 70
    0
  9
$USERI5
 70
    0
  9
$USERR1
 40
0
  9
$USERR2
 40
0
  9
$USERR3
 40
0
  9
$USERR4
 40
0
  9
$USERR5
 40
0
  9
$WORLDVIEW
 70
    1
  9
$SHADEDGE
 70
    3
  9
$SHADEDIF
 70
   70
  9
$TILEMODE
 70
    1
  9
$MAXACTVP
 70
   64
  9
$PINSBASE
 10
0
 20
0
 30
0
  9
$PLIMCHECK
 70
    0
  9
$PEXTMIN
 10
0
 20
0
 30
0
  9
$PEXTMAX
 10
0
 20
0
 30
0
  9
$GRIDMODE
 70
    1
  9
$SNAPSTYLE
 70
    0
  9
$GRIDUNIT
 10
0
 20
0
  9
$PLIMMIN
 10
0
 20
0
  9
$PLIMMAX
 10
1.8788126e-12
 20
2.657094e-12
  9
$UNITMODE
 70
    0
  9
$VISRETAIN
 70
    1
  9
$PLINEGEN
 70
    0
  9
$PSLTSCALE
 70
    1
  9
$TREEDEPTH
 70
 3020
  9
$CMLSTYLE
  2
Standard
  9
$CMLJUST
 70
    0
  9
$CMLSCALE
 40
20
  9
$PROXYGRAPHICS
 70
    1
  9
$MEASUREMENT
 70
    1
  9
$CELWEIGHT
370
   -1
  9
$ENDCAPS
280
    0
  9
$JOINSTYLE
280
    0
  9
$LWDISPLAY
290
    0
  9
$INSUNITS
 70
    1
  9
$HYPERLINKBASE
  1

  9
$STYLESHEET
  1

  9
$XEDIT
290
    1
  9
$CEPSNTYPE
380
    0
  9
$PSTYLEMODE
290
    1
  9
$EXTNAMES
290
    1
  9
$PSVPSCALE
 40
1
  9
$OLESTARTUP
290
    0
  9
$SORTENTS
280
  127
  9
$INDEXCTL
280
    0
  9
$HIDETEXT
280
    1
  9
$XCLIPFRAME
290
    0
  9
$HALOGAP
280
    0
  9
$OBSCOLOR
 70
  257
  9
$OBSLTYPE
280
    0
  9
$INTERSECTIONDISPLAY
280
    0
  9
$INTERSECTIONCOLOR
 70
  257
  9
$DIMASSOC
280
    1
  9
$PROJECTNAME
  1

  9
$CAMERADISPLAY
290
    0
  9
$LENSLENGTH
 40
50
  9
$CAMERAHEIGHT
 40
0
  9
$STEPSPERSEC
 40
2
  9
$STEPSIZE
 40
50
  9
$3DDWFPREC
 40
2
  9
$PSOLWIDTH
 40
5
  9
$PSOLHEIGHT
 40
80
  9
$LOFTANG1
 40
1.570796326794897
  9
$LOFTANG2
 40
1.570796326794897
  9
$LOFTMAG1
 40
0
  9
$LOFTMAG2
 40
0
  9
$LOFTPARAM
 70
    7
  9
$LOFTNORMALS
280
    1
  9
$LATITUDE
 40
1
  9
$LONGITUDE
 40
1
  9
$NORTHDIRECTION
 40
0
  9
$TIMEZONE
 70
-8000
  9
$LIGHTGLYPHDISPLAY
280
    1
  9
$TILEMODELIGHTSYNCH
280
    1
  9
$SOLIDHIST
280
    1
  9
$SHOWHIST
280
    1
  9
$DWFFRAME
280
    2
  9
$DGNFRAME
280
    0
  9
$REALWORLDSCALE
290
    1
  9
$INTERFERECOLOR
 62
    1
  9
$CSHADOW
280
    0
  9
$SHADOWPLANELOCATION
 40
0
  0
ENDSEC
  0
SECTION
  2
CLASSES
  0
ENDSEC
  0
SECTION
  2
TABLES
  0
TABLE
  2
VPORT
  5
8
330
0
100
AcDbSymbolTable
 70
    1
  0
VPORT
  5
31
330
2
100
AcDbSymbolTableRecord
100
AcDbViewportTableRecord
  2
*ACTIVE
 70
    0
 10
0
 20
0
 11
1
 21
1
 12
10.72821846554472
 22
4.535110533162086
 13
0
 23
0
 14
10
 24
10
 15
10
 25
10
 16
0
 26
0
 36
1
 17
0
 27
0
 37
0
 40
13.00390117035724
 41
1.9475
 42
50
 43
0
 44
0
 50
0
 51
0
 71
    0
 72
  100
 73
    1
 74
    3
 75
    0
 76
    1
 77
    0
 78
    0
281
    0
 65
    1
110
0
120
0
130
0
111
1
121
0
131
0
112
0
122
1
132
0
 79
    0
146
0
348
10020
 60
    7
 61
    5
292
1
282
    1
141
0
142
0
 63
  250
421
3358443
  0
ENDTAB
  0
TABLE
  2
LTYPE
  5
5
330
0
100
AcDbSymbolTable
 70
    4
  0
LTYPE
  5
14
330
5
100
AcDbSymbolTableRecord
100
AcDbLinetypeTableRecord
  2
ByBlock
 70
    0
  3

 72
   65
 73
    0
 40
0
  0
LTYPE
  5
15
330
5
100
AcDbSymbolTableRecord
100
AcDbLinetypeTableRecord
  2
ByLayer
 70
    0
  3

 72
   65
 73
    0
 40
0
  0
LTYPE
  5
16
330
5
100
AcDbSymbolTableRecord
100
AcDbLinetypeTableRecord
  2
Continuous
 70
    0
  3
Solid line
 72
   65
 73
    0
 40
0
  0
LTYPE
  5
32
330
5
100
AcDbSymbolTableRecord
100
AcDbLinetypeTableRecord
  2
DOT
 70
    0
  3
Dot . . . . . . . . . . . . . . . . . . . . . .
 72
   65
 73
    2
 40
6.35
 49
0
 74
    0
 49
-6.35
 74
    0
  0
LTYPE
  5
33
330
5
100
AcDbSymbolTableRecord
100
AcDbLinetypeTableRecord
  2
DOTTINY
 70
    0
  3
Dot (.15x) .....................................
 72
   65
 73
    2
 40
0.9525
 49
0
 74
    0
 49
-0.9525
 74
    0
  0
LTYPE
  5
34
330
5
100
AcDbSymbolTableRecord
100
AcDbLinetypeTableRecord
  2
DOT2
 70
    0
  3
Dot (.5x) .....................................
 72
   65
 73
    2
 40
3.175
 49
0
 74
    0
 49
-3.175
 74
    0
  0
LTYPE
  5
35
330
5
100
AcDbSymbolTableRecord
100
AcDbLinetypeTableRecord
  2
DOTX2
 70
    0
  3
Dot (2x) .  .  .  .  .  .  .  .  .  .  .  .  .
 72
   65
 73
    2
 40
12.7
 49
0
 74
    0
 49
-12.7
 74
    0
  0
LTYPE
  5
36
330
5
100
AcDbSymbolTableRecord
100
AcDbLinetypeTableRecord
  2
DASHED
 70
    0
  3
Dashed _ _ _ _ _ _ _ _ _ _ _ _ _ _ _ _ _
 72
   65
 73
    2
 40
19.05
 49
12.7
 74
    0
 49
-6.35
 74
    0
  0
LTYPE
  5
37
330
5
100
AcDbSymbolTableRecord
100
AcDbLinetypeTableRecord
  2
DASHEDTINY
 70
    0
  3
Dashed (.15x) _ _ _ _ _ _ _ _ _ _ _ _ _ _ _ _ _
 72
   65
 73
    2
 40
2.8575
 49
1.905
 74
    0
 49
-0.9525
 74
    0
  0
LTYPE
  5
38
330
5
100
AcDbSymbolTableRecord
100
AcDbLinetypeTableRecord
  2
DASHED2
 70
    0
  3
Dashed (.5x) _ _ _ _ _ _ _ _ _ _ _ _ _ _ _ _ _
 72
   65
 73
    2
 40
9.524999999999999
 49
6.35
 74
    0
 49
-3.175
 74
    0
  0
LTYPE
  5
39
330
5
100
AcDbSymbolTableRecord
100
AcDbLinetypeTableRecord
  2
DASHEDX2
 70
    0
  3
Dashed (2x) ____  ____  ____  ____  ____  ___
 72
   65
 73
    2
 40
38.09999999999999
 49
25.4
 74
    0
 49
-12.7
 74
    0
  0
LTYPE
  5
3A
330
5
100
AcDbSymbolTableRecord
100
AcDbLinetypeTableRecord
  2
DASHDOT
 70
    0
  3
Dash dot __ . __ . __ . __ . __ . __ . __ . __
 72
   65
 73
    4
 40
25.4
 49
12.7
 74
    0
 49
-6.35
 74
    0
 49
0
 74
    0
 49
-6.35
 74
    0
  0
LTYPE
  5
3B
330
5
100
AcDbSymbolTableRecord
100
AcDbLinetypeTableRecord
  2
DASHDOTTINY
 70
    0
  3
Dash dot (.15x) _._._._._._._._._._._._._._._.
 72
   65
 73
    4
 40
3.81
 49
1.905
 74
    0
 49
-0.9525
 74
    0
 49
0
 74
    0
 49
-0.9525
 74
    0
  0
LTYPE
  5
3C
330
5
100
AcDbSymbolTableRecord
100
AcDbLinetypeTableRecord
  2
DASHDOT2
 70
    0
  3
Dash dot (.5x) _._._._._._._._._._._._._._._.
 72
   65
 73
    4
 40
12.7
 49
6.35
 74
    0
 49
-3.175
 74
    0
 49
0
 74
    0
 49
-3.175
 74
    0
  0
LTYPE
  5
3D
330
5
100
AcDbSymbolTableRecord
100
AcDbLinetypeTableRecord
  2
DASHDOTX2
 70
    0
  3
Dash dot (2x) ____  .  ____  .  ____  .  ___
 72
   65
 73
    4
 40
50.8
 49
25.4
 74
    0
 49
-12.7
 74
    0
 49
0
 74
    0
 49
-12.7
 74
    0
  0
LTYPE
  5
3E
330
5
100
AcDbSymbolTableRecord
100
AcDbLinetypeTableRecord
  2
DIVIDE
 70
    0
  3
Divide ____ . . ____ . . ____ . . ____ . . ____
 72
   65
 73
    6
 40
31.75
 49
12.7
 74
    0
 49
-6.35
 74
    0
 49
0
 74
    0
 49
-6.35
 74
    0
 49
0
 74
    0
 49
-6.35
 74
    0
  0
LTYPE
  5
3F
330
5
100
AcDbSymbolTableRecord
100
AcDbLinetypeTableRecord
  2
DIVIDETINY
 70
    0
  3
Divide (.15x) __..__..__..__..__..__..__..__.._
 72
   65
 73
    6
 40
4.7625
 49
1.905
 74
    0
 49
-0.9525
 74
    0
 49
0
 74
    0
 49
-0.9525
 74
    0
 49
0
 74
    0
 49
-0.9525
 74
    0
  0
LTYPE
  5
40
330
5
100
AcDbSymbolTableRecord
100
AcDbLinetypeTableRecord
  2
DIVIDE2
 70
    0
  3
Divide (.5x) __..__..__..__..__..__..__..__.._
 72
   65
 73
    6
 40
15.875
 49
6.35
 74
    0
 49
-3.175
 74
    0
 49
0
 74
    0
 49
-3.175
 74
    0
 49
0
 74
    0
 49
-3.175
 74
    0
  0
LTYPE
  5
41
330
5
100
AcDbSymbolTableRecord
100
AcDbLinetypeTableRecord
  2
DIVIDEX2
 70
    0
  3
Divide (2x) ________  .  .  ________  .  .  _
 72
   65
 73
    6
 40
63.5
 49
25.4
 74
    0
 49
-12.7
 74
    0
 49
0
 74
    0
 49
-12.7
 74
    0
 49
0
 74
    0
 49
-12.7
 74
    0
  0
LTYPE
  5
42
330
5
100
AcDbSymbolTableRecord
100
AcDbLinetypeTableRecord
  2
BORDER
 70
    0
  3
Border __ __ . __ __ . __ __ . __ __ . __ __ .
 72
   65
 73
    6
 40
44.45
 49
12.7
 74
    0
 49
-6.35
 74
    0
 49
12.7
 74
    0
 49
-6.35
 74
    0
 49
0
 74
    0
 49
-6.35
 74
    0
  0
LTYPE
  5
43
330
5
100
AcDbSymbolTableRecord
100
AcDbLinetypeTableRecord
  2
BORDERTINY
 70
    0
  3
Border (.15x) __.__.__.__.__.__.__.__.__.__.__.
 72
   65
 73
    6
 40
6.6675
 49
1.905
 74
    0
 49
-0.9525
 74
    0
 49
1.905
 74
    0
 49
-0.9525
 74
    0
 49
0
 74
    0
 49
-0.9525
 74
    0
  0
LTYPE
  5
44
330
5
100
AcDbSymbolTableRecord
100
AcDbLinetypeTableRecord
  2
BORDER2
 70
    0
  3
Border (.5x) __.__.__.__.__.__.__.__.__.__.__.
 72
   65
 73
    6
 40
22.225
 49
6.35
 74
    0
 49
-3.175
 74
    0
 49
6.35
 74
    0
 49
-3.175
 74
    0
 49
0
 74
    0
 49
-3.175
 74
    0
  0
LTYPE
  5
45
330
5
100
AcDbSymbolTableRecord
100
AcDbLinetypeTableRecord
  2
BORDERX2
 70
    0
  3
Border (2x) ____  ____  .  ____  ____  .  ___
 72
   65
 73
    6
 40
88.89999999999999
 49
25.4
 74
    0
 49
-12.7
 74
    0
 49
25.4
 74
    0
 49
-12.7
 74
    0
 49
0
 74
    0
 49
-12.7
 74
    0
  0
LTYPE
  5
46
330
5
100
AcDbSymbolTableRecord
100
AcDbLinetypeTableRecord
  2
CENTER
 70
    0
  3
Center ____ _ ____ _ ____ _ ____ _ ____ _ ____
 72
   65
 73
    4
 40
50.8
 49
31.75
 74
    0
 49
-6.35
 74
    0
 49
6.35
 74
    0
 49
-6.35
 74
    0
  0
LTYPE
  5
47
330
5
100
AcDbSymbolTableRecord
100
AcDbLinetypeTableRecord
  2
CENTERTINY
 70
    0
  3
Center (.15x) ___ _ ___ _ ___ _ ___ _ ___ _ ___
 72
   65
 73
    4
 40
7.619999999999999
 49
4.7625
 74
    0
 49
-0.9525
 74
    0
 49
0.9525
 74
    0
 49
-0.9525
 74
    0
  0
LTYPE
  5
48
330
5
100
AcDbSymbolTableRecord
100
AcDbLinetypeTableRecord
  2
CENTER2
 70
    0
  3
Center (.5x) ___ _ ___ _ ___ _ ___ _ ___ _ ___
 72
   65
 73
    4
 40
28.575
 49
19.05
 74
    0
 49
-3.175
 74
    0
 49
3.175
 74
    0
 49
-3.175
 74
    0
  0
LTYPE
  5
49
330
5
100
AcDbSymbolTableRecord
100
AcDbLinetypeTableRecord
  2
CENTERX2
 70
    0
  3
Center (2x) ________  __  ________  __  _____
 72
   65
 73
    4
 40
101.6
 49
63.5
 74
    0
 49
-12.7
 74
    0
 49
12.7
 74
    0
 49
-12.7
 74
    0
  0
ENDTAB
  0
TABLE
  2
LAYER
  5
2
330
0
100
AcDbSymbolTable
 70
    1
  0
LAYER
  5
10
330
2
100
AcDbSymbolTableRecord
100
AcDbLayerTableRecord
  2
0
 70
    0
 62
    7
  6
CONTINUOUS
370
    0
390
F
  0
LAYER
  5
4A
330
2
100
AcDbSymbolTableRecord
100
AcDbLayerTableRecord
  2
const0
 70
    0
 62
    7
  6
CONTINUOUS
370
    0
390
F
  0
LAYER
  5
4B
330
2
100
AcDbSymbolTableRecord
100
AcDbLayerTableRecord
  2
const1
 70
    0
 62
  253
420
10526884
  6
CONTINUOUS
370
    0
390
F
  0
LAYER
  5
4C
330
2
100
AcDbSymbolTableRecord
100
AcDbLayerTableRecord
  2
const2
 70
    0
 62
   56
420
8421376
  6
CONTINUOUS
370
    0
390
F
  0
LAYER
  5
4D
330
2
100
AcDbSymbolTableRecord
100
AcDbLayerTableRecord
  2
nocut
 70
    0
 62
    8
  6
CONTINUOUS
370
    0
390
F
  0
LAYER
  5
4E
330
2
100
AcDbSymbolTableRecord
100
AcDbLayerTableRecord
  2
vector
 70
    0
 62
    3
  6
CONTINUOUS
370
    0
390
F
  0
ENDTAB
  0
TABLE
  2
STYLE
  5
3
330
0
100
AcDbSymbolTable
 70
    3
  0
STYLE
  5
4F
330
2
100
AcDbSymbolTableRecord
100
AcDbTextStyleTableRecord
  2
Standard
 70
    0
 40
0
 41
1
 50
0
 71
    0
 42
1
  3
txt
  4

  0
ENDTAB
  0
TABLE
  2
VIEW
  5
6
330
0
100
AcDbSymbolTable
 70
    0
  0
ENDTAB
  0
TABLE
  2
UCS
  5
7
330
0
100
AcDbSymbolTable
 70
    0
  0
ENDTAB
  0
TABLE
  2
APPID
  5
9
330
0
100
AcDbSymbolTable
 70
    1
  0
APPID
  5
12
330
9
100
AcDbSymbolTableRecord
100
AcDbRegAppTableRecord
  2
ACAD
 70
    0
  0
APPID
  5
50
330
9
100
AcDbSymbolTableRecord
100
AcDbRegAppTableRecord
  2
LibreCad
 70
    0
  0
ENDTAB
  0
TABLE
  2
DIMSTYLE
  5
A
330
0
100
AcDbSymbolTable
 70
    1
100
AcDbDimStyleTable
 71
    1
  0
DIMSTYLE
105
51
330
A
100
AcDbSymbolTableRecord
100
AcDbDimStyleTableRecord
  2
Standard
 70
    0
 40
1
 41
0.1
 42
0.025
 43
0.38
 44
0.05
 45
0
 46
0
 47
0
 48
0
 49
0.04
140
0.1
141
0.09
142
0
143
25.4
144
1
145
0
146
1
147
0.025
148
0
 71
    0
 72
    0
 73
    0
 74
    1
 75
    0
 76
    0
 77
    0
 78
    1
 79
    0
170
    0
171
    2
172
    0
173
    0
174
    0
175
    0
176
    0
177
    0
178
    0
179
    2
271
    4
272
    4
273
    2
274
    2
275
    0
276
    0
277
    2
278
    0
279
    0
280
    0
281
    0
282
    0
283
    1
284
    0
285
    0
286
    0
288
    0
289
    3
340
standard
341

371
   -2
372
   -2
  0
ENDTAB
  0
TABLE
  2
BLOCK_RECORD
  5
1
330
0
100
AcDbSymbolTable
 70
    2
  0
BLOCK_RECORD
  5
1F
330
1
100
AcDbSymbolTableRecord
100
AcDbBlockTableRecord
  2
*Model_Space
 70
    0
280
    1
281
    0
  0
BLOCK_RECORD
  5
1E
330
1
100
AcDbSymbolTableRecord
100
AcDbBlockTableRecord
  2
*Paper_Space
 70
    0
280
    1
281
    0
  0
BLOCK_RECORD
  5
52
330
1
100
AcDbSymbolTableRecord
100
AcDbBlockTableRecord
  2
*D2
 70
    0
280
    1
281
    0
  0
BLOCK_RECORD
  5
55
330
1
100
AcDbSymbolTableRecord
100
AcDbBlockTableRecord
  2
*D1
 70
    0
280
    1
281
    0
  0
ENDTAB
  0
ENDSEC
  0
SECTION
  2
BLOCKS
  0
BLOCK
  5
20
330
1F
100
AcDbEntity
  8
0
100
AcDbBlockBegin
  2
*Model_Space
 70
    0
 10
0
 20
0
 30
0
  3
*Model_Space
  1

  0
ENDBLK
  5
21
330
1F
100
AcDbEntity
  8
0
100
AcDbBlockEnd
  0
BLOCK
  5
1C
330
1B
100
AcDbEntity
  8
0
100
AcDbBlockBegin
  2
*Paper_Space
 70
    0
 10
0
 20
0
 30
0
  3
*Paper_Space
  1

  0
ENDBLK
  5
1D
330
1F
100
AcDbEntity
  8
0
100
AcDbBlockEnd
  0
BLOCK
  5
53
330
52
100
AcDbEntity
  8
0
100
AcDbBlockBegin
  2
*D2
 70
    1
 10
0
 20
0
  3
*D2
  1

  0
LINE
  5
58
100
AcDbEntity
  8
0
  6
ByBlock
 62
    0
370
   -2
100
AcDbLine
 10
-8.713134772435536
 20
5.100000000000001
 11
-8.713134772435536
 21
4.5
  0
SOLID
  5
59
100
AcDbEntity
  8
0
  6
ByBlock
 62
    0
370
   -2
100
AcDbTrace
 10
-8.713134772435536
 20
5.100000000000001
 30
0
 11
-8.696483386124623
 21
5.000000000000002
 31
0
 12
-8.72978615874645
 22
5.000000000000002
 32
0
 13
-8.72978615874645
 23
5.000000000000002
 33
0
  0
SOLID
  5
5A
100
AcDbEntity
  8
0
  6
ByBlock
 62
    0
370
   -2
100
AcDbTrace
 10
-8.713134772435536
 20
4.5
 30
0
 11
-8.72978615874645
 21
4.6
 31
0
 12
-8.696483386124623
 22
4.6
 32
0
 13
-8.696483386124623
 23
4.6
 33
0
  0
MTEXT
  5
5B
100
AcDbEntity
  8
0
  6
CONTINUOUS
 62
    0
370
   -2
100
AcDbMText
 10
-8.788134772435535
 20
4.800000000000001
 30
0
 40
0.1
 41
0.3888888888888952
 71
    5
 72
    1
  1
0.6000
  7
standard
210
0
220
0
230
1
 50
90
 73
    2
 44
1
  0
LINE
  5
5C
100
AcDbEntity
  8
0
  6
ByBlock
 62
    0
370
   -2
100
AcDbLine
 10
-8.425000000000001
 20
5.100000000000001
 11
-8.763134772435537
 21
5.100000000000001
  0
LINE
  5
5D
100
AcDbEntity
  8
0
  6
ByBlock
 62
    0
370
   -2
100
AcDbLine
 10
-8.425000000000001
 20
4.5
 11
-8.763134772435537
 21
4.5
  0
ENDBLK
  5
54
330
52
100
AcDbEntity
  8
0
100
AcDbBlockEnd
  0
BLOCK
  5
56
330
55
100
AcDbEntity
  8
0
100
AcDbBlockBegin
  2
*D1
 70
    1
 10
0
 20
0
  3
*D1
  1

  0
LINE
  5
5E
100
AcDbEntity
  8
0
  6
ByBlock
 62
    0
370
   -2
100
AcDbLine
 10
4.205949284786416
 20
15.40000011920929
 11
4.205949284786415
 21
7.400000119209292
  0
SOLID
  5
5F
100
AcDbEntity
  8
0
  6
ByBlock
 62
    0
370
   -2
100
AcDbTrace
 10
4.205949284786416
 20
15.40000011920929
 30
0
 11
4.22260067109733
 21
15.30000011920929
 31
0
 12
4.189297898475503
 22
15.30000011920929
 32
0
 13
4.189297898475503
 23
15.30000011920929
 33
0
  0
SOLID
  5
60
100
AcDbEntity
  8
0
  6
ByBlock
 62
    0
370
   -2
100
AcDbTrace
 10
4.205949284786415
 20
7.400000119209292
 30
0
 11
4.189297898475502
 21
7.500000119209291
 31
0
 12
4.222600671097329
 22
7.500000119209291
 32
0
 13
4.222600671097329
 23
7.500000119209291
 33
0
  0
MTEXT
  5
61
100
AcDbEntity
  8
0
  6
CONTINUOUS
 62
    0
370
   -2
100
AcDbMText
 10
4.130949284786415
 20
11.40000011920929
 30
0
 40
0.1
 41
0.3888888888888888
 71
    5
 72
    1
  1
8.0000
  7
standard
210
0
220
0
230
1
 50
90
 73
    2
 44
1
  0
LINE
  5
62
100
AcDbEntity
  8
0
  6
ByBlock
 62
    0
370
   -2
100
AcDbLine
 10
3.425
 20
15.40000011920929
 11
4.255949284786416
 21
15.40000011920929
  0
LINE
  5
63
100
AcDbEntity
  8
0
  6
ByBlock
 62
    0
370
   -2
100
AcDbLine
 10
3.424999999999999
 20
7.400000119209292
 11
4.255949284786415
 21
7.400000119209292
  0
ENDBLK
  5
57
330
55
100
AcDbEntity
  8
0
100
AcDbBlockEnd
  0
ENDSEC
  0
SECTION
  2
ENTITIES
  0
LINE
  5
64
100
AcDbEntity
  8
const0
  6
ByLayer
 62
  256
370
   -1
100
AcDbLine
 10
0
 20
1.5
 11
16
 21
1.5
  0
LINE
  5
65
100
AcDbEntity
  8
const0
  6
ByLayer
 62
  256
370
   -1
100
AcDbLine
 10
8
 20
3
 11
8
 21
0
  0
LWPOLYLINE
  5
66
100
AcDbEntity
  8
const1
  6
ByLayer
 62
  256
370
   -1
100
AcDbPolyline
 90
    4
 70
    1
 43
0
 10
7.727765
 20
1.227765
 10
8.272235
 20
1.227765
 10
8.272235
 20
1.772235
 10
7.727765
 20
1.772235
  0
LINE
  5
67
100
AcDbEntity
  8
const1
  6
ByLayer
 62
  256
370
   -1
100
AcDbLine
 10
8
 20
1.772235
 11
8
 21
1.227765
  0
LINE
  5
68
100
AcDbEntity
  8
const1
  6
ByLayer
 62
  256
370
   -1
100
AcDbLine
 10
7.727765
 20
1.5
 11
8.272235
 21
1.5
  0
CIRCLE
  5
69
100
AcDbEntity
  8
vector
  6
ByLayer
 62
  256
370
   -1
100
AcDbCircle
 10
8.272235
 20
1.772235
 40
0.0725
  0
CIRCLE
  5
6A
100
AcDbEntity
  8
vector
  6
ByLayer
 62
  256
370
   -1
100
AcDbCircle
 10
7.727765
 20
1.772235
 40
0.0725
  0
CIRCLE
  5
6B
100
AcDbEntity
  8
vector
  6
ByLayer
 62
  256
370
   -1
100
AcDbCircle
 10
7.727765
 20
1.227765
 40
0.0725
  0
CIRCLE
  5
6C
100
AcDbEntity
  8
vector
  6
ByLayer
 62
  256
370
   -1
100
AcDbCircle
 10
8.272235
 20
1.227765
 40
0.0725
  0
LINE
  5
6D
100
AcDbEntity
  8
const1
  6
ByLayer
 62
  256
370
   -1
100
AcDbLine
 10
0
 20
1.5
 11
-3.061616997868383e-17
 21
1
  0
LINE
  5
6E
100
AcDbEntity
  8
const1
  6
ByLayer
 62
  256
370
   -1
100
AcDbLine
 10
16
 20
1.5
 11
16
 21
1
  0
LINE
  5
6F
100
AcDbEntity
  8
const1
  6
ByLayer
 62
  256
370
   -1
100
AcDbLine
 10
16
 20
1.5
 11
16
 21
2
  0
LINE
  5
70
100
AcDbEntity
  8
const1
  6
ByLayer
 62
  256
370
   -1
100
AcDbLine
 10
0
 20
1.5
 11
3.061616997868383e-17
 21
2
  0
LINE
  5
71
100
AcDbEntity
  8
const1
  6
ByLayer
 62
  256
370
   -1
100
AcDbLine
 10
-3.061616997868383e-17
 20
1
 11
8
 21
1
  0
LINE
  5
72
100
AcDbEntity
  8
const1
  6
ByLayer
 62
  256
370
   -1
100
AcDbLine
 10
3.061616997868383e-17
 20
2
 11
8
 21
2
  0
LINE
  5
73
100
AcDbEntity
  8
const1
  6
ByLayer
 62
  256
370
   -1
100
AcDbLine
 10
16
 20
1
 11
8
 21
1
  0
LINE
  5
74
100
AcDbEntity
  8
const1
  6
ByLayer
 62
  256
370
   -1
100
AcDbLine
 10
16
 20
2
 11
8
 21
2
  0
LINE
  5
75
100
AcDbEntity
  8
const1
  6
ByLayer
 62
  256
370
   -1
100
AcDbLine
 10
3.061616997868383e-17
 20
2
 11
6.123233995736766e-17
 21
2.5
  0
LINE
  5
76
100
AcDbEntity
  8
const1
  6
ByLayer
 62
  256
370
   -1
100
AcDbLine
 10
16
 20
2
 11
16
 21
2.5
  0
LINE
  5
77
100
AcDbEntity
  8
const1
  6
ByLayer
 62
  256
370
   -1
100
AcDbLine
 10
16
 20
1
 11
16
 21
0.5
  0
LINE
  5
78
100
AcDbEntity
  8
const1
  6
ByLayer
 62
  256
370
   -1
100
AcDbLine
 10
-6.123233995736766e-17
 20
0.5
 11
8
 21
0.5
  0
LINE
  5
79
100
AcDbEntity
  8
const1
  6
ByLayer
 62
  256
370
   -1
100
AcDbLine
 10
16
 20
2.5
 11
8
 21
2.5
  0
LINE
  5
7A
100
AcDbEntity
  8
const1
  6
ByLayer
 62
  256
370
   -1
100
AcDbLine
 10
16
 20
0.5
 11
8
 21
0.5
  0
LINE
  5
7B
100
AcDbEntity
  8
const2
  6
ByLayer
 62
  256
370
   -1
100
AcDbLine
 10
6.123233995736766e-17
 20
2.5
 11
0.5000000000000001
 21
2.5
  0
LINE
  5
7C
100
AcDbEntity
  8
const2
  6
ByLayer
 62
  256
370
   -1
100
AcDbLine
 10
0.5000000000000001
 20
2.5
 11
1
 21
2.5
  0
LINE
  5
7D
100
AcDbEntity
  8
const2
  6
ByLayer
 62
  256
370
   -1
100
AcDbLine
 10
16
 20
0.5
 11
15.5
 21
0.5
  0
LINE
  5
7E
100
AcDbEntity
  8
const2
  6
ByLayer
 62
  256
370
   -1
100
AcDbLine
 10
15.5
 20
0.5
 11
15
 21
0.5
  0
CIRCLE
  5
7F
100
AcDbEntity
  8
vector
  6
ByLayer
 62
  256
370
   -1
100
AcDbCircle
 10
2
 20
2.5
 40
0.1
  0
CIRCLE
  5
80
100
AcDbEntity
  8
vector
  6
ByLayer
 62
  256
370
   -1
100
AcDbCircle
 10
3
 20
2.5
 40
0.1
  0
CIRCLE
  5
81
100
AcDbEntity
  8
vector
  6
ByLayer
 62
  256
370
   -1
100
AcDbCircle
 10
4
 20
2.5
 40
0.1
  0
CIRCLE
  5
82
100
AcDbEntity
  8
vector
  6
ByLayer
 62
  256
370
   -1
100
AcDbCircle
 10
5
 20
2.5
 40
0.1
  0
CIRCLE
  5
83
100
AcDbEntity
  8
vector
  6
ByLayer
 62
  256
370
   -1
100
AcDbCircle
 10
15
 20
0.5
 40
0.1
  0
CIRCLE
  5
84
100
AcDbEntity
  8
vector
  6
ByLayer
 62
  256
370
   -1
100
AcDbCircle
 10
14
 20
0.5
 40
0.1
  0
CIRCLE
  5
85
100
AcDbEntity
  8
vector
  6
ByLayer
 62
  256
370
   -1
100
AcDbCircle
 10
13
 20
0.5
 40
0.1
  0
CIRCLE
  5
86
100
AcDbEntity
  8
vector
  6
ByLayer
 62
  256
370
   -1
100
AcDbCircle
 10
12
 20
0.5
 40
0.1
  0
CIRCLE
  5
87
100
AcDbEntity
  8
vector
  6
ByLayer
 62
  256
370
   -1
100
AcDbCircle
 10
11
 20
0.5
 40
0.1
  0
LINE
  5
88
100
AcDbEntity
  8
const2
  6
ByLayer
 62
  256
370
   -1
100
AcDbLine
 10
8
 20
2.5
 11
7
 21
2.5
  0
LINE
  5
89
100
AcDbEntity
  8
const2
  6
ByLayer
 62
  256
370
   -1
100
AcDbLine
 10
8
 20
1.5
 11
7
 21
1.5
  0
LINE
  5
8A
100
AcDbEntity
  8
const2
  6
ByLayer
 62
  256
370
   -1
100
AcDbLine
 10
8
 20
0.5
 11
7
 21
0.5
  0
LINE
  5
8B
100
AcDbEntity
  8
const2
  6
ByLayer
 62
  256
370
   -1
100
AcDbLine
 10
8
 20
2.5
 11
9
 21
2.5
  0
LINE
  5
8C
100
AcDbEntity
  8
const2
  6
ByLayer
 62
  256
370
   -1
100
AcDbLine
 10
8
 20
1.5
 11
9
 21
1.5
  0
LINE
  5
8D
100
AcDbEntity
  8
const2
  6
ByLayer
 62
  256
370
   -1
100
AcDbLine
 10
8
 20
0.5
 11
9
 21
0.5
  0
CIRCLE
  5
8E
100
AcDbEntity
  8
vector
  6
ByLayer
 62
  256
370
   -1
100
AcDbCircle
 10
8
 20
2.5
 40
0.1
  0
CIRCLE
  5
8F
100
AcDbEntity
  8
vector
  6
ByLayer
 62
  256
370
   -1
100
AcDbCircle
 10
9
 20
1.5
 40
0.1
  0
CIRCLE
  5
90
100
AcDbEntity
  8
vector
  6
ByLayer
 62
  256
370
   -1
100
AcDbCircle
 10
7
 20
1.5
 40
0.1
  0
CIRCLE
  5
91
100
AcDbEntity
  8
vector
  6
ByLayer
 62
  256
370
   -1
100
AcDbCircle
 10
8
 20
0.5
 40
0.1
  0
CIRCLE
  5
92
100
AcDbEntity
  8
nocut
  6
ByLayer
 62
  256
370
   -1
100
AcDbCircle
 10
8
 20
1.5
 40
0.255
  0
LWPOLYLINE
  5
93
100
AcDbEntity
  8
vector
  6
ByLayer
 62
  256
370
   -1
100
AcDbPolyline
 90
    8
 70
    1
 43
0
 10
6.05
 20
2
 10
6.65
 20
2
 42
-0.4142135623731029
 10
6.700000000000001
 20
1.95
 10
6.7
 20
1.05
 42
-0.4142135623730976
 10
6.65
 20
0.9999999999999998
 10
6.05
 20
0.9999999999999999
 42
-0.4142135623730911
 10
6.000000000000001
 20
1.05
 10
6.000000000000001
 20
1.95
 42
-0.4142135623730911
  0
LWPOLYLINE
  5
94
100
AcDbEntity
  8
vector
  6
ByLayer
 62
  256
370
   -1
100
AcDbPolyline
 90
    8
 70
    1
 43
0
 10
9.949999999999999
 20
2
 10
9.350000000000001
 20
2
 42
0.4142135623730938
 10
9.300000000000001
 20
1.95
 10
9.300000000000001
 20
1.05
 42
0.4142135623730938
 10
9.350000000000001
 20
0.9999999999999997
 10
9.949999999999999
 20
0.9999999999999998
 42
0.4142135623730924
 10
10
 20
1.05
 10
10
 20
1.95
 42
0.4142135623730938
  0
LWPOLYLINE
  5
95
100
AcDbEntity
  8
vector
  6
ByLayer
 62
  256
370
   -1
100
AcDbPolyline
 90
    8
 70
    1
 43
0
 10
0.375
 20
0
 10
15.625
 20
0
 42
0.414213562373095
 10
16
 20
0.375
 10
16
 20
2.625
 42
0.414213562373095
 10
15.625
 20
3
 10
0.375
 20
3
 42
0.414213562373095
 10
0
 20
2.625
 10
4.440892098500626e-16
 20
0.3750000000000002
 42
0.4142135623730945
  0
LINE
  5
96
100
AcDbEntity
  8
const2
  6
ByLayer
 62
  256
370
   -1
100
AcDbLine
 10
6.35
 20
1.5
 11
6.35
 21
3
  0
LINE
  5
97
100
AcDbEntity
  8
const2
  6
ByLayer
 62
  256
370
   -1
100
AcDbLine
 10
9.65
 20
1.5
 11
9.65
 21
3
  0
LINE
  5
98
100
AcDbEntity
  8
const2
  6
ByLayer
 62
  256
370
   -1
100
AcDbLine
 10
6.35
 20
1.5
 11
6.35
 21
0
  0
LINE
  5
99
100
AcDbEntity
  8
const2
  6
ByLayer
 62
  256
370
   -1
100
AcDbLine
 10
9.65
 20
1.5
 11
9.65
 21
0
  0
LINE
  5
9A
100
AcDbEntity
  8
const1
  6
ByLayer
 62
  256
370
   -1
100
AcDbLine
 10
6.349999999999999
 20
2
 11
6.349999999999999
 21
2.5
  0
LINE
  5
9B
100
AcDbEntity
  8
const1
  6
ByLayer
 62
  256
370
   -1
100
AcDbLine
 10
9.65
 20
2
 11
9.65
 21
2.5
  0
LINE
  5
9C
100
AcDbEntity
  8
const1
  6
ByLayer
 62
  256
370
   -1
100
AcDbLine
 10
6.349999999999999
 20
1
 11
6.349999999999999
 21
0.5
  0
LINE
  5
9D
100
AcDbEntity
  8
const1
  6
ByLayer
 62
  256
370
   -1
100
AcDbLine
 10
9.65
 20
1
 11
9.65
 21
0.5
  0
LINE
  5
9E
100
AcDbEntity
  8
const1
  6
ByLayer
 62
  256
370
   -1
100
AcDbLine
 10
1
 20
2.5
 11
7
 21
2.5
  0
LINE
  5
9F
100
AcDbEntity
  8
const2
  6
ByLayer
 62
  256
370
   -1
100
AcDbLine
 10
16
 20
1.5
 11
15.5
 21
1.5
  0
LINE
  5
A0
100
AcDbEntity
  8
const1
  6
ByLayer
 62
  256
370
   -1
100
AcDbLine
 10
6.35
 20
3
 11
6.35
 21
2.8
  0
LINE
  5
A1
100
AcDbEntity
  8
const1
  6
ByLayer
 62
  256
370
   -1
100
AcDbLine
 10
9.65
 20
0
 11
9.65
 21
0.2
  0
ARC
  5
A2
100
AcDbEntity
  8
vector
  6
ByLayer
 62
  256
370
   -1
100
AcDbCircle
 10
6.6125
 20
2.875
 40
0.025
100
AcDbArc
 50
360
 51
90
  0
LINE
  5
A3
100
AcDbEntity
  8
vector
  6
ByLayer
 62
  256
370
   -1
100
AcDbLine
 10
6.6125
 20
2.899999999999999
 11
6.5625
 21
2.899999999999999
  0
ARC
  5
A4
100
AcDbEntity
  8
vector
  6
ByLayer
 62
  256
370
   -1
100
AcDbCircle
 10
6.5625
 20
2.875
 40
0.025
100
AcDbArc
 50
90
 51
180
  0
LINE
  5
A5
100
AcDbEntity
  8
vector
  6
ByLayer
 62
  256
370
   -1
100
AcDbLine
 10
6.637499999999999
 20
2.875
 11
6.637499999999999
 21
2.725
  0
ARC
  5
A6
100
AcDbEntity
  8
vector
  6
ByLayer
 62
  256
370
   -1
100
AcDbCircle
 10
6.6125
 20
2.725
 40
0.025
100
AcDbArc
 50
270
 51
360
  0
LINE
  5
A7
100
AcDbEntity
  8
vector
  6
ByLayer
 62
  256
370
   -1
100
AcDbLine
 10
6.5625
 20
2.7
 11
6.6125
 21
2.7
  0
ARC
  5
A8
100
AcDbEntity
  8
vector
  6
ByLayer
 62
  256
370
   -1
100
AcDbCircle
 10
6.5625
 20
2.725
 40
0.025
100
AcDbArc
 50
180
 51
270
  0
LINE
  5
A9
100
AcDbEntity
  8
vector
  6
ByLayer
 62
  256
370
   -1
100
AcDbLine
 10
6.5375
 20
2.725
 11
6.5375
 21
2.875
  0
LINE
  5
AA
100
AcDbEntity
  8
const2
  6
ByLayer
 62
  256
370
   -1
100
AcDbLine
 10
6.5375
 20
2.8
 11
6.1625
 21
2.8
  0
ARC
  5
AB
100
AcDbEntity
  8
vector
  6
ByLayer
 62
  256
370
   -1
100
AcDbCircle
 10
6.137499999999999
 20
2.875
 40
0.025
100
AcDbArc
 50
360
 51
90
  0
ARC
  5
AC
100
AcDbEntity
  8
vector
  6
ByLayer
 62
  256
370
   -1
100
AcDbCircle
 10
6.137499999999999
 20
2.725
 40
0.025
100
AcDbArc
 50
270
 51
360
  0
LINE
  5
AD
100
AcDbEntity
  8
vector
  6
ByLayer
 62
  256
370
   -1
100
AcDbLine
 10
6.137499999999999
 20
2.7
 11
6.087499999999999
 21
2.7
  0
ARC
  5
AE
100
AcDbEntity
  8
vector
  6
ByLayer
 62
  256
370
   -1
100
AcDbCircle
 10
6.087499999999999
 20
2.725
 40
0.025
100
AcDbArc
 50
180
 51
270
  0
LINE
  5
AF
100
AcDbEntity
  8
vector
  6
ByLayer
 62
  256
370
   -1
100
AcDbLine
 10
6.062499999999998
 20
2.875
 11
6.062499999999998
 21
2.725
  0
LINE
  5
B0
100
AcDbEntity
  8
vector
  6
ByLayer
 62
  256
370
   -1
100
AcDbLine
 10
6.137499999999999
 20
2.899999999999999
 11
6.087499999999999
 21
2.899999999999999
  0
ARC
  5
B1
100
AcDbEntity
  8
vector
  6
ByLayer
 62
  256
370
   -1
100
AcDbCircle
 10
6.087499999999999
 20
2.875
 40
0.025
100
AcDbArc
 50
90
 51
180
  0
LINE
  5
B2
100
AcDbEntity
  8
vector
  6
ByLayer
 62
  256
370
   -1
100
AcDbLine
 10
6.1625
 20
2.725
 11
6.1625
 21
2.875
  0
ARC
  5
B3
100
AcDbEntity
  8
vector
  6
ByLayer
 62
  256
370
   -1
100
AcDbCircle
 10
9.912500000000001
 20
0.2750000000000004
 40
0.025
100
AcDbArc
 50
360
 51
90
  0
LINE
  5
B4
100
AcDbEntity
  8
vector
  6
ByLayer
 62
  256
370
   -1
100
AcDbLine
 10
9.912500000000001
 20
0.2999999999999998
 11
9.862500000000001
 21
0.2999999999999998
  0
ARC
  5
B5
100
AcDbEntity
  8
vector
  6
ByLayer
 62
  256
370
   -1
100
AcDbCircle
 10
9.862500000000001
 20
0.2750000000000004
 40
0.025
100
AcDbArc
 50
90
 51
180
  0
LINE
  5
B6
100
AcDbEntity
  8
vector
  6
ByLayer
 62
  256
370
   -1
100
AcDbLine
 10
9.9375
 20
0.2750000000000004
 11
9.9375
 21
0.125
  0
ARC
  5
B7
100
AcDbEntity
  8
vector
  6
ByLayer
 62
  256
370
   -1
100
AcDbCircle
 10
9.912500000000001
 20
0.125
 40
0.025
100
AcDbArc
 50
270
 51
360
  0
LINE
  5
B8
100
AcDbEntity
  8
vector
  6
ByLayer
 62
  256
370
   -1
100
AcDbLine
 10
9.862500000000001
 20
0.1000000000000005
 11
9.912500000000001
 21
0.1000000000000005
  0
ARC
  5
B9
100
AcDbEntity
  8
vector
  6
ByLayer
 62
  256
370
   -1
100
AcDbCircle
 10
9.862500000000001
 20
0.125
 40
0.025
100
AcDbArc
 50
180
 51
270
  0
LINE
  5
BA
100
AcDbEntity
  8
vector
  6
ByLayer
 62
  256
370
   -1
100
AcDbLine
 10
9.8375
 20
0.125
 11
9.8375
 21
0.2750000000000004
  0
LINE
  5
BB
100
AcDbEntity
  8
const2
  6
ByLayer
 62
  256
370
   -1
100
AcDbLine
 10
9.8375
 20
0.2000000000000002
 11
9.4625
 21
0.2000000000000002
  0
ARC
  5
BC
100
AcDbEntity
  8
vector
  6
ByLayer
 62
  256
370
   -1
100
AcDbCircle
 10
9.4375
 20
0.2750000000000004
 40
0.025
100
AcDbArc
 50
360
 51
90
  0
ARC
  5
BD
100
AcDbEntity
  8
vector
  6
ByLayer
 62
  256
370
   -1
100
AcDbCircle
 10
9.4375
 20
0.125
 40
0.025
100
AcDbArc
 50
270
 51
360
  0
LINE
  5
BE
100
AcDbEntity
  8
vector
  6
ByLayer
 62
  256
370
   -1
100
AcDbLine
 10
9.4375
 20
0.1000000000000005
 11
9.387499999999999
 21
0.1000000000000005
  0
ARC
  5
BF
100
AcDbEntity
  8
vector
  6
ByLayer
 62
  256
370
   -1
100
AcDbCircle
 10
9.387499999999999
 20
0.125
 40
0.025
100
AcDbArc
 50
180
 51
270
  0
LINE
  5
C0
100
AcDbEntity
  8
vector
  6
ByLayer
 62
  256
370
   -1
100
AcDbLine
 10
9.362499999999999
 20
0.2750000000000004
 11
9.362499999999999
 21
0.125
  0
LINE
  5
C1
100
AcDbEntity
  8
vector
  6
ByLayer
 62
  256
370
   -1
100
AcDbLine
 10
9.4375
 20
0.2999999999999998
 11
9.387499999999999
 21
0.2999999999999998
  0
ARC
  5
C2
100
AcDbEntity
  8
vector
  6
ByLayer
 62
  256
370
   -1
100
AcDbCircle
 10
9.387499999999999
 20
0.2750000000000004
 40
0.025
100
AcDbArc
 50
90
 51
180
  0
LINE
  5
C3
100
AcDbEntity
  8
vector
  6
ByLayer
 62
  256
370
   -1
100
AcDbLine
 10
9.4625
 20
0.125
 11
9.4625
 21
0.2750000000000004
  0
LINE
  5
C4
100
AcDbEntity
  8
const1
  6
ByLayer
 62
  256
370
   -1
100
AcDbLine
 10
8
 20
0
 11
8
 21
0.2
  0
LINE
  5
C5
100
AcDbEntity
  8
const1
  6
ByLayer
 62
  256
370
   -1
100
AcDbLine
 10
8
 20
3
 11
8
 21
2.8
  0
ARC
  5
C6
100
AcDbEntity
  8
vector
  6
ByLayer
 62
  256
370
   -1
100
AcDbCircle
 10
1
 20
2.5
 40
0.1
100
AcDbArc
 50
180
 51
540
  0
LINE
  5
C7
100
AcDbEntity
  8
const2
  6
ByLayer
 62
  256
370
   -1
100
AcDbLine
 10
0
 20
1.5
 11
0.5
 21
1.5
  0
LINE
  5
C8
100
AcDbEntity
  8
const1
  6
ByLayer
 62
  256
370
   -1
100
AcDbLine
 10
8
 20
1
 11
8
 21
0.75
  0
ARC
  5
C9
100
AcDbEntity
  8
vector
  6
ByLayer
 62
  256
370
   -1
100
AcDbCircle
 10
1.075
 20
0.1374999999999998
 40
0.025
100
AcDbArc
 50
270
 51
360
  0
LINE
  5
CA
100
AcDbEntity
  8
vector
  6
ByLayer
 62
  256
370
   -1
100
AcDbLine
 10
1.1
 20
0.1374999999999998
 11
1.1
 21
0.1874999999999996
  0
ARC
  5
CB
100
AcDbEntity
  8
vector
  6
ByLayer
 62
  256
370
   -1
100
AcDbCircle
 10
1.075
 20
0.1874999999999996
 40
0.025
100
AcDbArc
 50
360
 51
90
  0
LINE
  5
CC
100
AcDbEntity
  8
vector
  6
ByLayer
 62
  256
370
   -1
100
AcDbLine
 10
1.075
 20
0.1125000000000004
 11
0.9249999999999998
 21
0.1125000000000004
  0
ARC
  5
CD
100
AcDbEntity
  8
vector
  6
ByLayer
 62
  256
370
   -1
100
AcDbCircle
 10
0.9249999999999998
 20
0.1374999999999998
 40
0.025
100
AcDbArc
 50
180
 51
270
  0
LINE
  5
CE
100
AcDbEntity
  8
vector
  6
ByLayer
 62
  256
370
   -1
100
AcDbLine
 10
0.9000000000000004
 20
0.1874999999999996
 11
0.9000000000000004
 21
0.1374999999999998
  0
ARC
  5
CF
100
AcDbEntity
  8
vector
  6
ByLayer
 62
  256
370
   -1
100
AcDbCircle
 10
0.9249999999999998
 20
0.1874999999999996
 40
0.025
100
AcDbArc
 50
90
 51
180
  0
LINE
  5
D0
100
AcDbEntity
  8
vector
  6
ByLayer
 62
  256
370
   -1
100
AcDbLine
 10
0.9249999999999998
 20
0.2125
 11
1.075
 21
0.2125
  0
ARC
  5
D1
100
AcDbEntity
  8
vector
  6
ByLayer
 62
  256
370
   -1
100
AcDbCircle
 10
2.075
 20
0.1374999999999998
 40
0.025
100
AcDbArc
 50
270
 51
360
  0
LINE
  5
D2
100
AcDbEntity
  8
vector
  6
ByLayer
 62
  256
370
   -1
100
AcDbLine
 10
2.1
 20
0.1374999999999998
 11
2.1
 21
0.1874999999999996
  0
ARC
  5
D3
100
AcDbEntity
  8
vector
  6
ByLayer
 62
  256
370
   -1
100
AcDbCircle
 10
2.075
 20
0.1874999999999996
 40
0.025
100
AcDbArc
 50
360
 51
90
  0
LINE
  5
D4
100
AcDbEntity
  8
vector
  6
ByLayer
 62
  256
370
   -1
100
AcDbLine
 10
2.075
 20
0.1125000000000004
 11
1.925
 21
0.1125000000000004
  0
ARC
  5
D5
100
AcDbEntity
  8
vector
  6
ByLayer
 62
  256
370
   -1
100
AcDbCircle
 10
1.925
 20
0.1374999999999998
 40
0.025
100
AcDbArc
 50
180
 51
270
  0
LINE
  5
D6
100
AcDbEntity
  8
vector
  6
ByLayer
 62
  256
370
   -1
100
AcDbLine
 10
1.900000000000001
 20
0.1874999999999996
 11
1.900000000000001
 21
0.1374999999999998
  0
ARC
  5
D7
100
AcDbEntity
  8
vector
  6
ByLayer
 62
  256
370
   -1
100
AcDbCircle
 10
1.925
 20
0.1874999999999996
 40
0.025
100
AcDbArc
 50
90
 51
180
  0
LINE
  5
D8
100
AcDbEntity
  8
vector
  6
ByLayer
 62
  256
370
   -1
100
AcDbLine
 10
1.925
 20
0.2125
 11
2.075
 21
0.2125
  0
ARC
  5
D9
100
AcDbEntity
  8
vector
  6
ByLayer
 62
  256
370
   -1
100
AcDbCircle
 10
3.075000000000001
 20
0.1374999999999998
 40
0.025
100
AcDbArc
 50
270
 51
360
  0
LINE
  5
DA
100
AcDbEntity
  8
vector
  6
ByLayer
 62
  256
370
   -1
100
AcDbLine
 10
3.1
 20
0.1374999999999998
 11
3.1
 21
0.1874999999999996
  0
ARC
  5
DB
100
AcDbEntity
  8
vector
  6
ByLayer
 62
  256
370
   -1
100
AcDbCircle
 10
3.075000000000001
 20
0.1874999999999996
 40
0.025
100
AcDbArc
 50
360
 51
90
  0
LINE
  5
DC
100
AcDbEntity
  8
vector
  6
ByLayer
 62
  256
370
   -1
100
AcDbLine
 10
3.075000000000001
 20
0.1125000000000004
 11
2.925
 21
0.1125000000000004
  0
ARC
  5
DD
100
AcDbEntity
  8
vector
  6
ByLayer
 62
  256
370
   -1
100
AcDbCircle
 10
2.925
 20
0.1374999999999998
 40
0.025
100
AcDbArc
 50
180
 51
270
  0
LINE
  5
DE
100
AcDbEntity
  8
vector
  6
ByLayer
 62
  256
370
   -1
100
AcDbLine
 10
2.900000000000001
 20
0.1874999999999996
 11
2.900000000000001
 21
0.1374999999999998
  0
ARC
  5
DF
100
AcDbEntity
  8
vector
  6
ByLayer
 62
  256
370
   -1
100
AcDbCircle
 10
2.925
 20
0.1874999999999996
 40
0.025
100
AcDbArc
 50
90
 51
180
  0
LINE
  5
E0
100
AcDbEntity
  8
vector
  6
ByLayer
 62
  256
370
   -1
100
AcDbLine
 10
2.925
 20
0.2125
 11
3.075000000000001
 21
0.2125
  0
ARC
  5
E1
100
AcDbEntity
  8
vector
  6
ByLayer
 62
  256
370
   -1
100
AcDbCircle
 10
4.075000000000001
 20
0.1374999999999998
 40
0.025
100
AcDbArc
 50
270
 51
360
  0
LINE
  5
E2
100
AcDbEntity
  8
vector
  6
ByLayer
 62
  256
370
   -1
100
AcDbLine
 10
4.100000000000001
 20
0.1374999999999998
 11
4.100000000000001
 21
0.1874999999999996
  0
ARC
  5
E3
100
AcDbEntity
  8
vector
  6
ByLayer
 62
  256
370
   -1
100
AcDbCircle
 10
4.075000000000001
 20
0.1874999999999996
 40
0.025
100
AcDbArc
 50
360
 51
90
  0
LINE
  5
E4
100
AcDbEntity
  8
vector
  6
ByLayer
 62
  256
370
   -1
100
AcDbLine
 10
4.075000000000001
 20
0.1125000000000004
 11
3.925000000000001
 21
0.1125000000000004
  0
ARC
  5
E5
100
AcDbEntity
  8
vector
  6
ByLayer
 62
  256
370
   -1
100
AcDbCircle
 10
3.925000000000001
 20
0.1374999999999998
 40
0.025
100
AcDbArc
 50
180
 51
270
  0
LINE
  5
E6
100
AcDbEntity
  8
vector
  6
ByLayer
 62
  256
370
   -1
100
AcDbLine
 10
3.900000000000001
 20
0.1874999999999996
 11
3.900000000000001
 21
0.1374999999999998
  0
ARC
  5
E7
100
AcDbEntity
  8
vector
  6
ByLayer
 62
  256
370
   -1
100
AcDbCircle
 10
3.925000000000001
 20
0.1874999999999996
 40
0.025
100
AcDbArc
 50
90
 51
180
  0
LINE
  5
E8
100
AcDbEntity
  8
vector
  6
ByLayer
 62
  256
370
   -1
100
AcDbLine
 10
3.925000000000001
 20
0.2125
 11
4.075000000000001
 21
0.2125
  0
ARC
  5
E9
100
AcDbEntity
  8
vector
  6
ByLayer
 62
  256
370
   -1
100
AcDbCircle
 10
5.075000000000001
 20
0.1374999999999998
 40
0.025
100
AcDbArc
 50
270
 51
360
  0
LINE
  5
EA
100
AcDbEntity
  8
vector
  6
ByLayer
 62
  256
370
   -1
100
AcDbLine
 10
5.100000000000001
 20
0.1374999999999998
 11
5.100000000000001
 21
0.1874999999999996
  0
ARC
  5
EB
100
AcDbEntity
  8
vector
  6
ByLayer
 62
  256
370
   -1
100
AcDbCircle
 10
5.075000000000001
 20
0.1874999999999996
 40
0.025
100
AcDbArc
 50
360
 51
90
  0
LINE
  5
EC
100
AcDbEntity
  8
vector
  6
ByLayer
 62
  256
370
   -1
100
AcDbLine
 10
5.075000000000001
 20
0.1125000000000004
 11
4.925000000000001
 21
0.1125000000000004
  0
ARC
  5
ED
100
AcDbEntity
  8
vector
  6
ByLayer
 62
  256
370
   -1
100
AcDbCircle
 10
4.925000000000001
 20
0.1374999999999998
 40
0.025
100
AcDbArc
 50
180
 51
270
  0
LINE
  5
EE
100
AcDbEntity
  8
vector
  6
ByLayer
 62
  256
370
   -1
100
AcDbLine
 10
4.900000000000001
 20
0.1874999999999996
 11
4.900000000000001
 21
0.1374999999999998
  0
ARC
  5
EF
100
AcDbEntity
  8
vector
  6
ByLayer
 62
  256
370
   -1
100
AcDbCircle
 10
4.925000000000001
 20
0.1874999999999996
 40
0.025
100
AcDbArc
 50
90
 51
180
  0
LINE
  5
F0
100
AcDbEntity
  8
vector
  6
ByLayer
 62
  256
370
   -1
100
AcDbLine
 10
4.925000000000001
 20
0.2125
 11
5.075000000000001
 21
0.2125
  0
ARC
  5
F1
100
AcDbEntity
  8
vector
  6
ByLayer
 62
  256
370
   -1
100
AcDbCircle
 10
6.075000000000001
 20
0.1374999999999999
 40
0.025
100
AcDbArc
 50
270
 51
360
  0
LINE
  5
F2
100
AcDbEntity
  8
vector
  6
ByLayer
 62
  256
370
   -1
100
AcDbLine
 10
6.100000000000001
 20
0.1374999999999999
 11
6.100000000000001
 21
0.1874999999999997
  0
ARC
  5
F3
100
AcDbEntity
  8
vector
  6
ByLayer
 62
  256
370
   -1
100
AcDbCircle
 10
6.075000000000001
 20
0.1874999999999997
 40
0.025
100
AcDbArc
 50
360
 51
90
  0
LINE
  5
F4
100
AcDbEntity
  8
vector
  6
ByLayer
 62
  256
370
   -1
100
AcDbLine
 10
6.075000000000001
 20
0.1125000000000004
 11
5.925000000000001
 21
0.1125000000000004
  0
ARC
  5
F5
100
AcDbEntity
  8
vector
  6
ByLayer
 62
  256
370
   -1
100
AcDbCircle
 10
5.925000000000001
 20
0.1374999999999999
 40
0.025
100
AcDbArc
 50
180
 51
270
  0
LINE
  5
F6
100
AcDbEntity
  8
vector
  6
ByLayer
 62
  256
370
   -1
100
AcDbLine
 10
5.900000000000001
 20
0.1874999999999997
 11
5.900000000000001
 21
0.1374999999999999
  0
ARC
  5
F7
100
AcDbEntity
  8
vector
  6
ByLayer
 62
  256
370
   -1
100
AcDbCircle
 10
5.925000000000001
 20
0.1874999999999997
 40
0.025
100
AcDbArc
 50
90
 51
180
  0
LINE
  5
F8
100
AcDbEntity
  8
vector
  6
ByLayer
 62
  256
370
   -1
100
AcDbLine
 10
5.925000000000001
 20
0.2125000000000001
 11
6.075000000000001
 21
0.2125000000000001
  0
ARC
  5
F9
100
AcDbEntity
  8
vector
  6
ByLayer
 62
  256
370
   -1
100
AcDbCircle
 10
10.075
 20
2.8125
 40
0.025
100
AcDbArc
 50
270
 51
360
  0
ARC
  5
FA
100
AcDbEntity
  8
vector
  6
ByLayer
 62
  256
370
   -1
100
AcDbCircle
 10
9.925000000000001
 20
2.8125
 40
0.025
100
AcDbArc
 50
180
 51
270
  0
LINE
  5
FB
100
AcDbEntity
  8
vector
  6
ByLayer
 62
  256
370
   -1
100
AcDbLine
 10
9.9
 20
2.8125
 11
9.9
 21
2.862500000000001
  0
ARC
  5
FC
100
AcDbEntity
  8
vector
  6
ByLayer
 62
  256
370
   -1
100
AcDbCircle
 10
9.925000000000001
 20
2.862500000000001
 40
0.025
100
AcDbArc
 50
90
 51
180
  0
LINE
  5
FD
100
AcDbEntity
  8
vector
  6
ByLayer
 62
  256
370
   -1
100
AcDbLine
 10
10.075
 20
2.887500000000001
 11
9.925000000000001
 21
2.887500000000001
  0
LINE
  5
FE
100
AcDbEntity
  8
vector
  6
ByLayer
 62
  256
370
   -1
100
AcDbLine
 10
10.1
 20
2.8125
 11
10.1
 21
2.862500000000001
  0
ARC
  5
FF
100
AcDbEntity
  8
vector
  6
ByLayer
 62
  256
370
   -1
100
AcDbCircle
 10
10.075
 20
2.862500000000001
 40
0.025
100
AcDbArc
 50
360
 51
90
  0
LINE
  5
100
100
AcDbEntity
  8
vector
  6
ByLayer
 62
  256
370
   -1
100
AcDbLine
 10
9.925000000000001
 20
2.7875
 11
10.075
 21
2.7875
  0
ARC
  5
101
100
AcDbEntity
  8
vector
  6
ByLayer
 62
  256
370
   -1
100
AcDbCircle
 10
11.075
 20
2.8125
 40
0.025
100
AcDbArc
 50
270
 51
360
  0
ARC
  5
102
100
AcDbEntity
  8
vector
  6
ByLayer
 62
  256
370
   -1
100
AcDbCircle
 10
10.925
 20
2.8125
 40
0.025
100
AcDbArc
 50
180
 51
270
  0
LINE
  5
103
100
AcDbEntity
  8
vector
  6
ByLayer
 62
  256
370
   -1
100
AcDbLine
 10
10.9
 20
2.8125
 11
10.9
 21
2.862500000000001
  0
ARC
  5
104
100
AcDbEntity
  8
vector
  6
ByLayer
 62
  256
370
   -1
100
AcDbCircle
 10
10.925
 20
2.862500000000001
 40
0.025
100
AcDbArc
 50
90
 51
180
  0
LINE
  5
105
100
AcDbEntity
  8
vector
  6
ByLayer
 62
  256
370
   -1
100
AcDbLine
 10
11.075
 20
2.887500000000001
 11
10.925
 21
2.887500000000001
  0
LINE
  5
106
100
AcDbEntity
  8
vector
  6
ByLayer
 62
  256
370
   -1
100
AcDbLine
 10
11.1
 20
2.8125
 11
11.1
 21
2.862500000000001
  0
ARC
  5
107
100
AcDbEntity
  8
vector
  6
ByLayer
 62
  256
370
   -1
100
AcDbCircle
 10
11.075
 20
2.862500000000001
 40
0.025
100
AcDbArc
 50
360
 51
90
  0
LINE
  5
108
100
AcDbEntity
  8
vector
  6
ByLayer
 62
  256
370
   -1
100
AcDbLine
 10
10.925
 20
2.7875
 11
11.075
 21
2.7875
  0
ARC
  5
109
100
AcDbEntity
  8
vector
  6
ByLayer
 62
  256
370
   -1
100
AcDbCircle
 10
12.075
 20
2.8125
 40
0.025
100
AcDbArc
 50
270
 51
360
  0
ARC
  5
10A
100
AcDbEntity
  8
vector
  6
ByLayer
 62
  256
370
   -1
100
AcDbCircle
 10
11.925
 20
2.8125
 40
0.025
100
AcDbArc
 50
180
 51
270
  0
LINE
  5
10B
100
AcDbEntity
  8
vector
  6
ByLayer
 62
  256
370
   -1
100
AcDbLine
 10
11.9
 20
2.8125
 11
11.9
 21
2.862500000000001
  0
ARC
  5
10C
100
AcDbEntity
  8
vector
  6
ByLayer
 62
  256
370
   -1
100
AcDbCircle
 10
11.925
 20
2.862500000000001
 40
0.025
100
AcDbArc
 50
90
 51
180
  0
LINE
  5
10D
100
AcDbEntity
  8
vector
  6
ByLayer
 62
  256
370
   -1
100
AcDbLine
 10
12.075
 20
2.887500000000001
 11
11.925
 21
2.887500000000001
  0
LINE
  5
10E
100
AcDbEntity
  8
vector
  6
ByLayer
 62
  256
370
   -1
100
AcDbLine
 10
12.1
 20
2.8125
 11
12.1
 21
2.862500000000001
  0
ARC
  5
10F
100
AcDbEntity
  8
vector
  6
ByLayer
 62
  256
370
   -1
100
AcDbCircle
 10
12.075
 20
2.862500000000001
 40
0.025
100
AcDbArc
 50
360
 51
90
  0
LINE
  5
110
100
AcDbEntity
  8
vector
  6
ByLayer
 62
  256
370
   -1
100
AcDbLine
 10
11.925
 20
2.7875
 11
12.075
 21
2.7875
  0
ARC
  5
111
100
AcDbEntity
  8
vector
  6
ByLayer
 62
  256
370
   -1
100
AcDbCircle
 10
13.075
 20
2.8125
 40
0.025
100
AcDbArc
 50
270
 51
360
  0
ARC
  5
112
100
AcDbEntity
  8
vector
  6
ByLayer
 62
  256
370
   -1
100
AcDbCircle
 10
12.925
 20
2.8125
 40
0.025
100
AcDbArc
 50
180
 51
270
  0
LINE
  5
113
100
AcDbEntity
  8
vector
  6
ByLayer
 62
  256
370
   -1
100
AcDbLine
 10
12.9
 20
2.8125
 11
12.9
 21
2.862500000000001
  0
ARC
  5
114
100
AcDbEntity
  8
vector
  6
ByLayer
 62
  256
370
   -1
100
AcDbCircle
 10
12.925
 20
2.862500000000001
 40
0.025
100
AcDbArc
 50
90
 51
180
  0
LINE
  5
115
100
AcDbEntity
  8
vector
  6
ByLayer
 62
  256
370
   -1
100
AcDbLine
 10
13.075
 20
2.887500000000001
 11
12.925
 21
2.887500000000001
  0
LINE
  5
116
100
AcDbEntity
  8
vector
  6
ByLayer
 62
  256
370
   -1
100
AcDbLine
 10
13.1
 20
2.8125
 11
13.1
 21
2.862500000000001
  0
ARC
  5
117
100
AcDbEntity
  8
vector
  6
ByLayer
 62
  256
370
   -1
100
AcDbCircle
 10
13.075
 20
2.862500000000001
 40
0.025
100
AcDbArc
 50
360
 51
90
  0
LINE
  5
118
100
AcDbEntity
  8
vector
  6
ByLayer
 62
  256
370
   -1
100
AcDbLine
 10
12.925
 20
2.7875
 11
13.075
 21
2.7875
  0
ARC
  5
119
100
AcDbEntity
  8
vector
  6
ByLayer
 62
  256
370
   -1
100
AcDbCircle
 10
14.075
 20
2.8125
 40
0.025
100
AcDbArc
 50
270
 51
360
  0
ARC
  5
11A
100
AcDbEntity
  8
vector
  6
ByLayer
 62
  256
370
   -1
100
AcDbCircle
 10
13.925
 20
2.8125
 40
0.025
100
AcDbArc
 50
180
 51
270
  0
LINE
  5
11B
100
AcDbEntity
  8
vector
  6
ByLayer
 62
  256
370
   -1
100
AcDbLine
 10
13.9
 20
2.8125
 11
13.9
 21
2.862500000000001
  0
ARC
  5
11C
100
AcDbEntity
  8
vector
  6
ByLayer
 62
  256
370
   -1
100
AcDbCircle
 10
13.925
 20
2.862500000000001
 40
0.025
100
AcDbArc
 50
90
 51
180
  0
LINE
  5
11D
100
AcDbEntity
  8
vector
  6
ByLayer
 62
  256
370
   -1
100
AcDbLine
 10
14.075
 20
2.887500000000001
 11
13.925
 21
2.887500000000001
  0
LINE
  5
11E
100
AcDbEntity
  8
vector
  6
ByLayer
 62
  256
370
   -1
100
AcDbLine
 10
14.1
 20
2.8125
 11
14.1
 21
2.862500000000001
  0
ARC
  5
11F
100
AcDbEntity
  8
vector
  6
ByLayer
 62
  256
370
   -1
100
AcDbCircle
 10
14.075
 20
2.862500000000001
 40
0.025
100
AcDbArc
 50
360
 51
90
  0
LINE
  5
120
100
AcDbEntity
  8
vector
  6
ByLayer
 62
  256
370
   -1
100
AcDbLine
 10
13.925
 20
2.7875
 11
14.075
 21
2.7875
  0
ARC
  5
121
100
AcDbEntity
  8
vector
  6
ByLayer
 62
  256
370
   -1
100
AcDbCircle
 10
15.075
 20
2.8125
 40
0.025
100
AcDbArc
 50
270
 51
360
  0
ARC
  5
122
100
AcDbEntity
  8
vector
  6
ByLayer
 62
  256
370
   -1
100
AcDbCircle
 10
14.925
 20
2.8125
 40
0.025
100
AcDbArc
 50
180
 51
270
  0
LINE
  5
123
100
AcDbEntity
  8
vector
  6
ByLayer
 62
  256
370
   -1
100
AcDbLine
 10
14.9
 20
2.8125
 11
14.9
 21
2.862500000000001
  0
ARC
  5
124
100
AcDbEntity
  8
vector
  6
ByLayer
 62
  256
370
   -1
100
AcDbCircle
 10
14.925
 20
2.862500000000001
 40
0.025
100
AcDbArc
 50
90
 51
180
  0
LINE
  5
125
100
AcDbEntity
  8
vector
  6
ByLayer
 62
  256
370
   -1
100
AcDbLine
 10
15.075
 20
2.887500000000001
 11
14.925
 21
2.887500000000001
  0
LINE
  5
126
100
AcDbEntity
  8
vector
  6
ByLayer
 62
  256
370
   -1
100
AcDbLine
 10
15.1
 20
2.8125
 11
15.1
 21
2.862500000000001
  0
ARC
  5
127
100
AcDbEntity
  8
vector
  6
ByLayer
 62
  256
370
   -1
100
AcDbCircle
 10
15.075
 20
2.862500000000001
 40
0.025
100
AcDbArc
 50
360
 51
90
  0
LINE
  5
128
100
AcDbEntity
  8
vector
  6
ByLayer
 62
  256
370
   -1
100
AcDbLine
 10
14.925
 20
2.7875
 11
15.075
 21
2.7875
  0
ARC
  5
129
100
AcDbEntity
  8
vector
  6
ByLayer
 62
  256
370
   -1
100
AcDbCircle
 10
1.075
 20
0.3625000000000004
 40
0.025
100
AcDbArc
 50
270
 51
360
  0
ARC
  5
12A
100
AcDbEntity
  8
vector
  6
ByLayer
 62
  256
370
   -1
100
AcDbCircle
 10
0.9249999999999998
 20
0.3625000000000004
 40
0.025
100
AcDbArc
 50
180
 51
270
  0
LINE
  5
12B
100
AcDbEntity
  8
vector
  6
ByLayer
 62
  256
370
   -1
100
AcDbLine
 10
0.9000000000000004
 20
0.3625000000000004
 11
0.9000000000000004
 21
0.4125000000000011
  0
ARC
  5
12C
100
AcDbEntity
  8
vector
  6
ByLayer
 62
  256
370
   -1
100
AcDbCircle
 10
0.9249999999999998
 20
0.4125000000000011
 40
0.025
100
AcDbArc
 50
90
 51
180
  0
LINE
  5
12D
100
AcDbEntity
  8
vector
  6
ByLayer
 62
  256
370
   -1
100
AcDbLine
 10
1.075
 20
0.4375000000000014
 11
0.9249999999999998
 21
0.4375000000000014
  0
LINE
  5
12E
100
AcDbEntity
  8
vector
  6
ByLayer
 62
  256
370
   -1
100
AcDbLine
 10
1.1
 20
0.3625000000000004
 11
1.1
 21
0.4125000000000011
  0
ARC
  5
12F
100
AcDbEntity
  8
vector
  6
ByLayer
 62
  256
370
   -1
100
AcDbCircle
 10
1.075
 20
0.4125000000000011
 40
0.025
100
AcDbArc
 50
360
 51
90
  0
LINE
  5
130
100
AcDbEntity
  8
vector
  6
ByLayer
 62
  256
370
   -1
100
AcDbLine
 10
0.9249999999999998
 20
0.3375
 11
1.075
 21
0.3375
  0
ARC
  5
131
100
AcDbEntity
  8
vector
  6
ByLayer
 62
  256
370
   -1
100
AcDbCircle
 10
2.075
 20
0.3625000000000004
 40
0.025
100
AcDbArc
 50
270
 51
360
  0
ARC
  5
132
100
AcDbEntity
  8
vector
  6
ByLayer
 62
  256
370
   -1
100
AcDbCircle
 10
1.925
 20
0.3625000000000004
 40
0.025
100
AcDbArc
 50
180
 51
270
  0
LINE
  5
133
100
AcDbEntity
  8
vector
  6
ByLayer
 62
  256
370
   -1
100
AcDbLine
 10
1.900000000000001
 20
0.3625000000000004
 11
1.900000000000001
 21
0.4125000000000011
  0
ARC
  5
134
100
AcDbEntity
  8
vector
  6
ByLayer
 62
  256
370
   -1
100
AcDbCircle
 10
1.925
 20
0.4125000000000011
 40
0.025
100
AcDbArc
 50
90
 51
180
  0
LINE
  5
135
100
AcDbEntity
  8
vector
  6
ByLayer
 62
  256
370
   -1
100
AcDbLine
 10
2.075
 20
0.4375000000000014
 11
1.925
 21
0.4375000000000014
  0
LINE
  5
136
100
AcDbEntity
  8
vector
  6
ByLayer
 62
  256
370
   -1
100
AcDbLine
 10
2.1
 20
0.3625000000000004
 11
2.1
 21
0.4125000000000011
  0
ARC
  5
137
100
AcDbEntity
  8
vector
  6
ByLayer
 62
  256
370
   -1
100
AcDbCircle
 10
2.075
 20
0.4125000000000011
 40
0.025
100
AcDbArc
 50
360
 51
90
  0
LINE
  5
138
100
AcDbEntity
  8
vector
  6
ByLayer
 62
  256
370
   -1
100
AcDbLine
 10
1.925
 20
0.3375
 11
2.075
 21
0.3375
  0
ARC
  5
139
100
AcDbEntity
  8
vector
  6
ByLayer
 62
  256
370
   -1
100
AcDbCircle
 10
3.075000000000001
 20
0.3625000000000004
 40
0.025
100
AcDbArc
 50
270
 51
360
  0
ARC
  5
13A
100
AcDbEntity
  8
vector
  6
ByLayer
 62
  256
370
   -1
100
AcDbCircle
 10
2.925
 20
0.3625000000000004
 40
0.025
100
AcDbArc
 50
180
 51
270
  0
LINE
  5
13B
100
AcDbEntity
  8
vector
  6
ByLayer
 62
  256
370
   -1
100
AcDbLine
 10
2.900000000000001
 20
0.3625000000000004
 11
2.900000000000001
 21
0.4125000000000011
  0
ARC
  5
13C
100
AcDbEntity
  8
vector
  6
ByLayer
 62
  256
370
   -1
100
AcDbCircle
 10
2.925
 20
0.4125000000000011
 40
0.025
100
AcDbArc
 50
90
 51
180
  0
LINE
  5
13D
100
AcDbEntity
  8
vector
  6
ByLayer
 62
  256
370
   -1
100
AcDbLine
 10
3.075000000000001
 20
0.4375000000000014
 11
2.925
 21
0.4375000000000014
  0
LINE
  5
13E
100
AcDbEntity
  8
vector
  6
ByLayer
 62
  256
370
   -1
100
AcDbLine
 10
3.1
 20
0.3625000000000004
 11
3.1
 21
0.4125000000000011
  0
LINE
  5
13F
100
AcDbEntity
  8
vector
  6
ByLayer
 62
  256
370
   -1
100
AcDbLine
 10
2.925
 20
0.3375
 11
3.075000000000001
 21
0.3375
  0
ARC
  5
140
100
AcDbEntity
  8
vector
  6
ByLayer
 62
  256
370
   -1
100
AcDbCircle
 10
4.075000000000001
 20
0.3625000000000004
 40
0.025
100
AcDbArc
 50
270
 51
360
  0
ARC
  5
141
100
AcDbEntity
  8
vector
  6
ByLayer
 62
  256
370
   -1
100
AcDbCircle
 10
3.925000000000001
 20
0.3625000000000004
 40
0.025
100
AcDbArc
 50
180
 51
270
  0
LINE
  5
142
100
AcDbEntity
  8
vector
  6
ByLayer
 62
  256
370
   -1
100
AcDbLine
 10
3.900000000000001
 20
0.3625000000000004
 11
3.900000000000001
 21
0.4125000000000011
  0
ARC
  5
143
100
AcDbEntity
  8
vector
  6
ByLayer
 62
  256
370
   -1
100
AcDbCircle
 10
3.925000000000001
 20
0.4125000000000011
 40
0.025
100
AcDbArc
 50
90
 51
180
  0
LINE
  5
144
100
AcDbEntity
  8
vector
  6
ByLayer
 62
  256
370
   -1
100
AcDbLine
 10
4.075000000000001
 20
0.4375000000000014
 11
3.925000000000001
 21
0.4375000000000014
  0
LINE
  5
145
100
AcDbEntity
  8
vector
  6
ByLayer
 62
  256
370
   -1
100
AcDbLine
 10
4.100000000000001
 20
0.3625000000000004
 11
4.100000000000001
 21
0.4125000000000011
  0
ARC
  5
146
100
AcDbEntity
  8
vector
  6
ByLayer
 62
  256
370
   -1
100
AcDbCircle
 10
4.075000000000001
 20
0.4125000000000011
 40
0.025
100
AcDbArc
 50
360
 51
90
  0
LINE
  5
147
100
AcDbEntity
  8
vector
  6
ByLayer
 62
  256
370
   -1
100
AcDbLine
 10
3.925000000000001
 20
0.3375
 11
4.075000000000001
 21
0.3375
  0
ARC
  5
148
100
AcDbEntity
  8
vector
  6
ByLayer
 62
  256
370
   -1
100
AcDbCircle
 10
5.075000000000001
 20
0.3625000000000004
 40
0.025
100
AcDbArc
 50
270
 51
360
  0
ARC
  5
149
100
AcDbEntity
  8
vector
  6
ByLayer
 62
  256
370
   -1
100
AcDbCircle
 10
4.925000000000001
 20
0.3625000000000004
 40
0.025
100
AcDbArc
 50
180
 51
270
  0
LINE
  5
14A
100
AcDbEntity
  8
vector
  6
ByLayer
 62
  256
370
   -1
100
AcDbLine
 10
4.900000000000001
 20
0.3625000000000004
 11
4.900000000000001
 21
0.4125000000000011
  0
ARC
  5
14B
100
AcDbEntity
  8
vector
  6
ByLayer
 62
  256
370
   -1
100
AcDbCircle
 10
4.925000000000001
 20
0.4125000000000011
 40
0.025
100
AcDbArc
 50
90
 51
180
  0
LINE
  5
14C
100
AcDbEntity
  8
vector
  6
ByLayer
 62
  256
370
   -1
100
AcDbLine
 10
5.075000000000001
 20
0.4375000000000014
 11
4.925000000000001
 21
0.4375000000000014
  0
LINE
  5
14D
100
AcDbEntity
  8
vector
  6
ByLayer
 62
  256
370
   -1
100
AcDbLine
 10
5.100000000000001
 20
0.3625000000000004
 11
5.100000000000001
 21
0.4125000000000011
  0
ARC
  5
14E
100
AcDbEntity
  8
vector
  6
ByLayer
 62
  256
370
   -1
100
AcDbCircle
 10
5.075000000000001
 20
0.4125000000000011
 40
0.025
100
AcDbArc
 50
360
 51
90
  0
LINE
  5
14F
100
AcDbEntity
  8
vector
  6
ByLayer
 62
  256
370
   -1
100
AcDbLine
 10
4.925000000000001
 20
0.3375
 11
5.075000000000001
 21
0.3375
  0
ARC
  5
150
100
AcDbEntity
  8
vector
  6
ByLayer
 62
  256
370
   -1
100
AcDbCircle
 10
6.075000000000001
 20
0.3625000000000004
 40
0.025
100
AcDbArc
 50
270
 51
360
  0
ARC
  5
151
100
AcDbEntity
  8
vector
  6
ByLayer
 62
  256
370
   -1
100
AcDbCircle
 10
5.925000000000001
 20
0.3625000000000004
 40
0.025
100
AcDbArc
 50
180
 51
270
  0
LINE
  5
152
100
AcDbEntity
  8
vector
  6
ByLayer
 62
  256
370
   -1
100
AcDbLine
 10
5.900000000000001
 20
0.3625000000000004
 11
5.900000000000001
 21
0.4125000000000011
  0
ARC
  5
153
100
AcDbEntity
  8
vector
  6
ByLayer
 62
  256
370
   -1
100
AcDbCircle
 10
5.925000000000001
 20
0.4125000000000011
 40
0.025
100
AcDbArc
 50
90
 51
180
  0
LINE
  5
154
100
AcDbEntity
  8
vector
  6
ByLayer
 62
  256
370
   -1
100
AcDbLine
 10
6.075000000000001
 20
0.4375000000000014
 11
5.925000000000001
 21
0.4375000000000014
  0
LINE
  5
155
100
AcDbEntity
  8
vector
  6
ByLayer
 62
  256
370
   -1
100
AcDbLine
 10
6.100000000000001
 20
0.3625000000000004
 11
6.100000000000001
 21
0.4125000000000011
  0
ARC
  5
156
100
AcDbEntity
  8
vector
  6
ByLayer
 62
  256
370
   -1
100
AcDbCircle
 10
6.075000000000001
 20
0.4125000000000011
 40
0.025
100
AcDbArc
 50
360
 51
90
  0
LINE
  5
157
100
AcDbEntity
  8
vector
  6
ByLayer
 62
  256
370
   -1
100
AcDbLine
 10
5.925000000000001
 20
0.3375
 11
6.075000000000001
 21
0.3375
  0
ARC
  5
158
100
AcDbEntity
  8
vector
  6
ByLayer
 62
  256
370
   -1
100
AcDbCircle
 10
3.075000000000001
 20
0.4125000000000011
 40
0.025
100
AcDbArc
 50
360
 51
90
  0
ARC
  5
159
100
AcDbEntity
  8
vector
  6
ByLayer
 62
  256
370
   -1
100
AcDbCircle
 10
10.075
 20
2.5875
 40
0.025
100
AcDbArc
 50
270
 51
360
  0
LINE
  5
15A
100
AcDbEntity
  8
vector
  6
ByLayer
 62
  256
370
   -1
100
AcDbLine
 10
10.1
 20
2.5875
 11
10.1
 21
2.6375
  0
ARC
  5
15B
100
AcDbEntity
  8
vector
  6
ByLayer
 62
  256
370
   -1
100
AcDbCircle
 10
10.075
 20
2.6375
 40
0.025
100
AcDbArc
 50
360
 51
90
  0
LINE
  5
15C
100
AcDbEntity
  8
vector
  6
ByLayer
 62
  256
370
   -1
100
AcDbLine
 10
10.075
 20
2.5625
 11
9.925000000000001
 21
2.5625
  0
ARC
  5
15D
100
AcDbEntity
  8
vector
  6
ByLayer
 62
  256
370
   -1
100
AcDbCircle
 10
9.925000000000001
 20
2.5875
 40
0.025
100
AcDbArc
 50
180
 51
270
  0
LINE
  5
15E
100
AcDbEntity
  8
vector
  6
ByLayer
 62
  256
370
   -1
100
AcDbLine
 10
9.9
 20
2.6375
 11
9.9
 21
2.5875
  0
ARC
  5
15F
100
AcDbEntity
  8
vector
  6
ByLayer
 62
  256
370
   -1
100
AcDbCircle
 10
9.925000000000001
 20
2.6375
 40
0.025
100
AcDbArc
 50
90
 51
180
  0
LINE
  5
160
100
AcDbEntity
  8
vector
  6
ByLayer
 62
  256
370
   -1
100
AcDbLine
 10
9.925000000000001
 20
2.6625
 11
10.075
 21
2.6625
  0
ARC
  5
161
100
AcDbEntity
  8
vector
  6
ByLayer
 62
  256
370
   -1
100
AcDbCircle
 10
11.075
 20
2.5875
 40
0.025
100
AcDbArc
 50
270
 51
360
  0
LINE
  5
162
100
AcDbEntity
  8
vector
  6
ByLayer
 62
  256
370
   -1
100
AcDbLine
 10
11.1
 20
2.5875
 11
11.1
 21
2.6375
  0
ARC
  5
163
100
AcDbEntity
  8
vector
  6
ByLayer
 62
  256
370
   -1
100
AcDbCircle
 10
11.075
 20
2.6375
 40
0.025
100
AcDbArc
 50
360
 51
90
  0
LINE
  5
164
100
AcDbEntity
  8
vector
  6
ByLayer
 62
  256
370
   -1
100
AcDbLine
 10
11.075
 20
2.5625
 11
10.925
 21
2.5625
  0
ARC
  5
165
100
AcDbEntity
  8
vector
  6
ByLayer
 62
  256
370
   -1
100
AcDbCircle
 10
10.925
 20
2.5875
 40
0.025
100
AcDbArc
 50
180
 51
270
  0
LINE
  5
166
100
AcDbEntity
  8
vector
  6
ByLayer
 62
  256
370
   -1
100
AcDbLine
 10
10.9
 20
2.6375
 11
10.9
 21
2.5875
  0
ARC
  5
167
100
AcDbEntity
  8
vector
  6
ByLayer
 62
  256
370
   -1
100
AcDbCircle
 10
10.925
 20
2.6375
 40
0.025
100
AcDbArc
 50
90
 51
180
  0
LINE
  5
168
100
AcDbEntity
  8
vector
  6
ByLayer
 62
  256
370
   -1
100
AcDbLine
 10
10.925
 20
2.6625
 11
11.075
 21
2.6625
  0
ARC
  5
169
100
AcDbEntity
  8
vector
  6
ByLayer
 62
  256
370
   -1
100
AcDbCircle
 10
12.075
 20
2.5875
 40
0.025
100
AcDbArc
 50
270
 51
360
  0
LINE
  5
16A
100
AcDbEntity
  8
vector
  6
ByLayer
 62
  256
370
   -1
100
AcDbLine
 10
12.1
 20
2.5875
 11
12.1
 21
2.6375
  0
ARC
  5
16B
100
AcDbEntity
  8
vector
  6
ByLayer
 62
  256
370
   -1
100
AcDbCircle
 10
12.075
 20
2.6375
 40
0.025
100
AcDbArc
 50
360
 51
90
  0
LINE
  5
16C
100
AcDbEntity
  8
vector
  6
ByLayer
 62
  256
370
   -1
100
AcDbLine
 10
12.075
 20
2.5625
 11
11.925
 21
2.5625
  0
ARC
  5
16D
100
AcDbEntity
  8
vector
  6
ByLayer
 62
  256
370
   -1
100
AcDbCircle
 10
11.925
 20
2.5875
 40
0.025
100
AcDbArc
 50
180
 51
270
  0
LINE
  5
16E
100
AcDbEntity
  8
vector
  6
ByLayer
 62
  256
370
   -1
100
AcDbLine
 10
11.9
 20
2.6375
 11
11.9
 21
2.5875
  0
ARC
  5
16F
100
AcDbEntity
  8
vector
  6
ByLayer
 62
  256
370
   -1
100
AcDbCircle
 10
11.925
 20
2.6375
 40
0.025
100
AcDbArc
 50
90
 51
180
  0
LINE
  5
170
100
AcDbEntity
  8
vector
  6
ByLayer
 62
  256
370
   -1
100
AcDbLine
 10
11.925
 20
2.6625
 11
12.075
 21
2.6625
  0
ARC
  5
171
100
AcDbEntity
  8
vector
  6
ByLayer
 62
  256
370
   -1
100
AcDbCircle
 10
13.075
 20
2.5875
 40
0.025
100
AcDbArc
 50
270
 51
360
  0
LINE
  5
172
100
AcDbEntity
  8
vector
  6
ByLayer
 62
  256
370
   -1
100
AcDbLine
 10
13.1
 20
2.5875
 11
13.1
 21
2.6375
  0
ARC
  5
173
100
AcDbEntity
  8
vector
  6
ByLayer
 62
  256
370
   -1
100
AcDbCircle
 10
13.075
 20
2.6375
 40
0.025
100
AcDbArc
 50
360
 51
90
  0
LINE
  5
174
100
AcDbEntity
  8
vector
  6
ByLayer
 62
  256
370
   -1
100
AcDbLine
 10
13.075
 20
2.5625
 11
12.925
 21
2.5625
  0
ARC
  5
175
100
AcDbEntity
  8
vector
  6
ByLayer
 62
  256
370
   -1
100
AcDbCircle
 10
12.925
 20
2.5875
 40
0.025
100
AcDbArc
 50
180
 51
270
  0
LINE
  5
176
100
AcDbEntity
  8
vector
  6
ByLayer
 62
  256
370
   -1
100
AcDbLine
 10
12.9
 20
2.6375
 11
12.9
 21
2.5875
  0
ARC
  5
177
100
AcDbEntity
  8
vector
  6
ByLayer
 62
  256
370
   -1
100
AcDbCircle
 10
12.925
 20
2.6375
 40
0.025
100
AcDbArc
 50
90
 51
180
  0
LINE
  5
178
100
AcDbEntity
  8
vector
  6
ByLayer
 62
  256
370
   -1
100
AcDbLine
 10
12.925
 20
2.6625
 11
13.075
 21
2.6625
  0
ARC
  5
179
100
AcDbEntity
  8
vector
  6
ByLayer
 62
  256
370
   -1
100
AcDbCircle
 10
14.075
 20
2.5875
 40
0.025
100
AcDbArc
 50
270
 51
360
  0
LINE
  5
17A
100
AcDbEntity
  8
vector
  6
ByLayer
 62
  256
370
   -1
100
AcDbLine
 10
14.1
 20
2.5875
 11
14.1
 21
2.6375
  0
ARC
  5
17B
100
AcDbEntity
  8
vector
  6
ByLayer
 62
  256
370
   -1
100
AcDbCircle
 10
14.075
 20
2.6375
 40
0.025
100
AcDbArc
 50
360
 51
90
  0
LINE
  5
17C
100
AcDbEntity
  8
vector
  6
ByLayer
 62
  256
370
   -1
100
AcDbLine
 10
14.075
 20
2.5625
 11
13.925
 21
2.5625
  0
ARC
  5
17D
100
AcDbEntity
  8
vector
  6
ByLayer
 62
  256
370
   -1
100
AcDbCircle
 10
13.925
 20
2.5875
 40
0.025
100
AcDbArc
 50
180
 51
270
  0
LINE
  5
17E
100
AcDbEntity
  8
vector
  6
ByLayer
 62
  256
370
   -1
100
AcDbLine
 10
13.9
 20
2.6375
 11
13.9
 21
2.5875
  0
ARC
  5
17F
100
AcDbEntity
  8
vector
  6
ByLayer
 62
  256
370
   -1
100
AcDbCircle
 10
13.925
 20
2.6375
 40
0.025
100
AcDbArc
 50
90
 51
180
  0
LINE
  5
180
100
AcDbEntity
  8
vector
  6
ByLayer
 62
  256
370
   -1
100
AcDbLine
 10
13.925
 20
2.6625
 11
14.075
 21
2.6625
  0
ARC
  5
181
100
AcDbEntity
  8
vector
  6
ByLayer
 62
  256
370
   -1
100
AcDbCircle
 10
15.075
 20
2.5875
 40
0.025
100
AcDbArc
 50
270
 51
360
  0
LINE
  5
182
100
AcDbEntity
  8
vector
  6
ByLayer
 62
  256
370
   -1
100
AcDbLine
 10
15.1
 20
2.5875
 11
15.1
 21
2.6375
  0
ARC
  5
183
100
AcDbEntity
  8
vector
  6
ByLayer
 62
  256
370
   -1
100
AcDbCircle
 10
15.075
 20
2.6375
 40
0.025
100
AcDbArc
 50
360
 51
90
  0
LINE
  5
184
100
AcDbEntity
  8
vector
  6
ByLayer
 62
  256
370
   -1
100
AcDbLine
 10
15.075
 20
2.5625
 11
14.925
 21
2.5625
  0
ARC
  5
185
100
AcDbEntity
  8
vector
  6
ByLayer
 62
  256
370
   -1
100
AcDbCircle
 10
14.925
 20
2.5875
 40
0.025
100
AcDbArc
 50
180
 51
270
  0
LINE
  5
186
100
AcDbEntity
  8
vector
  6
ByLayer
 62
  256
370
   -1
100
AcDbLine
 10
14.9
 20
2.6375
 11
14.9
 21
2.5875
  0
ARC
  5
187
100
AcDbEntity
  8
vector
  6
ByLayer
 62
  256
370
   -1
100
AcDbCircle
 10
14.925
 20
2.6375
 40
0.025
100
AcDbArc
 50
90
 51
180
  0
LINE
  5
188
100
AcDbEntity
  8
vector
  6
ByLayer
 62
  256
370
   -1
100
AcDbLine
 10
14.925
 20
2.6625
 11
15.075
 21
2.6625
  0
LINE
  5
189
100
AcDbEntity
  8
const2
  6
ByLayer
 62
  256
370
   -1
100
AcDbLine
 10
0.9999999999999999
 20
0.3375
 11
0.9999999999999999
 21
0.2125
  0
LINE
  5
18A
100
AcDbEntity
  8
const2
  6
ByLayer
 62
  256
370
   -1
100
AcDbLine
 10
2
 20
0.3375
 11
2
 21
0.2125
  0
LINE
  5
18B
100
AcDbEntity
  8
const2
  6
ByLayer
 62
  256
370
   -1
100
AcDbLine
 10
3
 20
0.3375
 11
3
 21
0.2125
  0
LINE
  5
18C
100
AcDbEntity
  8
const2
  6
ByLayer
 62
  256
370
   -1
100
AcDbLine
 10
4.000000000000001
 20
0.3375
 11
4.000000000000001
 21
0.2125
  0
LINE
  5
18D
100
AcDbEntity
  8
const2
  6
ByLayer
 62
  256
370
   -1
100
AcDbLine
 10
5.000000000000001
 20
0.3375
 11
5.000000000000001
 21
0.2125
  0
LINE
  5
18E
100
AcDbEntity
  8
const2
  6
ByLayer
 62
  256
370
   -1
100
AcDbLine
 10
6.000000000000001
 20
0.3375
 11
6.000000000000001
 21
0.2125000000000001
  0
LINE
  5
18F
100
AcDbEntity
  8
const2
  6
ByLayer
 62
  256
370
   -1
100
AcDbLine
 10
10
 20
2.7875
 11
10
 21
2.6625
  0
LINE
  5
190
100
AcDbEntity
  8
const2
  6
ByLayer
 62
  256
370
   -1
100
AcDbLine
 10
11
 20
2.7875
 11
11
 21
2.6625
  0
LINE
  5
191
100
AcDbEntity
  8
const2
  6
ByLayer
 62
  256
370
   -1
100
AcDbLine
 10
12
 20
2.7875
 11
12
 21
2.6625
  0
LINE
  5
192
100
AcDbEntity
  8
const2
  6
ByLayer
 62
  256
370
   -1
100
AcDbLine
 10
13
 20
2.7875
 11
13
 21
2.6625
  0
LINE
  5
193
100
AcDbEntity
  8
const2
  6
ByLayer
 62
  256
370
   -1
100
AcDbLine
 10
14
 20
2.7875
 11
14
 21
2.6625
  0
LINE
  5
194
100
AcDbEntity
  8
const2
  6
ByLayer
 62
  256
370
   -1
100
AcDbLine
 10
15
 20
2.7875
 11
15
 21
2.6625
  0
CIRCLE
  5
195
100
AcDbEntity
  8
const1
  6
ByLayer
 62
  256
370
   -1
100
AcDbCircle
 10
7.000000000000001
 20
2.5
 40
0.125
  0
CIRCLE
  5
196
100
AcDbEntity
  8
const1
  6
ByLayer
 62
  256
370
   -1
100
AcDbCircle
 10
9.000000000000002
 20
2.5
 40
0.125
  0
CIRCLE
  5
197
100
AcDbEntity
  8
const1
  6
ByLayer
 62
  256
370
   -1
100
AcDbCircle
 10
8.000000000000002
 20
2.5
 40
0.125
  0
CIRCLE
  5
198
100
AcDbEntity
  8
const1
  6
ByLayer
 62
  256
370
   -1
100
AcDbCircle
 10
7.000000000000001
 20
1.5
 40
0.125
  0
CIRCLE
  5
199
100
AcDbEntity
  8
const1
  6
ByLayer
 62
  256
370
   -1
100
AcDbCircle
 10
9.000000000000002
 20
1.5
 40
0.125
  0
CIRCLE
  5
19A
100
AcDbEntity
  8
const1
  6
ByLayer
 62
  256
370
   -1
100
AcDbCircle
 10
7.000000000000001
 20
0.5
 40
0.125
  0
CIRCLE
  5
19B
100
AcDbEntity
  8
const1
  6
ByLayer
 62
  256
370
   -1
100
AcDbCircle
 10
8
 20
0.5
 40
0.125
  0
CIRCLE
  5
19C
100
AcDbEntity
  8
const1
  6
ByLayer
 62
  256
370
   -1
100
AcDbCircle
 10
9
 20
0.5
 40
0.125
  0
CIRCLE
  5
19D
100
AcDbEntity
  8
vector
  6
ByLayer
 62
  256
370
   -1
100
AcDbCircle
 10
7
 20
2.5
 40
0.0725
  0
CIRCLE
  5
19E
100
AcDbEntity
  8
vector
  6
ByLayer
 62
  256
370
   -1
100
AcDbCircle
 10
9
 20
2.5
 40
0.0725
  0
CIRCLE
  5
19F
100
AcDbEntity
  8
vector
  6
ByLayer
 62
  256
370
   -1
100
AcDbCircle
 10
7
 20
0.5
 40
0.0725
  0
CIRCLE
  5
1A0
100
AcDbEntity
  8
vector
  6
ByLayer
 62
  256
370
   -1
100
AcDbCircle
 10
9
 20
0.5
 40
0.0725
  0
LWPOLYLINE
  5
1A1
100
AcDbEntity
  8
const1
  6
ByLayer
 62
  256
370
   -1
100
AcDbPolyline
 90
    4
 70
    1
 43
0
 10
6.75
 20
2.75
 10
9.25
 20
2.75
 10
9.25
 20
0.25
 10
6.75
 20
0.25
  0
LINE
  5
1A2
100
AcDbEntity
  8
const1
  6
ByLayer
 62
  256
370
   -1
100
AcDbLine
 10
8
 20
2.75
 11
8
 21
0.25
  0
LINE
  5
1A3
100
AcDbEntity
  8
const1
  6
ByLayer
 62
  256
370
   -1
100
AcDbLine
 10
6.75
 20
1.5
 11
9.25
 21
1.5
  0
ARC
  5
1A4
100
AcDbEntity
  8
vector
  6
ByLayer
 62
  256
370
   -1
100
AcDbCircle
 10
7.925000000000001
 20
2.875
 40
0.025
100
AcDbArc
 50
90
 51
180
  0
ARC
  5
1A5
100
AcDbEntity
  8
vector
  6
ByLayer
 62
  256
370
   -1
100
AcDbCircle
 10
8.075000000000001
 20
2.875
 40
0.025
100
AcDbArc
 50
360
 51
90
  0
LINE
  5
1A6
100
AcDbEntity
  8
vector
  6
ByLayer
 62
  256
370
   -1
100
AcDbLine
 10
8.1
 20
2.875
 11
8.1
 21
2.824999999999999
  0
ARC
  5
1A7
100
AcDbEntity
  8
vector
  6
ByLayer
 62
  256
370
   -1
100
AcDbCircle
 10
8.075000000000001
 20
2.824999999999999
 40
0.025
100
AcDbArc
 50
270
 51
360
  0
LINE
  5
1A8
100
AcDbEntity
  8
vector
  6
ByLayer
 62
  256
370
   -1
100
AcDbLine
 10
7.925000000000001
 20
2.799999999999999
 11
8.075000000000001
 21
2.799999999999999
  0
LINE
  5
1A9
100
AcDbEntity
  8
vector
  6
ByLayer
 62
  256
370
   -1
100
AcDbLine
 10
7.9
 20
2.875
 11
7.9
 21
2.824999999999999
  0
ARC
  5
1AA
100
AcDbEntity
  8
vector
  6
ByLayer
 62
  256
370
   -1
100
AcDbCircle
 10
7.925000000000001
 20
2.824999999999999
 40
0.025
100
AcDbArc
 50
180
 51
270
  0
LINE
  5
1AB
100
AcDbEntity
  8
vector
  6
ByLayer
 62
  256
370
   -1
100
AcDbLine
 10
8.075000000000001
 20
2.900000000000001
 11
7.925000000000001
 21
2.900000000000001
  0
LINE
  5
1AC
100
AcDbEntity
  8
const0
  6
ByLayer
 62
  256
370
   -1
100
AcDbLine
 10
7.9
 20
2.85
 11
8.1
 21
2.85
  0
ARC
  5
1AD
100
AcDbEntity
  8
vector
  6
ByLayer
 62
  256
370
   -1
100
AcDbCircle
 10
7.925000000000001
 20
0.1750000000000005
 40
0.025
100
AcDbArc
 50
90
 51
180
  0
ARC
  5
1AE
100
AcDbEntity
  8
vector
  6
ByLayer
 62
  256
370
   -1
100
AcDbCircle
 10
8.075000000000001
 20
0.1750000000000005
 40
0.025
100
AcDbArc
 50
360
 51
90
  0
LINE
  5
1AF
100
AcDbEntity
  8
vector
  6
ByLayer
 62
  256
370
   -1
100
AcDbLine
 10
8.1
 20
0.1750000000000005
 11
8.1
 21
0.1249999999999998
  0
ARC
  5
1B0
100
AcDbEntity
  8
vector
  6
ByLayer
 62
  256
370
   -1
100
AcDbCircle
 10
8.075000000000001
 20
0.1249999999999998
 40
0.025
100
AcDbArc
 50
270
 51
360
  0
LINE
  5
1B1
100
AcDbEntity
  8
vector
  6
ByLayer
 62
  256
370
   -1
100
AcDbLine
 10
7.925000000000001
 20
0.09999999999999949
 11
8.075000000000001
 21
0.09999999999999949
  0
LINE
  5
1B2
100
AcDbEntity
  8
vector
  6
ByLayer
 62
  256
370
   -1
100
AcDbLine
 10
7.9
 20
0.1750000000000005
 11
7.9
 21
0.1249999999999998
  0
ARC
  5
1B3
100
AcDbEntity
  8
vector
  6
ByLayer
 62
  256
370
   -1
100
AcDbCircle
 10
7.925000000000001
 20
0.1249999999999998
 40
0.025
100
AcDbArc
 50
180
 51
270
  0
LINE
  5
1B4
100
AcDbEntity
  8
vector
  6
ByLayer
 62
  256
370
   -1
100
AcDbLine
 10
8.075000000000001
 20
0.2000000000000013
 11
7.925000000000001
 21
0.2000000000000013
  0
LINE
  5
1B5
100
AcDbEntity
  8
const0
  6
ByLayer
 62
  256
370
   -1
100
AcDbLine
 10
7.9
 20
0.1500000000000002
 11
8.1
 21
0.1500000000000002
  0
CIRCLE
  5
1B6
100
AcDbEntity
  8
vector
  6
ByLayer
 62
  256
370
   -1
100
AcDbCircle
 10
15
 20
1.5
 40
0.1
  0
CIRCLE
  5
1B7
100
AcDbEntity
  8
vector
  6
ByLayer
 62
  256
370
   -1
100
AcDbCircle
 10
14
 20
1.5
 40
0.1
  0
CIRCLE
  5
1B8
100
AcDbEntity
  8
vector
  6
ByLayer
 62
  256
370
   -1
100
AcDbCircle
 10
13
 20
1.5
 40
0.1
  0
CIRCLE
  5
1B9
100
AcDbEntity
  8
vector
  6
ByLayer
 62
  256
370
   -1
100
AcDbCircle
 10
12
 20
1.5
 40
0.1
  0
CIRCLE
  5
1BA
100
AcDbEntity
  8
vector
  6
ByLayer
 62
  256
370
   -1
100
AcDbCircle
 10
11
 20
1.5
 40
0.1
  0
LINE
  5
1BB
100
AcDbEntity
  8
const1
  6
ByLayer
 62
  256
370
   -1
100
AcDbLine
 10
0.4999999999999999
 20
5
 11
0.4999999999999999
 21
5.5
  0
LINE
  5
1BC
100
AcDbEntity
  8
const1
  6
ByLayer
 62
  256
370
   -1
100
AcDbLine
 10
0.4999999999999999
 20
5.5
 11
0.5
 21
6
  0
LINE
  5
1BD
100
AcDbEntity
  8
const2
  6
ByLayer
 62
  256
370
   -1
100
AcDbLine
 10
0.4999999999999999
 20
5
 11
0.9999999999999999
 21
5
  0
LINE
  5
1BE
100
AcDbEntity
  8
const2
  6
ByLayer
 62
  256
370
   -1
100
AcDbLine
 10
0.9999999999999999
 20
5
 11
0.9999999999999999
 21
4.912
  0
LINE
  5
1BF
100
AcDbEntity
  8
const2
  6
ByLayer
 62
  256
370
   -1
100
AcDbLine
 10
0.9999999999999999
 20
5
 11
1.5
 21
5
  0
LINE
  5
1C0
100
AcDbEntity
  8
const2
  6
ByLayer
 62
  256
370
   -1
100
AcDbLine
 10
1.5
 20
5
 11
1.5
 21
4.912
  0
CIRCLE
  5
1C1
100
AcDbEntity
  8
vector
  6
ByLayer
 62
  256
370
   -1
100
AcDbCircle
 10
0.9999999999999999
 20
4.912
 40
0.0725
  0
LINE
  5
1C2
100
AcDbEntity
  8
const2
  6
ByLayer
 62
  256
370
   -1
100
AcDbLine
 10
1.5
 20
5
 11
2
 21
5
  0
LINE
  5
1C3
100
AcDbEntity
  8
const2
  6
ByLayer
 62
  256
370
   -1
100
AcDbLine
 10
2
 20
5
 11
2
 21
4.912
  0
CIRCLE
  5
1C4
100
AcDbEntity
  8
vector
  6
ByLayer
 62
  256
370
   -1
100
AcDbCircle
 10
2
 20
4.912
 40
0.0725
  0
LINE
  5
1C5
100
AcDbEntity
  8
const2
  6
ByLayer
 62
  256
370
   -1
100
AcDbLine
 10
2
 20
5
 11
2.5
 21
5
  0
LINE
  5
1C6
100
AcDbEntity
  8
const2
  6
ByLayer
 62
  256
370
   -1
100
AcDbLine
 10
2.5
 20
5
 11
2.5
 21
4.912
  0
CIRCLE
  5
1C7
100
AcDbEntity
  8
vector
  6
ByLayer
 62
  256
370
   -1
100
AcDbCircle
 10
2.5
 20
4.912
 40
0.0725
  0
CIRCLE
  5
1C8
100
AcDbEntity
  8
vector
  6
ByLayer
 62
  256
370
   -1
100
AcDbCircle
 10
1.5
 20
4.912
 40
0.0725
  0
LINE
  5
1C9
100
AcDbEntity
  8
const1
  6
ByLayer
 62
  256
370
   -1
100
AcDbLine
 10
0.4999999999999999
 20
5
 11
0.4999999999999999
 21
4.5
  0
LINE
  5
1CA
100
AcDbEntity
  8
const1
  6
ByLayer
 62
  256
370
   -1
100
AcDbLine
 10
0.4999999999999999
 20
4.5
 11
3
 21
4.5
  0
LINE
  5
1CB
100
AcDbEntity
  8
const1
  6
ByLayer
 62
  256
370
   -1
100
AcDbLine
 10
0.4999999999999999
 20
4.5
 11
0.4999999999999999
 21
4.25
  0
LINE
  5
1CC
100
AcDbEntity
  8
const1
  6
ByLayer
 62
  256
370
   -1
100
AcDbLine
 10
0.4999999999999999
 20
4.25
 11
3
 21
4.25
  0
LINE
  5
1CD
100
AcDbEntity
  8
const2
  6
ByLayer
 62
  256
370
   -1
100
AcDbLine
 10
0.4999999999999999
 20
4.5
 11
0.7499999999999999
 21
4.5
  0
LINE
  5
1CE
100
AcDbEntity
  8
const1
  6
ByLayer
 62
  256
370
   -1
100
AcDbLine
 10
0.7499999999999999
 20
4.5
 11
0.75
 21
6
  0
LINE
  5
1CF
100
AcDbEntity
  8
const2
  6
ByLayer
 62
  256
370
   -1
100
AcDbLine
 10
0.7499999999999999
 20
5
 11
0.75
 21
5.25
  0
LINE
  5
1D0
100
AcDbEntity
  8
const2
  6
ByLayer
 62
  256
370
   -1
100
AcDbLine
 10
0.7499999999999999
 20
5.25
 11
0.75
 21
5.5
  0
ARC
  5
1D1
100
AcDbEntity
  8
vector
  6
ByLayer
 62
  256
370
   -1
100
AcDbCircle
 10
2
 20
6.2
 40
0.13
100
AcDbArc
 50
0
 51
180.0000000000004
  0
ARC
  5
1D2
100
AcDbEntity
  8
vector
  6
ByLayer
 62
  256
370
   -1
100
AcDbCircle
 10
3
 20
6.2
 40
0.13
100
AcDbArc
 50
0
 51
180
  0
ARC
  5
1D3
100
AcDbEntity
  8
vector
  6
ByLayer
 62
  256
370
   -1
100
AcDbCircle
 10
2
 20
5.8
 40
0.13
100
AcDbArc
 50
180.0000000000004
 51
0
  0
ARC
  5
1D4
100
AcDbEntity
  8
vector
  6
ByLayer
 62
  256
370
   -1
100
AcDbCircle
 10
3
 20
5.8
 40
0.13
100
AcDbArc
 50
180
 51
0
  0
LINE
  5
1D5
100
AcDbEntity
  8
vector
  6
ByLayer
 62
  256
370
   -1
100
AcDbLine
 10
1.87
 20
6.199999999999999
 11
1.87
 21
5.799999999999999
  0
LINE
  5
1D6
100
AcDbEntity
  8
vector
  6
ByLayer
 62
  256
370
   -1
100
AcDbLine
 10
2.13
 20
6.2
 11
2.13
 21
5.8
  0
LINE
  5
1D7
100
AcDbEntity
  8
vector
  6
ByLayer
 62
  256
370
   -1
100
AcDbLine
 10
2.87
 20
6.2
 11
2.87
 21
5.8
  0
LINE
  5
1D8
100
AcDbEntity
  8
vector
  6
ByLayer
 62
  256
370
   -1
100
AcDbLine
 10
3.13
 20
6.2
 11
3.13
 21
5.8
  0
LINE
  5
1D9
100
AcDbEntity
  8
const1
  6
ByLayer
 62
  256
370
   -1
100
AcDbLine
 10
0.75
 20
6
 11
1.162
 21
6
  0
CIRCLE
  5
1DA
100
AcDbEntity
  8
vector
  6
ByLayer
 62
  256
370
   -1
100
AcDbCircle
 10
1.162
 20
6
 40
0.0725
  0
LINE
  5
1DB
100
AcDbEntity
  8
const2
  6
ByLayer
 62
  256
370
   -1
100
AcDbLine
 10
2.5
 20
5
 11
3
 21
5
  0
LINE
  5
1DC
100
AcDbEntity
  8
const2
  6
ByLayer
 62
  256
370
   -1
100
AcDbLine
 10
3
 20
5
 11
3
 21
4.912
  0
CIRCLE
  5
1DD
100
AcDbEntity
  8
vector
  6
ByLayer
 62
  256
370
   -1
100
AcDbCircle
 10
3
 20
4.912
 40
0.0725
  0
LINE
  5
1DE
100
AcDbEntity
  8
const1
  6
ByLayer
 62
  256
370
   -1
100
AcDbLine
 10
3.399999999999999
 20
6.400000119209292
 11
3.399999999999999
 21
7.400000119209292
  0
LINE
  5
1DF
100
AcDbEntity
  8
const1
  6
ByLayer
 62
  256
370
   -1
100
AcDbLine
 10
0.4999999999999996
 20
6.400000084293699
 11
0.4999999999999996
 21
7.400000084293699
  0
LINE
  5
1E0
100
AcDbEntity
  8
const2
  6
ByLayer
 62
  256
370
   -1
100
AcDbLine
 10
1
 20
7.900000087303663
 11
1
 21
7.812000087303663
  0
LINE
  5
1E1
100
AcDbEntity
  8
const2
  6
ByLayer
 62
  256
370
   -1
100
AcDbLine
 10
1.5
 20
7.900000087303663
 11
1.5
 21
7.812000087303663
  0
CIRCLE
  5
1E2
100
AcDbEntity
  8
vector
  6
ByLayer
 62
  256
370
   -1
100
AcDbCircle
 10
1
 20
7.812000087303663
 40
0.0725
  0
LINE
  5
1E3
100
AcDbEntity
  8
const2
  6
ByLayer
 62
  256
370
   -1
100
AcDbLine
 10
2.000000000000001
 20
7.900000087303663
 11
2.000000000000001
 21
7.812000087303663
  0
CIRCLE
  5
1E4
100
AcDbEntity
  8
vector
  6
ByLayer
 62
  256
370
   -1
100
AcDbCircle
 10
2.000000000000001
 20
7.812000087303663
 40
0.0725
  0
LINE
  5
1E5
100
AcDbEntity
  8
const2
  6
ByLayer
 62
  256
370
   -1
100
AcDbLine
 10
2.5
 20
7.900000087303663
 11
2.5
 21
7.812000087303663
  0
CIRCLE
  5
1E6
100
AcDbEntity
  8
vector
  6
ByLayer
 62
  256
370
   -1
100
AcDbCircle
 10
2.5
 20
7.812000087303663
 40
0.0725
  0
CIRCLE
  5
1E7
100
AcDbEntity
  8
vector
  6
ByLayer
 62
  256
370
   -1
100
AcDbCircle
 10
1.5
 20
7.812000087303663
 40
0.0725
  0
LINE
  5
1E8
100
AcDbEntity
  8
const2
  6
ByLayer
 62
  256
370
   -1
100
AcDbLine
 10
3
 20
7.900000087303663
 11
3
 21
7.812000087303663
  0
CIRCLE
  5
1E9
100
AcDbEntity
  8
vector
  6
ByLayer
 62
  256
370
   -1
100
AcDbCircle
 10
3
 20
7.812000087303663
 40
0.0725
  0
LINE
  5
1EA
100
AcDbEntity
  8
const1
  6
ByLayer
 62
  256
370
   -1
100
AcDbLine
 10
0.5
 20
6.399999915706305
 11
-0.5
 21
6.399999915706305
  0
LINE
  5
1EB
100
AcDbEntity
  8
const1
  6
ByLayer
 62
  256
370
   -1
100
AcDbLine
 10
0.4999999999999999
 20
4.5
 11
-0.5
 21
4.5
  0
LINE
  5
1EC
100
AcDbEntity
  8
const1
  6
ByLayer
 62
  256
370
   -1
100
AcDbLine
 10
0.5
 20
6
 11
-0.5
 21
6
  0
LINE
  5
1ED
100
AcDbEntity
  8
const1
  6
ByLayer
 62
  256
370
   -1
100
AcDbLine
 10
-0.5
 20
6
 11
-0.9119999999999999
 21
6
  0
LINE
  5
1EE
100
AcDbEntity
  8
const1
  6
ByLayer
 62
  256
370
   -1
100
AcDbLine
 10
-8.25
 20
4.5
 11
-8.25
 21
4.912
  0
LINE
  5
1EF
100
AcDbEntity
  8
const1
  6
ByLayer
 62
  256
370
   -1
100
AcDbLine
 10
-2.211999915706304
 20
4.5
 11
-2.211999915706304
 21
4.912
  0
LINE
  5
1F0
100
AcDbEntity
  8
const1
  6
ByLayer
 62
  256
370
   -1
100
AcDbLine
 10
-8.25
 20
4.5
 11
-2.211999915706304
 21
4.5
  0
LINE
  5
1F1
100
AcDbEntity
  8
const1
  6
ByLayer
 62
  256
370
   -1
100
AcDbLine
 10
-5.230999957853152
 20
4.5
 11
-5.230999957853152
 21
4.912
  0
CIRCLE
  5
1F2
100
AcDbEntity
  8
vector
  6
ByLayer
 62
  256
370
   -1
100
AcDbCircle
 10
-2.211999915706304
 20
4.912
 40
0.0725
  0
CIRCLE
  5
1F3
100
AcDbEntity
  8
vector
  6
ByLayer
 62
  256
370
   -1
100
AcDbCircle
 10
-5.230999957853152
 20
4.912
 40
0.0725
  0
CIRCLE
  5
1F4
100
AcDbEntity
  8
vector
  6
ByLayer
 62
  256
370
   -1
100
AcDbCircle
 10
-8.25
 20
4.912
 40
0.0725
  0
LINE
  5
1F5
100
AcDbEntity
  8
const1
  6
ByLayer
 62
  256
370
   -1
100
AcDbLine
 10
0.75
 20
6
 11
0.7500000000000002
 21
7.400000087303662
  0
DIMENSION
  5
1F6
100
AcDbEntity
  8
0
  6
ByLayer
 62
  256
370
   -1
100
AcDbDimension
  2
*D1
 10
4.205949284786415
 20
7.400000119209292
 30
0
 11
4.130949284786415
 21
11.40000011920929
 31
0
 70
   32
 71
    5
  3
Standard
 53
0
210
0
220
0
230
1
100
AcDbAlignedDimension
 13
3.4
 23
15.40000011920929
 33
0
 14
3.399999999999999
 24
7.400000119209292
 34
0
 50
90
100
AcDbRotatedDimension
  0
LINE
  5
1F7
100
AcDbEntity
  8
const1
  6
ByLayer
 62
  256
370
   -1
100
AcDbLine
 10
0.5
 20
9.112000000000004
 11
0.5
 21
7.400000084293699
  0
LINE
  5
1F8
100
AcDbEntity
  8
const1
  6
ByLayer
 62
  256
370
   -1
100
AcDbLine
 10
0.75
 20
9.112000000000004
 11
1.162
 21
9.112000000000004
  0
CIRCLE
  5
1F9
100
AcDbEntity
  8
vector
  6
ByLayer
 62
  256
370
   -1
100
AcDbCircle
 10
1.162
 20
9.112000000000004
 40
0.0725
  0
CIRCLE
  5
1FA
100
AcDbEntity
  8
vector
  6
ByLayer
 62
  256
370
   -1
100
AcDbCircle
 10
1.162
 20
12.13100004214685
 40
0.0725
  0
CIRCLE
  5
1FB
100
AcDbEntity
  8
vector
  6
ByLayer
 62
  256
370
   -1
100
AcDbCircle
 10
1.161999999999999
 20
15.1500000842937
 40
0.0725
  0
LINE
  5
1FC
100
AcDbEntity
  8
const1
  6
ByLayer
 62
  256
370
   -1
100
AcDbLine
 10
0.7500000000000002
 20
7.400000087303662
 11
0.7500000000000007
 21
15.40000008730366
  0
LWPOLYLINE
  5
1FD
100
AcDbEntity
  8
const1
  6
ByLayer
 62
  256
370
   -1
100
AcDbPolyline
 90
    4
 70
    1
 43
0
 10
7.727765
 20
4.977765000000001
 10
8.272235
 20
4.977765000000001
 10
8.272235
 20
5.522235000000001
 10
7.727765
 20
5.522235000000001
  0
LINE
  5
1FE
100
AcDbEntity
  8
const1
  6
ByLayer
 62
  256
370
   -1
100
AcDbLine
 10
8
 20
5.522235000000001
 11
8
 21
4.977765000000001
  0
LINE
  5
1FF
100
AcDbEntity
  8
const1
  6
ByLayer
 62
  256
370
   -1
100
AcDbLine
 10
7.727765
 20
5.250000000000001
 11
8.272235
 21
5.250000000000001
  0
CIRCLE
  5
200
100
AcDbEntity
  8
nocut
  6
ByLayer
 62
  256
370
   -1
100
AcDbCircle
 10
8
 20
5.250000000000001
 40
0.255
  0
CIRCLE
  5
201
100
AcDbEntity
  8
const1
  6
ByLayer
 62
  256
370
   -1
100
AcDbCircle
 10
7.727765
 20
5.522235000000001
 40
0.175
  0
CIRCLE
  5
202
100
AcDbEntity
  8
const1
  6
ByLayer
 62
  256
370
   -1
100
AcDbCircle
 10
8.272235
 20
5.522235000000001
 40
0.175
  0
CIRCLE
  5
203
100
AcDbEntity
  8
const1
  6
ByLayer
 62
  256
370
   -1
100
AcDbCircle
 10
8.272235
 20
4.977765000000001
 40
0.175
  0
CIRCLE
  5
204
100
AcDbEntity
  8
const1
  6
ByLayer
 62
  256
370
   -1
100
AcDbCircle
 10
7.727765
 20
4.977765000000001
 40
0.175
  0
CIRCLE
  5
205
100
AcDbEntity
  8
const1
  6
ByLayer
 62
  256
370
   -1
100
AcDbCircle
 10
7.727765
 20
5.522235000000001
 40
0.0725
  0
CIRCLE
  5
206
100
AcDbEntity
  8
const1
  6
ByLayer
 62
  256
370
   -1
100
AcDbCircle
 10
8.272235
 20
5.522235000000001
 40
0.0725
  0
CIRCLE
  5
207
100
AcDbEntity
  8
const1
  6
ByLayer
 62
  256
370
   -1
100
AcDbCircle
 10
7.727765
 20
4.977765000000001
 40
0.0725
  0
CIRCLE
  5
208
100
AcDbEntity
  8
const1
  6
ByLayer
 62
  256
370
   -1
100
AcDbCircle
 10
8.272235
 20
4.977765000000001
 40
0.0725
  0
LWPOLYLINE
  5
209
100
AcDbEntity
  8
vector
  6
ByLayer
 62
  256
370
   -1
100
AcDbPolyline
 90
    8
 70
    1
 43
0
 10
7.600000000000001
 20
5.750000000000001
 10
8.400000000000002
 20
5.750000000000002
 42
-0.4142135623730924
 10
8.5
 20
5.650000000000001
 10
8.5
 20
4.850000000000001
 42
-0.414213562373095
 10
8.400000000000002
 20
4.75
 10
7.600000000000001
 20
4.75
 42
-0.4142135623730976
 10
7.500000000000001
 20
4.850000000000001
 10
7.5
 20
5.650000000000001
 42
-0.414213562373095
  0
CIRCLE
  5
20A
100
AcDbEntity
  8
vector
  6
ByLayer
 62
  256
370
   -1
100
AcDbCircle
 10
7
 20
6.25
 40
0.1285
  0
CIRCLE
  5
20B
100
AcDbEntity
  8
vector
  6
ByLayer
 62
  256
370
   -1
100
AcDbCircle
 10
8
 20
6.25
 40
0.1285
  0
CIRCLE
  5
20C
100
AcDbEntity
  8
vector
  6
ByLayer
 62
  256
370
   -1
100
AcDbCircle
 10
9
 20
6.25
 40
0.1285
  0
CIRCLE
  5
20D
100
AcDbEntity
  8
vector
  6
ByLayer
 62
  256
370
   -1
100
AcDbCircle
 10
7
 20
5.25
 40
0.1285
  0
CIRCLE
  5
20E
100
AcDbEntity
  8
vector
  6
ByLayer
 62
  256
370
   -1
100
AcDbCircle
 10
9
 20
5.25
 40
0.1285
  0
CIRCLE
  5
20F
100
AcDbEntity
  8
vector
  6
ByLayer
 62
  256
370
   -1
100
AcDbCircle
 10
7
 20
4.25
 40
0.1285
  0
CIRCLE
  5
210
100
AcDbEntity
  8
vector
  6
ByLayer
 62
  256
370
   -1
100
AcDbCircle
 10
8
 20
4.25
 40
0.1285
  0
CIRCLE
  5
211
100
AcDbEntity
  8
vector
  6
ByLayer
 62
  256
370
   -1
100
AcDbCircle
 10
9
 20
4.25
 40
0.1285
  0
LWPOLYLINE
  5
212
100
AcDbEntity
  8
vector
  6
ByLayer
 62
  256
370
   -1
100
AcDbPolyline
 90
    8
 70
    1
 43
0
 10
6.85
 20
6.5
 10
9.15
 20
6.5
 42
-0.4142135623730898
 10
9.249999999999998
 20
6.4
 10
9.249999999999998
 20
4.1
 42
-0.4142135623730898
 10
9.15
 20
4
 10
6.85
 20
4
 42
-0.414213562373095
 10
6.75
 20
4.1
 10
6.75
 20
6.4
 42
-0.414213562373095
  0
LINE
  5
213
100
AcDbEntity
  8
const1
  6
ByLayer
 62
  256
370
   -1
100
AcDbLine
 10
8
 20
6.25
 11
8
 21
0.5
  0
LINE
  5
214
100
AcDbEntity
  8
const1
  6
ByLayer
 62
  256
370
   -1
100
AcDbLine
 10
9
 20
6.25
 11
9
 21
0.5
  0
LINE
  5
215
100
AcDbEntity
  8
const1
  6
ByLayer
 62
  256
370
   -1
100
AcDbLine
 10
7
 20
6.25
 11
7
 21
0.5
  0
LINE
  5
216
100
AcDbEntity
  8
const1
  6
ByLayer
 62
  256
370
   -1
100
AcDbLine
 10
8
 20
6.25
 11
8
 21
0.5
  0
LINE
  5
217
100
AcDbEntity
  8
const1
  6
ByLayer
 62
  256
370
   -1
100
AcDbLine
 10
2
 20
5.8
 11
2
 21
2.5
  0
LINE
  5
218
100
AcDbEntity
  8
const1
  6
ByLayer
 62
  256
370
   -1
100
AcDbLine
 10
3
 20
5.8
 11
3
 21
2.5
  0
LINE
  5
219
100
AcDbEntity
  8
const1
  6
ByLayer
 62
  256
370
   -1
100
AcDbLine
 10
0.5
 20
6
 11
3.399999999999999
 21
6
  0
CIRCLE
  5
21A
100
AcDbEntity
  8
vector
  6
ByLayer
 62
  256
370
   -1
100
AcDbCircle
 10
2
 20
1.5
 40
0.1
  0
CIRCLE
  5
21B
100
AcDbEntity
  8
vector
  6
ByLayer
 62
  256
370
   -1
100
AcDbCircle
 10
3
 20
1.5
 40
0.1
  0
CIRCLE
  5
21C
100
AcDbEntity
  8
vector
  6
ByLayer
 62
  256
370
   -1
100
AcDbCircle
 10
4
 20
1.5
 40
0.1
  0
CIRCLE
  5
21D
100
AcDbEntity
  8
vector
  6
ByLayer
 62
  256
370
   -1
100
AcDbCircle
 10
5
 20
1.5
 40
0.1
  0
ARC
  5
21E
100
AcDbEntity
  8
vector
  6
ByLayer
 62
  256
370
   -1
100
AcDbCircle
 10
1
 20
1.5
 40
0.1
100
AcDbArc
 50
180
 51
540
  0
LINE
  5
21F
100
AcDbEntity
  8
const1
  6
ByLayer
 62
  256
370
   -1
100
AcDbLine
 10
3.4
 20
15.40000011920929
 11
2.9
 21
15.40000011920929
  0
LINE
  5
220
100
AcDbEntity
  8
const1
  6
ByLayer
 62
  256
370
   -1
100
AcDbLine
 10
2.9
 20
15.40000011920929
 11
2.65
 21
15.40000011920929
  0
LINE
  5
221
100
AcDbEntity
  8
const1
  6
ByLayer
 62
  256
370
   -1
100
AcDbLine
 10
2.65
 20
15.40000011920929
 11
2.649999999999999
 21
7.40000011920929
  0
LINE
  5
222
100
AcDbEntity
  8
const2
  6
ByLayer
 62
  256
370
   -1
100
AcDbLine
 10
2.65
 20
15.40000011920929
 11
2.65
 21
14.90000011920929
  0
LINE
  5
223
100
AcDbEntity
  8
const2
  6
ByLayer
 62
  256
370
   -1
100
AcDbLine
 10
2.649999999999999
 20
7.40000011920929
 11
2.649999999999999
 21
8.90000011920929
  0
LINE
  5
224
100
AcDbEntity
  8
const1
  6
ByLayer
 62
  256
370
   -1
100
AcDbLine
 10
2.65
 20
14.90000011920929
 11
2.5215
 21
14.90000011920929
  0
LINE
  5
225
100
AcDbEntity
  8
const1
  6
ByLayer
 62
  256
370
   -1
100
AcDbLine
 10
2.649999999999999
 20
8.90000011920929
 11
2.5215
 21
8.90000011920929
  0
LINE
  5
226
100
AcDbEntity
  8
const1
  6
ByLayer
 62
  256
370
   -1
100
AcDbLine
 10
2.649999999999999
 20
8.90000011920929
 11
2.778499999999999
 21
8.90000011920929
  0
LINE
  5
227
100
AcDbEntity
  8
const1
  6
ByLayer
 62
  256
370
   -1
100
AcDbLine
 10
2.65
 20
14.90000011920929
 11
2.7785
 21
14.90000011920929
  0
LINE
  5
228
100
AcDbEntity
  8
vector
  6
ByLayer
 62
  256
370
   -1
100
AcDbLine
 10
2.5215
 20
14.90000011920929
 11
2.5215
 21
8.90000011920929
  0
LINE
  5
229
100
AcDbEntity
  8
vector
  6
ByLayer
 62
  256
370
   -1
100
AcDbLine
 10
2.778499999999999
 20
8.90000011920929
 11
2.7785
 21
14.90000011920929
  0
ARC
  5
22A
100
AcDbEntity
  8
vector
  6
ByLayer
 62
  256
370
   -1
100
AcDbCircle
 10
2.65
 20
14.90000011920929
 40
0.1284999999999998
100
AcDbArc
 50
359.9998936935561
 51
540
  0
ARC
  5
22B
100
AcDbEntity
  8
vector
  6
ByLayer
 62
  256
370
   -1
100
AcDbCircle
 10
2.649999999999999
 20
8.90000011920929
 40
0.1284999999999998
100
AcDbArc
 50
180
 51
0
  0
ARC
  5
22C
100
AcDbEntity
  8
vector
  6
ByLayer
 62
  256
370
   -1
100
AcDbCircle
 10
-2.626213478079399
 20
6.100000000000001
 40
1
100
AcDbArc
 50
270
 51
314.9999999999999
  0
LINE
  5
22D
100
AcDbEntity
  8
vector
  6
ByLayer
 62
  256
370
   -1
100
AcDbLine
 10
0.6
 20
6.500000000000001
 11
3.3
 21
6.500000000000001
  0
ARC
  5
22E
100
AcDbEntity
  8
vector
  6
ByLayer
 62
  256
370
   -1
100
AcDbCircle
 10
3.3
 20
6.400000000000001
 40
0.09999999999999942
100
AcDbArc
 50
0
 51
90
  0
LINE
  5
22F
100
AcDbEntity
  8
vector
  6
ByLayer
 62
  256
370
   -1
100
AcDbLine
 10
3.399999999999999
 20
6.400000000000001
 11
3.4
 21
4.350000000000001
  0
ARC
  5
230
100
AcDbEntity
  8
vector
  6
ByLayer
 62
  256
370
   -1
100
AcDbCircle
 10
3.299999999999999
 20
4.350000000000001
 40
0.1000000000000005
100
AcDbArc
 50
270.0000000000002
 51
5.088887490341627e-13
  0
LINE
  5
231
100
AcDbEntity
  8
vector
  6
ByLayer
 62
  256
370
   -1
100
AcDbLine
 10
3.3
 20
4.25
 11
0.6000000000000001
 21
4.25
  0
ARC
  5
232
100
AcDbEntity
  8
vector
  6
ByLayer
 62
  256
370
   -1
100
AcDbCircle
 10
0.6000000000000005
 20
4.350000000000001
 40
0.1000000000000005
100
AcDbArc
 50
179.9999999999995
 51
269.9999999999998
  0
LINE
  5
233
100
AcDbEntity
  8
vector
  6
ByLayer
 62
  256
370
   -1
100
AcDbLine
 10
0.5
 20
4.350000000000001
 11
0.5
 21
6.4
  0
ARC
  5
234
100
AcDbEntity
  8
vector
  6
ByLayer
 62
  256
370
   -1
100
AcDbCircle
 10
0.5999999999999998
 20
6.400000000000001
 40
0.0999999999999997
100
AcDbArc
 50
89.99999999999987
 51
180.0000000000005
  0
ARC
  5
235
100
AcDbEntity
  8
vector
  6
ByLayer
 62
  256
370
   -1
100
AcDbCircle
 10
0.5999999999999998
 20
6.400000000000001
 40
0.0999999999999997
100
AcDbArc
 50
89.99999999999987
 51
180.0000000000005
  0
ARC
  5
236
100
AcDbEntity
  8
vector
  6
ByLayer
 62
  256
370
   -1
100
AcDbCircle
 10
0.5999999999999998
 20
6.400000000000001
 40
0.0999999999999997
100
AcDbArc
 50
89.99999999999987
 51
180.0000000000005
  0
LINE
  5
237
100
AcDbEntity
  8
vector
  6
ByLayer
 62
  256
370
   -1
100
AcDbLine
 10
-0.9412893218813445
 20
6.370710593824961
 11
-1.919106696892852
 21
5.392893218813454
  0
ARC
  5
238
100
AcDbEntity
  8
vector
  6
ByLayer
 62
  256
370
   -1
100
AcDbCircle
 10
-0.8705786437626895
 20
6.299999915706305
 40
0.1
100
AcDbArc
 50
90
 51
134.9999999999998
  0
LINE
  5
239
100
AcDbEntity
  8
vector
  6
ByLayer
 62
  256
370
   -1
100
AcDbLine
 10
-0.6
 20
6.399999915706305
 11
-0.8705786437626895
 21
6.399999915706305
  0
ARC
  5
23A
100
AcDbEntity
  8
vector
  6
ByLayer
 62
  256
370
   -1
100
AcDbCircle
 10
-0.6
 20
6.299999915706305
 40
0.1
100
AcDbArc
 50
0
 51
90
  0
LINE
  5
23B
100
AcDbEntity
  8
vector
  6
ByLayer
 62
  256
370
   -1
100
AcDbLine
 10
-0.5
 20
6.299999915706305
 11
-0.5
 21
4.6
  0
ARC
  5
23C
100
AcDbEntity
  8
vector
  6
ByLayer
 62
  256
370
   -1
100
AcDbCircle
 10
-0.6
 20
4.6
 40
0.1
100
AcDbArc
 50
270
 51
0
  0
LINE
  5
23D
100
AcDbEntity
  8
vector
  6
ByLayer
 62
  256
370
   -1
100
AcDbLine
 10
-2.626213478079399
 20
5.100000000000001
 11
-8.4
 21
5.100000000000001
  0
ARC
  5
23E
100
AcDbEntity
  8
vector
  6
ByLayer
 62
  256
370
   -1
100
AcDbCircle
 10
-8.4
 20
5.000000000000002
 40
0.1
100
AcDbArc
 50
90
 51
180
  0
LINE
  5
23F
100
AcDbEntity
  8
vector
  6
ByLayer
 62
  256
370
   -1
100
AcDbLine
 10
-8.5
 20
5.000000000000002
 11
-8.5
 21
4.6
  0
LINE
  5
240
100
AcDbEntity
  8
const1
  6
ByLayer
 62
  256
370
   -1
100
AcDbLine
 10
-8.4
 20
4.5
 11
-8.25
 21
4.5
  0
ARC
  5
241
100
AcDbEntity
  8
vector
  6
ByLayer
 62
  256
370
   -1
100
AcDbCircle
 10
-8.4
 20
4.6
 40
0.1
100
AcDbArc
 50
180
 51
270
  0
LINE
  5
242
100
AcDbEntity
  8
vector
  6
ByLayer
 62
  256
370
   -1
100
AcDbLine
 10
-8.4
 20
4.5
 11
-0.6
 21
4.5
  0
ARC
  5
243
100
AcDbEntity
  8
vector
  6
ByLayer
 62
  256
370
   -1
100
AcDbCircle
 10
0.6000000000000001
 20
15.30000008549768
 40
0.1
100
AcDbArc
 50
90.00000068983312
 51
180
  0
LINE
  5
244
100
AcDbEntity
  8
vector
  6
ByLayer
 62
  256
370
   -1
100
AcDbLine
 10
0.5999999987960142
 20
15.40000008549769
 11
3.299999998796014
 21
15.4000001180053
  0
ARC
  5
245
100
AcDbEntity
  8
vector
  6
ByLayer
 62
  256
370
   -1
100
AcDbCircle
 10
3.3
 20
15.3000001180053
 40
0.1
100
AcDbArc
 50
0
 51
90.00000068983304
  0
LINE
  5
246
100
AcDbEntity
  8
vector
  6
ByLayer
 62
  256
370
   -1
100
AcDbLine
 10
0.4999999999999996
 20
7.500000085497683
 11
0.5000000000000001
 21
15.30000008549768
  0
ARC
  5
247
100
AcDbEntity
  8
vector
  6
ByLayer
 62
  256
370
   -1
100
AcDbCircle
 10
0.5999999999999996
 20
7.500000085497683
 40
0.1
100
AcDbArc
 50
180
 51
270.0000006898332
  0
LINE
  5
248
100
AcDbEntity
  8
vector
  6
ByLayer
 62
  256
370
   -1
100
AcDbLine
 10
3.399999999999999
 20
7.500000118005305
 11
3.4
 21
15.3000001180053
  0
LINE
  5
249
100
AcDbEntity
  8
vector
  6
ByLayer
 62
  256
370
   -1
100
AcDbLine
 10
0.6000000012039857
 20
7.400000085497685
 11
3.300000001203985
 21
7.400000118005305
  0
ARC
  5
24A
100
AcDbEntity
  8
vector
  6
ByLayer
 62
  256
370
   -1
100
AcDbCircle
 10
3.299999999999999
 20
7.500000118005305
 40
0.1
100
AcDbArc
 50
270.0000006898333
 51
0
  0
CIRCLE
  5
24B
100
AcDbEntity
  8
vector
  6
ByLayer
 62
  256
370
   -1
100
AcDbCircle
 10
-0.9119999999999999
 20
6
 40
0.0725
  0
LINE
  5
24C
100
AcDbEntity
  8
const1
  6
ByLayer
 62
  256
370
   -1
100
AcDbLine
 10
-5.230999957853152
 20
4.5
 11
-5.510999957853152
 21
4.5
  0
LINE
  5
24D
100
AcDbEntity
  8
const1
  6
ByLayer
 62
  256
370
   -1
100
AcDbLine
 10
-8
 20
10.95
 11
-8
 21
11.45
  0
LINE
  5
24E
100
AcDbEntity
  8
const1
  6
ByLayer
 62
  256
370
   -1
100
AcDbLine
 10
-8
 20
11.45
 11
-8
 21
11.95
  0
LINE
  5
24F
100
AcDbEntity
  8
const2
  6
ByLayer
 62
  256
370
   -1
100
AcDbLine
 10
-8
 20
10.95
 11
-7.5
 21
10.95
  0
LINE
  5
250
100
AcDbEntity
  8
const2
  6
ByLayer
 62
  256
370
   -1
100
AcDbLine
 10
-7.5
 20
10.95
 11
-7.5
 21
10.862
  0
LINE
  5
251
100
AcDbEntity
  8
const2
  6
ByLayer
 62
  256
370
   -1
100
AcDbLine
 10
-7.5
 20
10.95
 11
-7
 21
10.95
  0
LINE
  5
252
100
AcDbEntity
  8
const2
  6
ByLayer
 62
  256
370
   -1
100
AcDbLine
 10
-7
 20
10.95
 11
-7
 21
10.862
  0
LINE
  5
253
100
AcDbEntity
  8
const2
  6
ByLayer
 62
  256
370
   -1
100
AcDbLine
 10
-7
 20
10.95
 11
-6.5
 21
10.95
  0
LINE
  5
254
100
AcDbEntity
  8
const2
  6
ByLayer
 62
  256
370
   -1
100
AcDbLine
 10
-6.5
 20
10.95
 11
-6.5
 21
10.862
  0
LINE
  5
255
100
AcDbEntity
  8
const2
  6
ByLayer
 62
  256
370
   -1
100
AcDbLine
 10
-6.5
 20
10.95
 11
-6
 21
10.95
  0
LINE
  5
256
100
AcDbEntity
  8
const2
  6
ByLayer
 62
  256
370
   -1
100
AcDbLine
 10
-6
 20
10.95
 11
-6
 21
10.862
  0
LINE
  5
257
100
AcDbEntity
  8
const1
  6
ByLayer
 62
  256
370
   -1
100
AcDbLine
 10
-8
 20
10.95
 11
-8
 21
10.45
  0
LINE
  5
258
100
AcDbEntity
  8
const1
  6
ByLayer
 62
  256
370
   -1
100
AcDbLine
 10
-8
 20
10.45
 11
-5.5
 21
10.45
  0
LINE
  5
259
100
AcDbEntity
  8
const1
  6
ByLayer
 62
  256
370
   -1
100
AcDbLine
 10
-8
 20
10.45
 11
-8
 21
10.2
  0
LINE
  5
25A
100
AcDbEntity
  8
const1
  6
ByLayer
 62
  256
370
   -1
100
AcDbLine
 10
-8
 20
10.2
 11
-5.5
 21
10.2
  0
LINE
  5
25B
100
AcDbEntity
  8
const2
  6
ByLayer
 62
  256
370
   -1
100
AcDbLine
 10
-8
 20
10.45
 11
-7.75
 21
10.45
  0
LINE
  5
25C
100
AcDbEntity
  8
const1
  6
ByLayer
 62
  256
370
   -1
100
AcDbLine
 10
-7.75
 20
10.45
 11
-7.75
 21
11.95
  0
LINE
  5
25D
100
AcDbEntity
  8
const2
  6
ByLayer
 62
  256
370
   -1
100
AcDbLine
 10
-7.75
 20
10.95
 11
-7.75
 21
11.2
  0
LINE
  5
25E
100
AcDbEntity
  8
const2
  6
ByLayer
 62
  256
370
   -1
100
AcDbLine
 10
-7.75
 20
11.2
 11
-7.75
 21
11.45
  0
ARC
  5
25F
100
AcDbEntity
  8
vector
  6
ByLayer
 62
  256
370
   -1
100
AcDbCircle
 10
-6.5
 20
12.15
 40
0.13
100
AcDbArc
 50
0
 51
180.0000000000004
  0
ARC
  5
260
100
AcDbEntity
  8
vector
  6
ByLayer
 62
  256
370
   -1
100
AcDbCircle
 10
-5.5
 20
12.15
 40
0.13
100
AcDbArc
 50
0
 51
180
  0
ARC
  5
261
100
AcDbEntity
  8
vector
  6
ByLayer
 62
  256
370
   -1
100
AcDbCircle
 10
-6.5
 20
11.75
 40
0.13
100
AcDbArc
 50
180.0000000000004
 51
0
  0
ARC
  5
262
100
AcDbEntity
  8
vector
  6
ByLayer
 62
  256
370
   -1
100
AcDbCircle
 10
-5.5
 20
11.75
 40
0.13
100
AcDbArc
 50
180
 51
0
  0
LINE
  5
263
100
AcDbEntity
  8
vector
  6
ByLayer
 62
  256
370
   -1
100
AcDbLine
 10
-6.63
 20
12.15
 11
-6.63
 21
11.75
  0
LINE
  5
264
100
AcDbEntity
  8
vector
  6
ByLayer
 62
  256
370
   -1
100
AcDbLine
 10
-6.37
 20
12.15
 11
-6.37
 21
11.75
  0
LINE
  5
265
100
AcDbEntity
  8
vector
  6
ByLayer
 62
  256
370
   -1
100
AcDbLine
 10
-5.63
 20
12.15
 11
-5.63
 21
11.75
  0
LINE
  5
266
100
AcDbEntity
  8
vector
  6
ByLayer
 62
  256
370
   -1
100
AcDbLine
 10
-5.37
 20
12.15
 11
-5.37
 21
11.75
  0
LINE
  5
267
100
AcDbEntity
  8
const1
  6
ByLayer
 62
  256
370
   -1
100
AcDbLine
 10
-7.75
 20
11.95
 11
-7.338
 21
11.95
  0
LWPOLYLINE
  5
268
100
AcDbEntity
  8
vector
  6
ByLayer
 62
  256
370
   -1
100
AcDbPolyline
 90
    8
 70
    1
 43
0
 10
-7.9
 20
12.45
 10
-5.2
 20
12.45
 42
-0.414213562373095
 10
-5.100000000000001
 20
12.35
 10
-5.100000000000001
 20
10.3
 42
-0.4142135623730898
 10
-5.2
 20
10.2
 10
-7.9
 20
10.2
 42
-0.4142135623730976
 10
-8
 20
10.3
 10
-8
 20
12.35
 42
-0.414213562373095
  0
LINE
  5
269
100
AcDbEntity
  8
const2
  6
ByLayer
 62
  256
370
   -1
100
AcDbLine
 10
-6
 20
10.95
 11
-5.5
 21
10.95
  0
LINE
  5
26A
100
AcDbEntity
  8
const2
  6
ByLayer
 62
  256
370
   -1
100
AcDbLine
 10
-5.5
 20
10.95
 11
-5.5
 21
10.862
  0
LINE
  5
26B
100
AcDbEntity
  8
const1
  6
ByLayer
 62
  256
370
   -1
100
AcDbLine
 10
-8
 20
11.95
 11
-5.100000000000001
 21
11.95
  0
CIRCLE
  5
26C
100
AcDbEntity
  8
vector
  6
ByLayer
 62
  256
370
   -1
100
AcDbCircle
 10
-7.338
 20
11.95
 40
0.16
  0
CIRCLE
  5
26D
100
AcDbEntity
  8
vector
  6
ByLayer
 62
  256
370
   -1
100
AcDbCircle
 10
-7.5
 20
10.862
 40
0.16
  0
CIRCLE
  5
26E
100
AcDbEntity
  8
vector
  6
ByLayer
 62
  256
370
   -1
100
AcDbCircle
 10
-7
 20
10.862
 40
0.16
  0
CIRCLE
  5
26F
100
AcDbEntity
  8
vector
  6
ByLayer
 62
  256
370
   -1
100
AcDbCircle
 10
-6.5
 20
10.862
 40
0.16
  0
CIRCLE
  5
270
100
AcDbEntity
  8
vector
  6
ByLayer
 62
  256
370
   -1
100
AcDbCircle
 10
-6
 20
10.862
 40
0.16
  0
CIRCLE
  5
271
100
AcDbEntity
  8
vector
  6
ByLayer
 62
  256
370
   -1
100
AcDbCircle
 10
-5.5
 20
10.862
 40
0.16
  0
LINE
  5
272
100
AcDbEntity
  8
const1
  6
ByLayer
 62
  256
370
   -1
100
AcDbLine
 10
-0.5
 20
9
 11
-0.9119999999999999
 21
9
  0
LINE
  5
273
100
AcDbEntity
  8
const1
  6
ByLayer
 62
  256
370
   -1
100
AcDbLine
 10
-2.211999915706304
 20
7.5
 11
-2.211999915706304
 21
7.912
  0
LINE
  5
274
100
AcDbEntity
  8
const1
  6
ByLayer
 62
  256
370
   -1
100
AcDbLine
 10
-5.230999957853152
 20
7.5
 11
-5.230999957853152
 21
7.912
  0
CIRCLE
  5
275
100
AcDbEntity
  8
vector
  6
ByLayer
 62
  256
370
   -1
100
AcDbCircle
 10
-2.211999915706304
 20
7.912
 40
0.0725
  0
CIRCLE
  5
276
100
AcDbEntity
  8
vector
  6
ByLayer
 62
  256
370
   -1
100
AcDbCircle
 10
-5.230999957853152
 20
7.912
 40
0.0725
  0
ARC
  5
277
100
AcDbEntity
  8
vector
  6
ByLayer
 62
  256
370
   -1
100
AcDbCircle
 10
-2.626213478079399
 20
9.100000000000001
 40
1
100
AcDbArc
 50
270
 51
314.9999999999999
  0
LINE
  5
278
100
AcDbEntity
  8
vector
  6
ByLayer
 62
  256
370
   -1
100
AcDbLine
 10
-0.9412893218813445
 20
9.37071059382496
 11
-1.919106696892852
 21
8.392893218813455
  0
ARC
  5
279
100
AcDbEntity
  8
vector
  6
ByLayer
 62
  256
370
   -1
100
AcDbCircle
 10
-0.8705786437626895
 20
9.299999915706305
 40
0.1
100
AcDbArc
 50
90
 51
134.9999999999998
  0
LINE
  5
27A
100
AcDbEntity
  8
vector
  6
ByLayer
 62
  256
370
   -1
100
AcDbLine
 10
-0.6
 20
9.399999915706305
 11
-0.8705786437626895
 21
9.399999915706305
  0
ARC
  5
27B
100
AcDbEntity
  8
vector
  6
ByLayer
 62
  256
370
   -1
100
AcDbCircle
 10
-0.6
 20
9.299999915706305
 40
0.1
100
AcDbArc
 50
0
 51
90
  0
LINE
  5
27C
100
AcDbEntity
  8
vector
  6
ByLayer
 62
  256
370
   -1
100
AcDbLine
 10
-0.5
 20
9.299999915706305
 11
-0.5
 21
7.6
  0
ARC
  5
27D
100
AcDbEntity
  8
vector
  6
ByLayer
 62
  256
370
   -1
100
AcDbCircle
 10
-0.6
 20
7.6
 40
0.1
100
AcDbArc
 50
270
 51
0
  0
CIRCLE
  5
27E
100
AcDbEntity
  8
vector
  6
ByLayer
 62
  256
370
   -1
100
AcDbCircle
 10
-0.9119999999999999
 20
9
 40
0.0725
  0
LINE
  5
27F
100
AcDbEntity
  8
vector
  6
ByLayer
 62
  256
370
   -1
100
AcDbLine
 10
-2.626213478079399
 20
8.100000000000001
 11
-5.410999957853153
 21
8.100000000000001
  0
ARC
  5
280
100
AcDbEntity
  8
vector
  6
ByLayer
 62
  256
370
   -1
100
AcDbCircle
 10
-5.410999957853153
 20
8.000000000000002
 40
0.1
100
AcDbArc
 50
90
 51
180
  0
LINE
  5
281
100
AcDbEntity
  8
vector
  6
ByLayer
 62
  256
370
   -1
100
AcDbLine
 10
-5.510999957853152
 20
7.6
 11
-5.510999957853152
 21
8.000000000000002
  0
ARC
  5
282
100
AcDbEntity
  8
vector
  6
ByLayer
 62
  256
370
   -1
100
AcDbCircle
 10
-5.410999957853153
 20
7.6
 40
0.1
100
AcDbArc
 50
180
 51
270
  0
LINE
  5
283
100
AcDbEntity
  8
vector
  6
ByLayer
 62
  256
370
   -1
100
AcDbLine
 10
-5.410999957853153
 20
7.5
 11
-0.6
 21
7.5
  0
LINE
  5
284
100
AcDbEntity
  8
const0
  6
ByLayer
 62
  256
370
   -1
100
AcDbLine
 10
8
 20
1.5
 11
8.4
 21
1.5
  0
LINE
  5
285
100
AcDbEntity
  8
const0
  6
ByLayer
 62
  256
370
   -1
100
AcDbLine
 10
8
 20
1.5
 11
7.6
 21
1.5
  0
LINE
  5
286
100
AcDbEntity
  8
const0
  6
ByLayer
 62
  256
370
   -1
100
AcDbLine
 10
8.4
 20
1.5
 11
8.4
 21
1.9
  0
LINE
  5
287
100
AcDbEntity
  8
const0
  6
ByLayer
 62
  256
370
   -1
100
AcDbLine
 10
7.6
 20
1.5
 11
7.6
 21
1.1
  0
LWPOLYLINE
  5
288
100
AcDbEntity
  8
const1
  6
ByLayer
 62
  256
370
   -1
100
AcDbPolyline
 90
    4
 70
    1
 43
0
 10
8.4
 20
1.9
 10
7.6
 20
1.9
 10
7.6
 20
1.1
 10
8.4
 20
1.1
  0
LINE
  5
289
100
AcDbEntity
  8
const1
  6
ByLayer
 62
  256
370
   -1
100
AcDbLine
 10
-3.061616997868383e-17
 20
1
 11
-6.123233995736766e-17
 21
0.5
  0
LINE
  5
28A
100
AcDbEntity
  8
const2
  6
ByLayer
 62
  256
370
   -1
100
AcDbLine
 10
-3.061616997868383e-17
 20
0.85
 11
-4.347496136973104e-17
 21
0.64
  0
LINE
  5
28B
100
AcDbEntity
  8
const2
  6
ByLayer
 62
  256
370
   -1
100
AcDbLine
 10
16
 20
0.85
 11
16
 21
0.64
  0
LINE
  5
28C
100
AcDbEntity
  8
const2
  6
ByLayer
 62
  256
370
   -1
100
AcDbLine
 10
-4.347496136973104e-17
 20
0.64
 11
16
 21
0.64
  0
LINE
  5
28D
100
AcDbEntity
  8
const2
  6
ByLayer
 62
  256
370
   -1
100
AcDbLine
 10
-3.061616997868383e-17
 20
0.85
 11
16
 21
0.85
  0
LINE
  5
28E
100
AcDbEntity
  8
const2
  6
ByLayer
 62
  256
370
   -1
100
AcDbLine
 10
3.061616997868383e-17
 20
2.15
 11
16
 21
2.15
  0
LINE
  5
28F
100
AcDbEntity
  8
const2
  6
ByLayer
 62
  256
370
   -1
100
AcDbLine
 10
3.061616997868383e-17
 20
2.15
 11
4.347496136973104e-17
 21
2.36
  0
LINE
  5
290
100
AcDbEntity
  8
const2
  6
ByLayer
 62
  256
370
   -1
100
AcDbLine
 10
16
 20
2.15
 11
16
 21
2.36
  0
LINE
  5
291
100
AcDbEntity
  8
const2
  6
ByLayer
 62
  256
370
   -1
100
AcDbLine
 10
4.347496136973104e-17
 20
2.36
 11
16
 21
2.36
  0
LINE
  5
292
100
AcDbEntity
  8
const1
  6
ByLayer
 62
  256
370
   -1
100
AcDbLine
 10
3.503370433261605e-16
 20
0.85
 11
0.05000000000000035
 21
0.85
  0
LINE
  5
293
100
AcDbEntity
  8
const1
  6
ByLayer
 62
  256
370
   -1
100
AcDbLine
 10
9.375216652390217e-17
 20
2.15
 11
0.0500000000000001
 21
2.15
  0
LINE
  5
294
100
AcDbEntity
  8
const1
  6
ByLayer
 62
  256
370
   -1
100
AcDbLine
 10
16
 20
0.85
 11
15.95
 21
0.85
  0
LINE
  5
295
100
AcDbEntity
  8
const1
  6
ByLayer
 62
  256
370
   -1
100
AcDbLine
 10
16
 20
2.15
 11
15.95
 21
2.15
  0
LINE
  5
296
100
AcDbEntity
  8
const1
  6
ByLayer
 62
  256
370
   -1
100
AcDbLine
 10
0.3000000000000003
 20
0.85
 11
0.3000000000000003
 21
1.262
  0
CIRCLE
  5
297
100
AcDbEntity
  8
vector
  6
ByLayer
 62
  256
370
   -1
100
AcDbCircle
 10
0.3000000000000003
 20
1.262
 40
0.0725
  0
LINE
  5
298
100
AcDbEntity
  8
const1
  6
ByLayer
 62
  256
370
   -1
100
AcDbLine
 10
0.3000000000000003
 20
0.85
 11
0.05000000000000027
 21
0.85
  0
LINE
  5
299
100
AcDbEntity
  8
const1
  6
ByLayer
 62
  256
370
   -1
100
AcDbLine
 10
0.3000000000000003
 20
0.85
 11
0.5500000000000003
 21
0.85
  0
LINE
  5
29A
100
AcDbEntity
  8
const1
  6
ByLayer
 62
  256
370
   -1
100
AcDbLine
 10
0.05000000000000027
 20
0.85
 11
0.05000000000000027
 21
1.412
  0
LINE
  5
29B
100
AcDbEntity
  8
const1
  6
ByLayer
 62
  256
370
   -1
100
AcDbLine
 10
0.5500000000000003
 20
0.85
 11
0.5500000000000003
 21
1.412
  0
LINE
  5
29C
100
AcDbEntity
  8
const1
  6
ByLayer
 62
  256
370
   -1
100
AcDbLine
 10
0.05000000000000027
 20
1.412
 11
0.5500000000000003
 21
1.412
  0
LINE
  5
29D
100
AcDbEntity
  8
const1
  6
ByLayer
 62
  256
370
   -1
100
AcDbLine
 10
15.7
 20
0.85
 11
15.7
 21
1.262
  0
CIRCLE
  5
29E
100
AcDbEntity
  8
vector
  6
ByLayer
 62
  256
370
   -1
100
AcDbCircle
 10
15.7
 20
1.262
 40
0.0725
  0
LINE
  5
29F
100
AcDbEntity
  8
const1
  6
ByLayer
 62
  256
370
   -1
100
AcDbLine
 10
15.7
 20
0.85
 11
15.45
 21
0.85
  0
LINE
  5
2A0
100
AcDbEntity
  8
const1
  6
ByLayer
 62
  256
370
   -1
100
AcDbLine
 10
15.7
 20
0.85
 11
15.95
 21
0.85
  0
LINE
  5
2A1
100
AcDbEntity
  8
const1
  6
ByLayer
 62
  256
370
   -1
100
AcDbLine
 10
15.45
 20
0.85
 11
15.45
 21
1.412
  0
LINE
  5
2A2
100
AcDbEntity
  8
const1
  6
ByLayer
 62
  256
370
   -1
100
AcDbLine
 10
15.95
 20
0.85
 11
15.95
 21
1.412
  0
LINE
  5
2A3
100
AcDbEntity
  8
const1
  6
ByLayer
 62
  256
370
   -1
100
AcDbLine
 10
15.45
 20
1.412
 11
15.95
 21
1.412
  0
LINE
  5
2A4
100
AcDbEntity
  8
const1
  6
ByLayer
 62
  256
370
   -1
100
AcDbLine
 10
0.2999999999999998
 20
2.15
 11
0.2999999999999998
 21
1.738
  0
CIRCLE
  5
2A5
100
AcDbEntity
  8
vector
  6
ByLayer
 62
  256
370
   -1
100
AcDbCircle
 10
0.2999999999999998
 20
1.738
 40
0.0725
  0
LINE
  5
2A6
100
AcDbEntity
  8
const1
  6
ByLayer
 62
  256
370
   -1
100
AcDbLine
 10
0.2999999999999998
 20
2.15
 11
0.5499999999999998
 21
2.15
  0
LINE
  5
2A7
100
AcDbEntity
  8
const1
  6
ByLayer
 62
  256
370
   -1
100
AcDbLine
 10
0.2999999999999998
 20
2.15
 11
0.04999999999999982
 21
2.15
  0
LINE
  5
2A8
100
AcDbEntity
  8
const1
  6
ByLayer
 62
  256
370
   -1
100
AcDbLine
 10
0.5499999999999998
 20
2.15
 11
0.5499999999999998
 21
1.588
  0
LINE
  5
2A9
100
AcDbEntity
  8
const1
  6
ByLayer
 62
  256
370
   -1
100
AcDbLine
 10
0.04999999999999982
 20
2.15
 11
0.04999999999999982
 21
1.588
  0
LINE
  5
2AA
100
AcDbEntity
  8
const1
  6
ByLayer
 62
  256
370
   -1
100
AcDbLine
 10
0.5499999999999998
 20
1.588
 11
0.04999999999999982
 21
1.588
  0
LINE
  5
2AB
100
AcDbEntity
  8
const1
  6
ByLayer
 62
  256
370
   -1
100
AcDbLine
 10
15.7
 20
2.15
 11
15.7
 21
1.738
  0
CIRCLE
  5
2AC
100
AcDbEntity
  8
vector
  6
ByLayer
 62
  256
370
   -1
100
AcDbCircle
 10
15.7
 20
1.738
 40
0.0725
  0
LINE
  5
2AD
100
AcDbEntity
  8
const1
  6
ByLayer
 62
  256
370
   -1
100
AcDbLine
 10
15.7
 20
2.15
 11
15.95
 21
2.15
  0
LINE
  5
2AE
100
AcDbEntity
  8
const1
  6
ByLayer
 62
  256
370
   -1
100
AcDbLine
 10
15.7
 20
2.15
 11
15.45
 21
2.15
  0
LINE
  5
2AF
100
AcDbEntity
  8
const1
  6
ByLayer
 62
  256
370
   -1
100
AcDbLine
 10
15.95
 20
2.15
 11
15.95
 21
1.588
  0
LINE
  5
2B0
100
AcDbEntity
  8
const1
  6
ByLayer
 62
  256
370
   -1
100
AcDbLine
 10
15.45
 20
2.15
 11
15.45
 21
1.588
  0
LINE
  5
2B1
100
AcDbEntity
  8
const1
  6
ByLayer
 62
  256
370
   -1
100
AcDbLine
 10
15.95
 20
1.588
 11
15.45
 21
1.588
  0
CIRCLE
  5
2B2
100
AcDbEntity
  8
const1
  6
ByLayer
 62
  256
370
   -1
100
AcDbCircle
 10
0.2999999999999998
 20
1.738
 40
0.13
  0
CIRCLE
  5
2B3
100
AcDbEntity
  8
const1
  6
ByLayer
 62
  256
370
   -1
100
AcDbCircle
 10
0.3000000000000003
 20
1.262
 40
0.13
  0
CIRCLE
  5
2B4
100
AcDbEntity
  8
const1
  6
ByLayer
 62
  256
370
   -1
100
AcDbCircle
 10
15.7
 20
1.738
 40
0.13
  0
CIRCLE
  5
2B5
100
AcDbEntity
  8
const1
  6
ByLayer
 62
  256
370
   -1
100
AcDbCircle
 10
15.7
 20
1.262
 40
0.13
  0
LINE
  5
2B6
100
AcDbEntity
  8
const1
  6
ByLayer
 62
  256
370
   -1
100
AcDbLine
 10
10
 20
0.85
 11
10.05
 21
0.85
  0
LINE
  5
2B7
100
AcDbEntity
  8
const1
  6
ByLayer
 62
  256
370
   -1
100
AcDbLine
 10
10
 20
2.15
 11
10.05
 21
2.15
  0
LINE
  5
2B8
100
AcDbEntity
  8
const1
  6
ByLayer
 62
  256
370
   -1
100
AcDbLine
 10
6.000000000000001
 20
0.85
 11
5.950000000000001
 21
0.85
  0
LINE
  5
2B9
100
AcDbEntity
  8
const1
  6
ByLayer
 62
  256
370
   -1
100
AcDbLine
 10
6.000000000000001
 20
2.15
 11
5.950000000000001
 21
2.15
  0
LINE
  5
2BA
100
AcDbEntity
  8
const1
  6
ByLayer
 62
  256
370
   -1
100
AcDbLine
 10
5.700000000000001
 20
0.85
 11
5.700000000000001
 21
1.262
  0
CIRCLE
  5
2BB
100
AcDbEntity
  8
vector
  6
ByLayer
 62
  256
370
   -1
100
AcDbCircle
 10
5.700000000000001
 20
1.262
 40
0.0725
  0
LINE
  5
2BC
100
AcDbEntity
  8
const1
  6
ByLayer
 62
  256
370
   -1
100
AcDbLine
 10
5.700000000000001
 20
0.85
 11
5.450000000000001
 21
0.85
  0
LINE
  5
2BD
100
AcDbEntity
  8
const1
  6
ByLayer
 62
  256
370
   -1
100
AcDbLine
 10
5.700000000000001
 20
0.85
 11
5.950000000000001
 21
0.85
  0
LINE
  5
2BE
100
AcDbEntity
  8
const1
  6
ByLayer
 62
  256
370
   -1
100
AcDbLine
 10
5.450000000000001
 20
0.85
 11
5.450000000000001
 21
1.412
  0
LINE
  5
2BF
100
AcDbEntity
  8
const1
  6
ByLayer
 62
  256
370
   -1
100
AcDbLine
 10
5.950000000000001
 20
0.85
 11
5.950000000000001
 21
1.412
  0
LINE
  5
2C0
100
AcDbEntity
  8
const1
  6
ByLayer
 62
  256
370
   -1
100
AcDbLine
 10
5.450000000000001
 20
1.412
 11
5.950000000000001
 21
1.412
  0
CIRCLE
  5
2C1
100
AcDbEntity
  8
const1
  6
ByLayer
 62
  256
370
   -1
100
AcDbCircle
 10
5.700000000000001
 20
1.262
 40
0.13
  0
LINE
  5
2C2
100
AcDbEntity
  8
const1
  6
ByLayer
 62
  256
370
   -1
100
AcDbLine
 10
10.3
 20
0.85
 11
10.3
 21
1.262
  0
CIRCLE
  5
2C3
100
AcDbEntity
  8
vector
  6
ByLayer
 62
  256
370
   -1
100
AcDbCircle
 10
10.3
 20
1.262
 40
0.0725
  0
LINE
  5
2C4
100
AcDbEntity
  8
const1
  6
ByLayer
 62
  256
370
   -1
100
AcDbLine
 10
10.3
 20
0.85
 11
10.05
 21
0.85
  0
LINE
  5
2C5
100
AcDbEntity
  8
const1
  6
ByLayer
 62
  256
370
   -1
100
AcDbLine
 10
10.3
 20
0.85
 11
10.55
 21
0.85
  0
LINE
  5
2C6
100
AcDbEntity
  8
const1
  6
ByLayer
 62
  256
370
   -1
100
AcDbLine
 10
10.05
 20
0.85
 11
10.05
 21
1.412
  0
LINE
  5
2C7
100
AcDbEntity
  8
const1
  6
ByLayer
 62
  256
370
   -1
100
AcDbLine
 10
10.55
 20
0.85
 11
10.55
 21
1.412
  0
LINE
  5
2C8
100
AcDbEntity
  8
const1
  6
ByLayer
 62
  256
370
   -1
100
AcDbLine
 10
10.05
 20
1.412
 11
10.55
 21
1.412
  0
CIRCLE
  5
2C9
100
AcDbEntity
  8
const1
  6
ByLayer
 62
  256
370
   -1
100
AcDbCircle
 10
10.3
 20
1.262
 40
0.13
  0
LINE
  5
2CA
100
AcDbEntity
  8
const1
  6
ByLayer
 62
  256
370
   -1
100
AcDbLine
 10
5.700000000000001
 20
2.15
 11
5.700000000000001
 21
1.738
  0
CIRCLE
  5
2CB
100
AcDbEntity
  8
vector
  6
ByLayer
 62
  256
370
   -1
100
AcDbCircle
 10
5.700000000000001
 20
1.738
 40
0.0725
  0
LINE
  5
2CC
100
AcDbEntity
  8
const1
  6
ByLayer
 62
  256
370
   -1
100
AcDbLine
 10
5.700000000000001
 20
2.15
 11
5.950000000000001
 21
2.15
  0
LINE
  5
2CD
100
AcDbEntity
  8
const1
  6
ByLayer
 62
  256
370
   -1
100
AcDbLine
 10
5.700000000000001
 20
2.15
 11
5.450000000000001
 21
2.15
  0
LINE
  5
2CE
100
AcDbEntity
  8
const1
  6
ByLayer
 62
  256
370
   -1
100
AcDbLine
 10
5.950000000000001
 20
2.15
 11
5.950000000000001
 21
1.588
  0
LINE
  5
2CF
100
AcDbEntity
  8
const1
  6
ByLayer
 62
  256
370
   -1
100
AcDbLine
 10
5.450000000000001
 20
2.15
 11
5.450000000000001
 21
1.588
  0
LINE
  5
2D0
100
AcDbEntity
  8
const1
  6
ByLayer
 62
  256
370
   -1
100
AcDbLine
 10
5.950000000000001
 20
1.588
 11
5.450000000000001
 21
1.588
  0
CIRCLE
  5
2D1
100
AcDbEntity
  8
const1
  6
ByLayer
 62
  256
370
   -1
100
AcDbCircle
 10
5.700000000000001
 20
1.738
 40
0.13
  0
LINE
  5
2D2
100
AcDbEntity
  8
const1
  6
ByLayer
 62
  256
370
   -1
100
AcDbLine
 10
10.3
 20
2.15
 11
10.3
 21
1.738
  0
CIRCLE
  5
2D3
100
AcDbEntity
  8
vector
  6
ByLayer
 62
  256
370
   -1
100
AcDbCircle
 10
10.3
 20
1.738
 40
0.0725
  0
LINE
  5
2D4
100
AcDbEntity
  8
const1
  6
ByLayer
 62
  256
370
   -1
100
AcDbLine
 10
10.3
 20
2.15
 11
10.55
 21
2.15
  0
LINE
  5
2D5
100
AcDbEntity
  8
const1
  6
ByLayer
 62
  256
370
   -1
100
AcDbLine
 10
10.3
 20
2.15
 11
10.05
 21
2.15
  0
LINE
  5
2D6
100
AcDbEntity
  8
const1
  6
ByLayer
 62
  256
370
   -1
100
AcDbLine
 10
10.55
 20
2.15
 11
10.55
 21
1.588
  0
LINE
  5
2D7
100
AcDbEntity
  8
const1
  6
ByLayer
 62
  256
370
   -1
100
AcDbLine
 10
10.05
 20
2.15
 11
10.05
 21
1.588
  0
LINE
  5
2D8
100
AcDbEntity
  8
const1
  6
ByLayer
 62
  256
370
   -1
100
AcDbLine
 10
10.55
 20
1.588
 11
10.05
 21
1.588
  0
CIRCLE
  5
2D9
100
AcDbEntity
  8
const1
  6
ByLayer
 62
  256
370
   -1
100
AcDbCircle
 10
10.3
 20
1.738
 40
0.13
  0
LINE
  5
2DA
100
AcDbEntity
  8
const1
  6
ByLayer
 62
  256
370
   -1
100
AcDbLine
 10
10
 20
1.05
 11
10
 21
0.85
  0
LINE
  5
2DB
100
AcDbEntity
  8
const1
  6
ByLayer
 62
  256
370
   -1
100
AcDbLine
 10
10
 20
1.95
 11
10
 21
2.15
  0
LINE
  5
2DC
100
AcDbEntity
  8
const1
  6
ByLayer
 62
  256
370
   -1
100
AcDbLine
 10
6.000000000000001
 20
1.05
 11
6.000000000000001
 21
0.85
  0
LINE
  5
2DD
100
AcDbEntity
  8
const1
  6
ByLayer
 62
  256
370
   -1
100
AcDbLine
 10
6.000000000000001
 20
1.95
 11
6.000000000000001
 21
2.15
  0
DIMENSION
  5
2DE
100
AcDbEntity
  8
0
  6
ByLayer
 62
  256
370
   -1
100
AcDbDimension
  2
*D2
 10
-8.713134772435536
 20
4.5
 30
0
 11
-8.788134772435535
 21
4.800000000000001
 31
0
 70
   32
 71
    5
  3
Standard
 53
0
210
0
220
0
230
1
100
AcDbAlignedDimension
 13
-8.4
 23
5.100000000000001
 33
0
 14
-8.4
 24
4.5
 34
0
 50
90
100
AcDbRotatedDimension
  0
LINE
  5
2DF
100
AcDbEntity
  8
vector
  6
ByLayer
 62
  256
370
   -1
100
AcDbLine
 10
-3.673940397442059e-17
 20
-1.600000000000001
 11
16
 21
-1.6
  0
LINE
  5
2E0
100
AcDbEntity
  8
const1
  6
ByLayer
 62
  256
370
   -1
100
AcDbLine
 10
0.3000000000000003
 20
0.85
 11
0.3000000000000002
 21
-1.600000000000001
  0
LINE
  5
2E1
100
AcDbEntity
  8
const1
  6
ByLayer
 62
  256
370
   -1
100
AcDbLine
 10
5.700000000000001
 20
0.85
 11
5.700000000000001
 21
-1.6
  0
LINE
  5
2E2
100
AcDbEntity
  8
const1
  6
ByLayer
 62
  256
370
   -1
100
AcDbLine
 10
10.3
 20
0.85
 11
10.3
 21
-1.6
  0
LINE
  5
2E3
100
AcDbEntity
  8
const1
  6
ByLayer
 62
  256
370
   -1
100
AcDbLine
 10
15.7
 20
0.85
 11
15.7
 21
-1.6
  0
LINE
  5
2E4
100
AcDbEntity
  8
const1
  6
ByLayer
 62
  256
370
   -1
100
AcDbLine
 10
0.3000000000000003
 20
-1.600000000000001
 11
0.3000000000000003
 21
-1.188000000000001
  0
CIRCLE
  5
2E5
100
AcDbEntity
  8
vector
  6
ByLayer
 62
  256
370
   -1
100
AcDbCircle
 10
0.3000000000000003
 20
-1.188000000000001
 40
0.0725
  0
LINE
  5
2E6
100
AcDbEntity
  8
const1
  6
ByLayer
 62
  256
370
   -1
100
AcDbLine
 10
0.3000000000000003
 20
-1.600000000000001
 11
0.05000000000000027
 21
-1.600000000000001
  0
LINE
  5
2E7
100
AcDbEntity
  8
const1
  6
ByLayer
 62
  256
370
   -1
100
AcDbLine
 10
0.3000000000000003
 20
-1.600000000000001
 11
0.5500000000000003
 21
-1.600000000000001
  0
LINE
  5
2E8
100
AcDbEntity
  8
const1
  6
ByLayer
 62
  256
370
   -1
100
AcDbLine
 10
0.05000000000000027
 20
-1.600000000000001
 11
0.05000000000000027
 21
-1.038
  0
LINE
  5
2E9
100
AcDbEntity
  8
const1
  6
ByLayer
 62
  256
370
   -1
100
AcDbLine
 10
0.5500000000000003
 20
-1.600000000000001
 11
0.5500000000000003
 21
-1.038
  0
LINE
  5
2EA
100
AcDbEntity
  8
const1
  6
ByLayer
 62
  256
370
   -1
100
AcDbLine
 10
0.05000000000000027
 20
-1.038
 11
0.5500000000000003
 21
-1.038
  0
CIRCLE
  5
2EB
100
AcDbEntity
  8
const1
  6
ByLayer
 62
  256
370
   -1
100
AcDbCircle
 10
0.3000000000000003
 20
-1.188000000000001
 40
0.13
  0
LINE
  5
2EC
100
AcDbEntity
  8
const1
  6
ByLayer
 62
  256
370
   -1
100
AcDbLine
 10
5.700000000000001
 20
-1.6
 11
5.700000000000001
 21
-1.188
  0
CIRCLE
  5
2ED
100
AcDbEntity
  8
vector
  6
ByLayer
 62
  256
370
   -1
100
AcDbCircle
 10
5.700000000000001
 20
-1.188
 40
0.0725
  0
LINE
  5
2EE
100
AcDbEntity
  8
const1
  6
ByLayer
 62
  256
370
   -1
100
AcDbLine
 10
5.700000000000001
 20
-1.6
 11
5.450000000000001
 21
-1.6
  0
LINE
  5
2EF
100
AcDbEntity
  8
const1
  6
ByLayer
 62
  256
370
   -1
100
AcDbLine
 10
5.700000000000001
 20
-1.6
 11
5.950000000000001
 21
-1.6
  0
LINE
  5
2F0
100
AcDbEntity
  8
const1
  6
ByLayer
 62
  256
370
   -1
100
AcDbLine
 10
5.450000000000001
 20
-1.6
 11
5.450000000000001
 21
-1.038
  0
LINE
  5
2F1
100
AcDbEntity
  8
const1
  6
ByLayer
 62
  256
370
   -1
100
AcDbLine
 10
5.950000000000001
 20
-1.6
 11
5.950000000000001
 21
-1.038
  0
LINE
  5
2F2
100
AcDbEntity
  8
const1
  6
ByLayer
 62
  256
370
   -1
100
AcDbLine
 10
5.450000000000001
 20
-1.038
 11
5.950000000000001
 21
-1.038
  0
CIRCLE
  5
2F3
100
AcDbEntity
  8
const1
  6
ByLayer
 62
  256
370
   -1
100
AcDbCircle
 10
5.700000000000001
 20
-1.188
 40
0.13
  0
LINE
  5
2F4
100
AcDbEntity
  8
const1
  6
ByLayer
 62
  256
370
   -1
100
AcDbLine
 10
10.3
 20
-1.6
 11
10.3
 21
-1.188
  0
CIRCLE
  5
2F5
100
AcDbEntity
  8
vector
  6
ByLayer
 62
  256
370
   -1
100
AcDbCircle
 10
10.3
 20
-1.188
 40
0.0725
  0
LINE
  5
2F6
100
AcDbEntity
  8
const1
  6
ByLayer
 62
  256
370
   -1
100
AcDbLine
 10
10.3
 20
-1.6
 11
10.05
 21
-1.6
  0
LINE
  5
2F7
100
AcDbEntity
  8
const1
  6
ByLayer
 62
  256
370
   -1
100
AcDbLine
 10
10.3
 20
-1.6
 11
10.55
 21
-1.6
  0
LINE
  5
2F8
100
AcDbEntity
  8
const1
  6
ByLayer
 62
  256
370
   -1
100
AcDbLine
 10
10.05
 20
-1.6
 11
10.05
 21
-1.038
  0
LINE
  5
2F9
100
AcDbEntity
  8
const1
  6
ByLayer
 62
  256
370
   -1
100
AcDbLine
 10
10.55
 20
-1.6
 11
10.55
 21
-1.038
  0
LINE
  5
2FA
100
AcDbEntity
  8
const1
  6
ByLayer
 62
  256
370
   -1
100
AcDbLine
 10
10.05
 20
-1.038
 11
10.55
 21
-1.038
  0
CIRCLE
  5
2FB
100
AcDbEntity
  8
const1
  6
ByLayer
 62
  256
370
   -1
100
AcDbCircle
 10
10.3
 20
-1.188
 40
0.13
  0
LINE
  5
2FC
100
AcDbEntity
  8
const1
  6
ByLayer
 62
  256
370
   -1
100
AcDbLine
 10
15.7
 20
-1.6
 11
15.7
 21
-1.188
  0
CIRCLE
  5
2FD
100
AcDbEntity
  8
vector
  6
ByLayer
 62
  256
370
   -1
100
AcDbCircle
 10
15.7
 20
-1.188
 40
0.0725
  0
LINE
  5
2FE
100
AcDbEntity
  8
const1
  6
ByLayer
 62
  256
370
   -1
100
AcDbLine
 10
15.7
 20
-1.6
 11
15.45
 21
-1.6
  0
LINE
  5
2FF
100
AcDbEntity
  8
const1
  6
ByLayer
 62
  256
370
   -1
100
AcDbLine
 10
15.7
 20
-1.6
 11
15.95
 21
-1.6
  0
LINE
  5
300
100
AcDbEntity
  8
const1
  6
ByLayer
 62
  256
370
   -1
100
AcDbLine
 10
15.45
 20
-1.6
 11
15.45
 21
-1.038
  0
LINE
  5
301
100
AcDbEntity
  8
const1
  6
ByLayer
 62
  256
370
   -1
100
AcDbLine
 10
15.95
 20
-1.6
 11
15.95
 21
-1.038
  0
LINE
  5
302
100
AcDbEntity
  8
const1
  6
ByLayer
 62
  256
370
   -1
100
AcDbLine
 10
15.45
 20
-1.038
 11
15.95
 21
-1.038
  0
CIRCLE
  5
303
100
AcDbEntity
  8
const1
  6
ByLayer
 62
  256
370
   -1
100
AcDbCircle
 10
15.7
 20
-1.188
 40
0.13
  0
LINE
  5
304
100
AcDbEntity
  8
vector
  6
ByLayer
 62
  256
370
   -1
100
AcDbLine
 10
-6.123233995736769e-18
 20
-1.100000000000001
 11
-3.673940397442059e-17
 21
-1.600000000000001
  0
ARC
  5
305
100
AcDbEntity
  8
vector
  6
ByLayer
 62
  256
370
   -1
100
AcDbCircle
 10
0.09999999999999999
 20
-1.100000000000001
 40
0.1
100
AcDbArc
 50
90
 51
180
  0
LINE
  5
306
100
AcDbEntity
  8
vector
  6
ByLayer
 62
  256
370
   -1
100
AcDbLine
 10
16
 20
-1.1
 11
16
 21
-1.6
  0
LINE
  5
307
100
AcDbEntity
  8
vector
  6
ByLayer
 62
  256
370
   -1
100
AcDbLine
 10
0.09999999999999999
 20
-1
 11
15.90000000000001
 21
-1
  0
ARC
  5
308
100
AcDbEntity
  8
vector
  6
ByLayer
 62
  256
370
   -1
100
AcDbCircle
 10
15.90000000000001
 20
-1.1
 40
0.1
100
AcDbArc
 50
0
 51
89.99999999999898
  0
LINE
  5
309
100
AcDbEntity
  8
const1
  6
ByLayer
 62
  256
370
   -1
100
AcDbLine
 10
-4.75
 20
1.562
 11
-4.75
 21
1.15
  0
CIRCLE
  5
30A
100
AcDbEntity
  8
vector
  6
ByLayer
 62
  256
370
   -1
100
AcDbCircle
 10
-4.75
 20
1.15
 40
0.0725
  0
LINE
  5
30B
100
AcDbEntity
  8
const1
  6
ByLayer
 62
  256
370
   -1
100
AcDbLine
 10
-4.75
 20
1.562
 11
-4.5
 21
1.562
  0
LINE
  5
30C
100
AcDbEntity
  8
const1
  6
ByLayer
 62
  256
370
   -1
100
AcDbLine
 10
-4.75
 20
1.562
 11
-5
 21
1.562
  0
LINE
  5
30D
100
AcDbEntity
  8
const1
  6
ByLayer
 62
  256
370
   -1
100
AcDbLine
 10
-4.5
 20
1.562
 11
-4.5
 21
0.9999999999999998
  0
LINE
  5
30E
100
AcDbEntity
  8
const1
  6
ByLayer
 62
  256
370
   -1
100
AcDbLine
 10
-5
 20
1.562
 11
-5
 21
1
  0
LINE
  5
30F
100
AcDbEntity
  8
const1
  6
ByLayer
 62
  256
370
   -1
100
AcDbLine
 10
-4.5
 20
0.9999999999999998
 11
-5
 21
1
  0
CIRCLE
  5
310
100
AcDbEntity
  8
const1
  6
ByLayer
 62
  256
370
   -1
100
AcDbCircle
 10
-4.75
 20
1.15
 40
0.13
  0
LINE
  5
311
100
AcDbEntity
  8
const1
  6
ByLayer
 62
  256
370
   -1
100
AcDbLine
 10
-3.75
 20
1
 11
-3.75
 21
1.412
  0
CIRCLE
  5
312
100
AcDbEntity
  8
vector
  6
ByLayer
 62
  256
370
   -1
100
AcDbCircle
 10
-3.75
 20
1.412
 40
0.0725
  0
LINE
  5
313
100
AcDbEntity
  8
const1
  6
ByLayer
 62
  256
370
   -1
100
AcDbLine
 10
-3.75
 20
1
 11
-4
 21
1
  0
LINE
  5
314
100
AcDbEntity
  8
const1
  6
ByLayer
 62
  256
370
   -1
100
AcDbLine
 10
-3.75
 20
1
 11
-3.5
 21
1
  0
LINE
  5
315
100
AcDbEntity
  8
const1
  6
ByLayer
 62
  256
370
   -1
100
AcDbLine
 10
-4
 20
1
 11
-4
 21
1.562
  0
LINE
  5
316
100
AcDbEntity
  8
const1
  6
ByLayer
 62
  256
370
   -1
100
AcDbLine
 10
-3.5
 20
1
 11
-3.5
 21
1.562
  0
LINE
  5
317
100
AcDbEntity
  8
const1
  6
ByLayer
 62
  256
370
   -1
100
AcDbLine
 10
-4
 20
1.562
 11
-3.5
 21
1.562
  0
CIRCLE
  5
318
100
AcDbEntity
  8
const1
  6
ByLayer
 62
  256
370
   -1
100
AcDbCircle
 10
-3.75
 20
1.412
 40
0.13
  0
LINE
  5
319
100
AcDbEntity
  8
const1
  6
ByLayer
 62
  256
370
   -1
100
AcDbLine
 10
0.3000000000000002
 20
-1.600000000000001
 11
0.3000000000000001
 21
-2.600000000000001
  0
LINE
  5
31A
100
AcDbEntity
  8
const1
  6
ByLayer
 62
  256
370
   -1
100
AcDbLine
 10
5.700000000000001
 20
-1.6
 11
5.700000000000001
 21
-2.600000000000001
  0
LINE
  5
31B
100
AcDbEntity
  8
const1
  6
ByLayer
 62
  256
370
   -1
100
AcDbLine
 10
10.3
 20
-1.6
 11
10.3
 21
-2.600000000000001
  0
LINE
  5
31C
100
AcDbEntity
  8
const1
  6
ByLayer
 62
  256
370
   -1
100
AcDbLine
 10
15.7
 20
-1.6
 11
15.7
 21
-2.6
  0
LINE
  5
31D
100
AcDbEntity
  8
vector
  6
ByLayer
 62
  256
370
   -1
100
AcDbLine
 10
-9.225055520567842e-17
 20
-3.200000000000001
 11
16
 21
-3.2
  0
LINE
  5
31E
100
AcDbEntity
  8
const1
  6
ByLayer
 62
  256
370
   -1
100
AcDbLine
 10
0.3000000000000002
 20
-3.200000000000001
 11
0.3000000000000002
 21
-2.788000000000001
  0
CIRCLE
  5
31F
100
AcDbEntity
  8
vector
  6
ByLayer
 62
  256
370
   -1
100
AcDbCircle
 10
0.3000000000000002
 20
-2.788000000000001
 40
0.0725
  0
LINE
  5
320
100
AcDbEntity
  8
const1
  6
ByLayer
 62
  256
370
   -1
100
AcDbLine
 10
0.3000000000000002
 20
-3.200000000000001
 11
0.05000000000000021
 21
-3.200000000000001
  0
LINE
  5
321
100
AcDbEntity
  8
const1
  6
ByLayer
 62
  256
370
   -1
100
AcDbLine
 10
0.3000000000000002
 20
-3.200000000000001
 11
0.5500000000000003
 21
-3.200000000000001
  0
LINE
  5
322
100
AcDbEntity
  8
const1
  6
ByLayer
 62
  256
370
   -1
100
AcDbLine
 10
0.05000000000000021
 20
-3.200000000000001
 11
0.05000000000000021
 21
-2.638000000000001
  0
LINE
  5
323
100
AcDbEntity
  8
const1
  6
ByLayer
 62
  256
370
   -1
100
AcDbLine
 10
0.5500000000000003
 20
-3.200000000000001
 11
0.5500000000000003
 21
-2.638000000000001
  0
LINE
  5
324
100
AcDbEntity
  8
const1
  6
ByLayer
 62
  256
370
   -1
100
AcDbLine
 10
0.05000000000000021
 20
-2.638000000000001
 11
0.5500000000000003
 21
-2.638000000000001
  0
CIRCLE
  5
325
100
AcDbEntity
  8
const1
  6
ByLayer
 62
  256
370
   -1
100
AcDbCircle
 10
0.3000000000000002
 20
-2.788000000000001
 40
0.13
  0
LINE
  5
326
100
AcDbEntity
  8
const1
  6
ByLayer
 62
  256
370
   -1
100
AcDbLine
 10
5.700000000000001
 20
-3.2
 11
5.700000000000001
 21
-2.788
  0
CIRCLE
  5
327
100
AcDbEntity
  8
vector
  6
ByLayer
 62
  256
370
   -1
100
AcDbCircle
 10
5.700000000000001
 20
-2.788
 40
0.0725
  0
LINE
  5
328
100
AcDbEntity
  8
const1
  6
ByLayer
 62
  256
370
   -1
100
AcDbLine
 10
5.700000000000001
 20
-3.2
 11
5.450000000000001
 21
-3.2
  0
LINE
  5
329
100
AcDbEntity
  8
const1
  6
ByLayer
 62
  256
370
   -1
100
AcDbLine
 10
5.700000000000001
 20
-3.2
 11
5.950000000000001
 21
-3.2
  0
LINE
  5
32A
100
AcDbEntity
  8
const1
  6
ByLayer
 62
  256
370
   -1
100
AcDbLine
 10
5.450000000000001
 20
-3.2
 11
5.450000000000001
 21
-2.638
  0
LINE
  5
32B
100
AcDbEntity
  8
const1
  6
ByLayer
 62
  256
370
   -1
100
AcDbLine
 10
5.950000000000001
 20
-3.2
 11
5.950000000000001
 21
-2.638
  0
LINE
  5
32C
100
AcDbEntity
  8
const1
  6
ByLayer
 62
  256
370
   -1
100
AcDbLine
 10
5.450000000000001
 20
-2.638
 11
5.950000000000001
 21
-2.638
  0
CIRCLE
  5
32D
100
AcDbEntity
  8
const1
  6
ByLayer
 62
  256
370
   -1
100
AcDbCircle
 10
5.700000000000001
 20
-2.788
 40
0.13
  0
LINE
  5
32E
100
AcDbEntity
  8
const1
  6
ByLayer
 62
  256
370
   -1
100
AcDbLine
 10
10.3
 20
-3.2
 11
10.3
 21
-2.788
  0
CIRCLE
  5
32F
100
AcDbEntity
  8
vector
  6
ByLayer
 62
  256
370
   -1
100
AcDbCircle
 10
10.3
 20
-2.788
 40
0.0725
  0
LINE
  5
330
100
AcDbEntity
  8
const1
  6
ByLayer
 62
  256
370
   -1
100
AcDbLine
 10
10.3
 20
-3.2
 11
10.05
 21
-3.2
  0
LINE
  5
331
100
AcDbEntity
  8
const1
  6
ByLayer
 62
  256
370
   -1
100
AcDbLine
 10
10.3
 20
-3.2
 11
10.55
 21
-3.2
  0
LINE
  5
332
100
AcDbEntity
  8
const1
  6
ByLayer
 62
  256
370
   -1
100
AcDbLine
 10
10.05
 20
-3.2
 11
10.05
 21
-2.638
  0
LINE
  5
333
100
AcDbEntity
  8
const1
  6
ByLayer
 62
  256
370
   -1
100
AcDbLine
 10
10.55
 20
-3.2
 11
10.55
 21
-2.638
  0
LINE
  5
334
100
AcDbEntity
  8
const1
  6
ByLayer
 62
  256
370
   -1
100
AcDbLine
 10
10.05
 20
-2.638
 11
10.55
 21
-2.638
  0
CIRCLE
  5
335
100
AcDbEntity
  8
const1
  6
ByLayer
 62
  256
370
   -1
100
AcDbCircle
 10
10.3
 20
-2.788
 40
0.13
  0
LINE
  5
336
100
AcDbEntity
  8
const1
  6
ByLayer
 62
  256
370
   -1
100
AcDbLine
 10
15.7
 20
-3.2
 11
15.7
 21
-2.788
  0
CIRCLE
  5
337
100
AcDbEntity
  8
vector
  6
ByLayer
 62
  256
370
   -1
100
AcDbCircle
 10
15.7
 20
-2.788
 40
0.0725
  0
LINE
  5
338
100
AcDbEntity
  8
const1
  6
ByLayer
 62
  256
370
   -1
100
AcDbLine
 10
15.7
 20
-3.2
 11
15.45
 21
-3.2
  0
LINE
  5
339
100
AcDbEntity
  8
const1
  6
ByLayer
 62
  256
370
   -1
100
AcDbLine
 10
15.7
 20
-3.2
 11
15.95
 21
-3.2
  0
LINE
  5
33A
100
AcDbEntity
  8
const1
  6
ByLayer
 62
  256
370
   -1
100
AcDbLine
 10
15.45
 20
-3.2
 11
15.45
 21
-2.638
  0
LINE
  5
33B
100
AcDbEntity
  8
const1
  6
ByLayer
 62
  256
370
   -1
100
AcDbLine
 10
15.95
 20
-3.2
 11
15.95
 21
-2.638
  0
LINE
  5
33C
100
AcDbEntity
  8
const1
  6
ByLayer
 62
  256
370
   -1
100
AcDbLine
 10
15.45
 20
-2.638
 11
15.95
 21
-2.638
  0
CIRCLE
  5
33D
100
AcDbEntity
  8
const1
  6
ByLayer
 62
  256
370
   -1
100
AcDbCircle
 10
15.7
 20
-2.788
 40
0.13
  0
LINE
  5
33E
100
AcDbEntity
  8
vector
  6
ByLayer
 62
  256
370
   -1
100
AcDbLine
 10
-6.163438522699459e-17
 20
-2.700000000000001
 11
-9.225055520567842e-17
 21
-3.200000000000001
  0
ARC
  5
33F
100
AcDbEntity
  8
vector
  6
ByLayer
 62
  256
370
   -1
100
AcDbCircle
 10
0.09999999999999994
 20
-2.700000000000001
 40
0.1
100
AcDbArc
 50
90
 51
180
  0
LINE
  5
340
100
AcDbEntity
  8
vector
  6
ByLayer
 62
  256
370
   -1
100
AcDbLine
 10
16
 20
-2.7
 11
16
 21
-3.2
  0
LINE
  5
341
100
AcDbEntity
  8
vector
  6
ByLayer
 62
  256
370
   -1
100
AcDbLine
 10
0.09999999999999994
 20
-2.600000000000001
 11
15.90000000000001
 21
-2.600000000000001
  0
ARC
  5
342
100
AcDbEntity
  8
vector
  6
ByLayer
 62
  256
370
   -1
100
AcDbCircle
 10
15.90000000000001
 20
-2.7
 40
0.1
100
AcDbArc
 50
0
 51
89.99999999999898
  0
CIRCLE
  5
343
100
AcDbEntity
  8
vector
  6
ByLayer
 62
  256
370
   -1
100
AcDbCircle
 10
8
 20
1.5
 40
0.18
  0
LINE
  5
344
100
AcDbEntity
  8
const2
  6
ByLayer
 62
  256
370
   -1
100
AcDbLine
 10
11
 20
1.5
 11
12
 21
0.5
  0
LINE
  5
345
100
AcDbEntity
  8
const2
  6
ByLayer
 62
  256
370
   -1
100
AcDbLine
 10
12
 20
0.5
 11
12
 21
1.5
  0
LINE
  5
346
100
AcDbEntity
  8
const2
  6
ByLayer
 62
  256
370
   -1
100
AcDbLine
 10
12
 20
1.5
 11
13
 21
0.5
  0
LINE
  5
347
100
AcDbEntity
  8
const2
  6
ByLayer
 62
  256
370
   -1
100
AcDbLine
 10
13
 20
0.5
 11
13
 21
1.5
  0
LINE
  5
348
100
AcDbEntity
  8
const2
  6
ByLayer
 62
  256
370
   -1
100
AcDbLine
 10
13
 20
1.5
 11
14
 21
0.5
  0
LINE
  5
349
100
AcDbEntity
  8
const2
  6
ByLayer
 62
  256
370
   -1
100
AcDbLine
 10
14
 20
0.5
 11
14
 21
1.5
  0
LINE
  5
34A
100
AcDbEntity
  8
const2
  6
ByLayer
 62
  256
370
   -1
100
AcDbLine
 10
14
 20
1.5
 11
15
 21
0.5
  0
LINE
  5
34B
100
AcDbEntity
  8
const2
  6
ByLayer
 62
  256
370
   -1
100
AcDbLine
 10
5
 20
1.5
 11
4
 21
2.5
  0
LINE
  5
34C
100
AcDbEntity
  8
const2
  6
ByLayer
 62
  256
370
   -1
100
AcDbLine
 10
4
 20
2.5
 11
4
 21
1.5
  0
LINE
  5
34D
100
AcDbEntity
  8
const2
  6
ByLayer
 62
  256
370
   -1
100
AcDbLine
 10
4
 20
1.5
 11
3
 21
2.5
  0
LINE
  5
34E
100
AcDbEntity
  8
const2
  6
ByLayer
 62
  256
370
   -1
100
AcDbLine
 10
3
 20
2.5
 11
3
 21
1.5
  0
LINE
  5
34F
100
AcDbEntity
  8
const2
  6
ByLayer
 62
  256
370
   -1
100
AcDbLine
 10
3
 20
1.5
 11
2
 21
2.5
  0
LINE
  5
350
100
AcDbEntity
  8
const2
  6
ByLayer
 62
  256
370
   -1
100
AcDbLine
 10
2
 20
2.5
 11
2
 21
1.5
  0
LINE
  5
351
100
AcDbEntity
  8
const2
  6
ByLayer
 62
  256
370
   -1
100
AcDbLine
 10
2
 20
1.5
 11
1
 21
2.5
  0
ARC
  5
352
100
AcDbEntity
  8
vector
  6
ByLayer
 62
  256
370
   -1
100
AcDbCircle
 10
11.575
 20
0.8624999999999998
 40
0.025
100
AcDbArc
 50
270
 51
360
  0
LINE
  5
353
100
AcDbEntity
  8
vector
  6
ByLayer
 62
  256
370
   -1
100
AcDbLine
 10
11.6
 20
0.8624999999999998
 11
11.6
 21
0.9124999999999996
  0
ARC
  5
354
100
AcDbEntity
  8
vector
  6
ByLayer
 62
  256
370
   -1
100
AcDbCircle
 10
11.575
 20
0.9124999999999996
 40
0.025
100
AcDbArc
 50
360
 51
90
  0
LINE
  5
355
100
AcDbEntity
  8
vector
  6
ByLayer
 62
  256
370
   -1
100
AcDbLine
 10
11.575
 20
0.8375000000000004
 11
11.425
 21
0.8375000000000004
  0
ARC
  5
356
100
AcDbEntity
  8
vector
  6
ByLayer
 62
  256
370
   -1
100
AcDbCircle
 10
11.425
 20
0.8624999999999998
 40
0.025
100
AcDbArc
 50
180
 51
270
  0
LINE
  5
357
100
AcDbEntity
  8
vector
  6
ByLayer
 62
  256
370
   -1
100
AcDbLine
 10
11.4
 20
0.9124999999999996
 11
11.4
 21
0.8624999999999998
  0
ARC
  5
358
100
AcDbEntity
  8
vector
  6
ByLayer
 62
  256
370
   -1
100
AcDbCircle
 10
11.425
 20
0.9124999999999996
 40
0.025
100
AcDbArc
 50
90
 51
180
  0
LINE
  5
359
100
AcDbEntity
  8
vector
  6
ByLayer
 62
  256
370
   -1
100
AcDbLine
 10
11.425
 20
0.9375
 11
11.575
 21
0.9375
  0
ARC
  5
35A
100
AcDbEntity
  8
vector
  6
ByLayer
 62
  256
370
   -1
100
AcDbCircle
 10
11.575
 20
1.0875
 40
0.025
100
AcDbArc
 50
270
 51
360
  0
ARC
  5
35B
100
AcDbEntity
  8
vector
  6
ByLayer
 62
  256
370
   -1
100
AcDbCircle
 10
11.425
 20
1.0875
 40
0.025
100
AcDbArc
 50
180
 51
270
  0
LINE
  5
35C
100
AcDbEntity
  8
vector
  6
ByLayer
 62
  256
370
   -1
100
AcDbLine
 10
11.4
 20
1.0875
 11
11.4
 21
1.137500000000001
  0
ARC
  5
35D
100
AcDbEntity
  8
vector
  6
ByLayer
 62
  256
370
   -1
100
AcDbCircle
 10
11.425
 20
1.137500000000001
 40
0.025
100
AcDbArc
 50
90
 51
180
  0
LINE
  5
35E
100
AcDbEntity
  8
vector
  6
ByLayer
 62
  256
370
   -1
100
AcDbLine
 10
11.575
 20
1.162500000000001
 11
11.425
 21
1.162500000000001
  0
LINE
  5
35F
100
AcDbEntity
  8
vector
  6
ByLayer
 62
  256
370
   -1
100
AcDbLine
 10
11.6
 20
1.0875
 11
11.6
 21
1.137500000000001
  0
ARC
  5
360
100
AcDbEntity
  8
vector
  6
ByLayer
 62
  256
370
   -1
100
AcDbCircle
 10
11.575
 20
1.137500000000001
 40
0.025
100
AcDbArc
 50
360
 51
90
  0
LINE
  5
361
100
AcDbEntity
  8
vector
  6
ByLayer
 62
  256
370
   -1
100
AcDbLine
 10
11.425
 20
1.0625
 11
11.575
 21
1.0625
  0
LINE
  5
362
100
AcDbEntity
  8
const2
  6
ByLayer
 62
  256
370
   -1
100
AcDbLine
 10
11.5
 20
1.0625
 11
11.5
 21
0.9375
  0
ARC
  5
363
100
AcDbEntity
  8
vector
  6
ByLayer
 62
  256
370
   -1
100
AcDbCircle
 10
12.575
 20
0.8624999999999998
 40
0.025
100
AcDbArc
 50
270
 51
360
  0
LINE
  5
364
100
AcDbEntity
  8
vector
  6
ByLayer
 62
  256
370
   -1
100
AcDbLine
 10
12.6
 20
0.8624999999999998
 11
12.6
 21
0.9124999999999996
  0
ARC
  5
365
100
AcDbEntity
  8
vector
  6
ByLayer
 62
  256
370
   -1
100
AcDbCircle
 10
12.575
 20
0.9124999999999996
 40
0.025
100
AcDbArc
 50
360
 51
90
  0
LINE
  5
366
100
AcDbEntity
  8
vector
  6
ByLayer
 62
  256
370
   -1
100
AcDbLine
 10
12.575
 20
0.8375000000000004
 11
12.425
 21
0.8375000000000004
  0
ARC
  5
367
100
AcDbEntity
  8
vector
  6
ByLayer
 62
  256
370
   -1
100
AcDbCircle
 10
12.425
 20
0.8624999999999998
 40
0.025
100
AcDbArc
 50
180
 51
270
  0
LINE
  5
368
100
AcDbEntity
  8
vector
  6
ByLayer
 62
  256
370
   -1
100
AcDbLine
 10
12.4
 20
0.9124999999999996
 11
12.4
 21
0.8624999999999998
  0
ARC
  5
369
100
AcDbEntity
  8
vector
  6
ByLayer
 62
  256
370
   -1
100
AcDbCircle
 10
12.425
 20
0.9124999999999996
 40
0.025
100
AcDbArc
 50
90
 51
180
  0
LINE
  5
36A
100
AcDbEntity
  8
vector
  6
ByLayer
 62
  256
370
   -1
100
AcDbLine
 10
12.425
 20
0.9375
 11
12.575
 21
0.9375
  0
ARC
  5
36B
100
AcDbEntity
  8
vector
  6
ByLayer
 62
  256
370
   -1
100
AcDbCircle
 10
12.575
 20
1.0875
 40
0.025
100
AcDbArc
 50
270
 51
360
  0
ARC
  5
36C
100
AcDbEntity
  8
vector
  6
ByLayer
 62
  256
370
   -1
100
AcDbCircle
 10
12.425
 20
1.0875
 40
0.025
100
AcDbArc
 50
180
 51
270
  0
LINE
  5
36D
100
AcDbEntity
  8
vector
  6
ByLayer
 62
  256
370
   -1
100
AcDbLine
 10
12.4
 20
1.0875
 11
12.4
 21
1.137500000000001
  0
ARC
  5
36E
100
AcDbEntity
  8
vector
  6
ByLayer
 62
  256
370
   -1
100
AcDbCircle
 10
12.425
 20
1.137500000000001
 40
0.025
100
AcDbArc
 50
90
 51
180
  0
LINE
  5
36F
100
AcDbEntity
  8
vector
  6
ByLayer
 62
  256
370
   -1
100
AcDbLine
 10
12.575
 20
1.162500000000001
 11
12.425
 21
1.162500000000001
  0
LINE
  5
370
100
AcDbEntity
  8
vector
  6
ByLayer
 62
  256
370
   -1
100
AcDbLine
 10
12.6
 20
1.0875
 11
12.6
 21
1.137500000000001
  0
ARC
  5
371
100
AcDbEntity
  8
vector
  6
ByLayer
 62
  256
370
   -1
100
AcDbCircle
 10
12.575
 20
1.137500000000001
 40
0.025
100
AcDbArc
 50
360
 51
90
  0
LINE
  5
372
100
AcDbEntity
  8
vector
  6
ByLayer
 62
  256
370
   -1
100
AcDbLine
 10
12.425
 20
1.0625
 11
12.575
 21
1.0625
  0
LINE
  5
373
100
AcDbEntity
  8
const2
  6
ByLayer
 62
  256
370
   -1
100
AcDbLine
 10
12.5
 20
1.0625
 11
12.5
 21
0.9375
  0
ARC
  5
374
100
AcDbEntity
  8
vector
  6
ByLayer
 62
  256
370
   -1
100
AcDbCircle
 10
13.575
 20
0.8624999999999998
 40
0.025
100
AcDbArc
 50
270
 51
360
  0
LINE
  5
375
100
AcDbEntity
  8
vector
  6
ByLayer
 62
  256
370
   -1
100
AcDbLine
 10
13.6
 20
0.8624999999999998
 11
13.6
 21
0.9124999999999996
  0
ARC
  5
376
100
AcDbEntity
  8
vector
  6
ByLayer
 62
  256
370
   -1
100
AcDbCircle
 10
13.575
 20
0.9124999999999996
 40
0.025
100
AcDbArc
 50
360
 51
90
  0
LINE
  5
377
100
AcDbEntity
  8
vector
  6
ByLayer
 62
  256
370
   -1
100
AcDbLine
 10
13.575
 20
0.8375000000000004
 11
13.425
 21
0.8375000000000004
  0
ARC
  5
378
100
AcDbEntity
  8
vector
  6
ByLayer
 62
  256
370
   -1
100
AcDbCircle
 10
13.425
 20
0.8624999999999998
 40
0.025
100
AcDbArc
 50
180
 51
270
  0
LINE
  5
379
100
AcDbEntity
  8
vector
  6
ByLayer
 62
  256
370
   -1
100
AcDbLine
 10
13.4
 20
0.9124999999999996
 11
13.4
 21
0.8624999999999998
  0
ARC
  5
37A
100
AcDbEntity
  8
vector
  6
ByLayer
 62
  256
370
   -1
100
AcDbCircle
 10
13.425
 20
0.9124999999999996
 40
0.025
100
AcDbArc
 50
90
 51
180
  0
LINE
  5
37B
100
AcDbEntity
  8
vector
  6
ByLayer
 62
  256
370
   -1
100
AcDbLine
 10
13.425
 20
0.9375
 11
13.575
 21
0.9375
  0
ARC
  5
37C
100
AcDbEntity
  8
vector
  6
ByLayer
 62
  256
370
   -1
100
AcDbCircle
 10
13.575
 20
1.0875
 40
0.025
100
AcDbArc
 50
270
 51
360
  0
ARC
  5
37D
100
AcDbEntity
  8
vector
  6
ByLayer
 62
  256
370
   -1
100
AcDbCircle
 10
13.425
 20
1.0875
 40
0.025
100
AcDbArc
 50
180
 51
270
  0
LINE
  5
37E
100
AcDbEntity
  8
vector
  6
ByLayer
 62
  256
370
   -1
100
AcDbLine
 10
13.4
 20
1.0875
 11
13.4
 21
1.137500000000001
  0
ARC
  5
37F
100
AcDbEntity
  8
vector
  6
ByLayer
 62
  256
370
   -1
100
AcDbCircle
 10
13.425
 20
1.137500000000001
 40
0.025
100
AcDbArc
 50
90
 51
180
  0
LINE
  5
380
100
AcDbEntity
  8
vector
  6
ByLayer
 62
  256
370
   -1
100
AcDbLine
 10
13.575
 20
1.162500000000001
 11
13.425
 21
1.162500000000001
  0
LINE
  5
381
100
AcDbEntity
  8
vector
  6
ByLayer
 62
  256
370
   -1
100
AcDbLine
 10
13.6
 20
1.0875
 11
13.6
 21
1.137500000000001
  0
ARC
  5
382
100
AcDbEntity
  8
vector
  6
ByLayer
 62
  256
370
   -1
100
AcDbCircle
 10
13.575
 20
1.137500000000001
 40
0.025
100
AcDbArc
 50
360
 51
90
  0
LINE
  5
383
100
AcDbEntity
  8
vector
  6
ByLayer
 62
  256
370
   -1
100
AcDbLine
 10
13.425
 20
1.0625
 11
13.575
 21
1.0625
  0
LINE
  5
384
100
AcDbEntity
  8
const2
  6
ByLayer
 62
  256
370
   -1
100
AcDbLine
 10
13.5
 20
1.0625
 11
13.5
 21
0.9375
  0
ARC
  5
385
100
AcDbEntity
  8
vector
  6
ByLayer
 62
  256
370
   -1
100
AcDbCircle
 10
14.575
 20
0.8624999999999998
 40
0.025
100
AcDbArc
 50
270
 51
360
  0
LINE
  5
386
100
AcDbEntity
  8
vector
  6
ByLayer
 62
  256
370
   -1
100
AcDbLine
 10
14.6
 20
0.8624999999999998
 11
14.6
 21
0.9124999999999996
  0
ARC
  5
387
100
AcDbEntity
  8
vector
  6
ByLayer
 62
  256
370
   -1
100
AcDbCircle
 10
14.575
 20
0.9124999999999996
 40
0.025
100
AcDbArc
 50
360
 51
90
  0
LINE
  5
388
100
AcDbEntity
  8
vector
  6
ByLayer
 62
  256
370
   -1
100
AcDbLine
 10
14.575
 20
0.8375000000000004
 11
14.425
 21
0.8375000000000004
  0
ARC
  5
389
100
AcDbEntity
  8
vector
  6
ByLayer
 62
  256
370
   -1
100
AcDbCircle
 10
14.425
 20
0.8624999999999998
 40
0.025
100
AcDbArc
 50
180
 51
270
  0
LINE
  5
38A
100
AcDbEntity
  8
vector
  6
ByLayer
 62
  256
370
   -1
100
AcDbLine
 10
14.4
 20
0.9124999999999996
 11
14.4
 21
0.8624999999999998
  0
ARC
  5
38B
100
AcDbEntity
  8
vector
  6
ByLayer
 62
  256
370
   -1
100
AcDbCircle
 10
14.425
 20
0.9124999999999996
 40
0.025
100
AcDbArc
 50
90
 51
180
  0
LINE
  5
38C
100
AcDbEntity
  8
vector
  6
ByLayer
 62
  256
370
   -1
100
AcDbLine
 10
14.425
 20
0.9375
 11
14.575
 21
0.9375
  0
ARC
  5
38D
100
AcDbEntity
  8
vector
  6
ByLayer
 62
  256
370
   -1
100
AcDbCircle
 10
14.575
 20
1.0875
 40
0.025
100
AcDbArc
 50
270
 51
360
  0
ARC
  5
38E
100
AcDbEntity
  8
vector
  6
ByLayer
 62
  256
370
   -1
100
AcDbCircle
 10
14.425
 20
1.0875
 40
0.025
100
AcDbArc
 50
180
 51
270
  0
LINE
  5
38F
100
AcDbEntity
  8
vector
  6
ByLayer
 62
  256
370
   -1
100
AcDbLine
 10
14.4
 20
1.0875
 11
14.4
 21
1.137500000000001
  0
ARC
  5
390
100
AcDbEntity
  8
vector
  6
ByLayer
 62
  256
370
   -1
100
AcDbCircle
 10
14.425
 20
1.137500000000001
 40
0.025
100
AcDbArc
 50
90
 51
180
  0
LINE
  5
391
100
AcDbEntity
  8
vector
  6
ByLayer
 62
  256
370
   -1
100
AcDbLine
 10
14.575
 20
1.162500000000001
 11
14.425
 21
1.162500000000001
  0
LINE
  5
392
100
AcDbEntity
  8
vector
  6
ByLayer
 62
  256
370
   -1
100
AcDbLine
 10
14.6
 20
1.0875
 11
14.6
 21
1.137500000000001
  0
ARC
  5
393
100
AcDbEntity
  8
vector
  6
ByLayer
 62
  256
370
   -1
100
AcDbCircle
 10
14.575
 20
1.137500000000001
 40
0.025
100
AcDbArc
 50
360
 51
90
  0
LINE
  5
394
100
AcDbEntity
  8
vector
  6
ByLayer
 62
  256
370
   -1
100
AcDbLine
 10
14.425
 20
1.0625
 11
14.575
 21
1.0625
  0
LINE
  5
395
100
AcDbEntity
  8
const2
  6
ByLayer
 62
  256
370
   -1
100
AcDbLine
 10
14.5
 20
1.0625
 11
14.5
 21
0.9375
  0
ARC
  5
396
100
AcDbEntity
  8
vector
  6
ByLayer
 62
  256
370
   -1
100
AcDbCircle
 10
4.575
 20
1.8625
 40
0.025
100
AcDbArc
 50
270
 51
360
  0
LINE
  5
397
100
AcDbEntity
  8
vector
  6
ByLayer
 62
  256
370
   -1
100
AcDbLine
 10
4.600000000000001
 20
1.8625
 11
4.600000000000001
 21
1.9125
  0
ARC
  5
398
100
AcDbEntity
  8
vector
  6
ByLayer
 62
  256
370
   -1
100
AcDbCircle
 10
4.575
 20
1.9125
 40
0.025
100
AcDbArc
 50
360
 51
90
  0
LINE
  5
399
100
AcDbEntity
  8
vector
  6
ByLayer
 62
  256
370
   -1
100
AcDbLine
 10
4.575
 20
1.837500000000001
 11
4.425
 21
1.837500000000001
  0
ARC
  5
39A
100
AcDbEntity
  8
vector
  6
ByLayer
 62
  256
370
   -1
100
AcDbCircle
 10
4.425
 20
1.8625
 40
0.025
100
AcDbArc
 50
180
 51
270
  0
LINE
  5
39B
100
AcDbEntity
  8
vector
  6
ByLayer
 62
  256
370
   -1
100
AcDbLine
 10
4.4
 20
1.9125
 11
4.4
 21
1.8625
  0
ARC
  5
39C
100
AcDbEntity
  8
vector
  6
ByLayer
 62
  256
370
   -1
100
AcDbCircle
 10
4.425
 20
1.9125
 40
0.025
100
AcDbArc
 50
90
 51
180
  0
LINE
  5
39D
100
AcDbEntity
  8
vector
  6
ByLayer
 62
  256
370
   -1
100
AcDbLine
 10
4.425
 20
1.9375
 11
4.575
 21
1.9375
  0
ARC
  5
39E
100
AcDbEntity
  8
vector
  6
ByLayer
 62
  256
370
   -1
100
AcDbCircle
 10
4.575
 20
2.0875
 40
0.025
100
AcDbArc
 50
270
 51
360
  0
ARC
  5
39F
100
AcDbEntity
  8
vector
  6
ByLayer
 62
  256
370
   -1
100
AcDbCircle
 10
4.425
 20
2.0875
 40
0.025
100
AcDbArc
 50
180
 51
270
  0
LINE
  5
3A0
100
AcDbEntity
  8
vector
  6
ByLayer
 62
  256
370
   -1
100
AcDbLine
 10
4.4
 20
2.0875
 11
4.4
 21
2.137500000000001
  0
ARC
  5
3A1
100
AcDbEntity
  8
vector
  6
ByLayer
 62
  256
370
   -1
100
AcDbCircle
 10
4.425
 20
2.137500000000001
 40
0.025
100
AcDbArc
 50
90
 51
180
  0
LINE
  5
3A2
100
AcDbEntity
  8
vector
  6
ByLayer
 62
  256
370
   -1
100
AcDbLine
 10
4.575
 20
2.162500000000001
 11
4.425
 21
2.162500000000001
  0
LINE
  5
3A3
100
AcDbEntity
  8
vector
  6
ByLayer
 62
  256
370
   -1
100
AcDbLine
 10
4.600000000000001
 20
2.0875
 11
4.600000000000001
 21
2.137500000000001
  0
ARC
  5
3A4
100
AcDbEntity
  8
vector
  6
ByLayer
 62
  256
370
   -1
100
AcDbCircle
 10
4.575
 20
2.137500000000001
 40
0.025
100
AcDbArc
 50
360
 51
90
  0
LINE
  5
3A5
100
AcDbEntity
  8
vector
  6
ByLayer
 62
  256
370
   -1
100
AcDbLine
 10
4.425
 20
2.0625
 11
4.575
 21
2.0625
  0
LINE
  5
3A6
100
AcDbEntity
  8
const2
  6
ByLayer
 62
  256
370
   -1
100
AcDbLine
 10
4.5
 20
2.0625
 11
4.5
 21
1.9375
  0
ARC
  5
3A7
100
AcDbEntity
  8
vector
  6
ByLayer
 62
  256
370
   -1
100
AcDbCircle
 10
3.575
 20
1.8625
 40
0.025
100
AcDbArc
 50
270
 51
360
  0
LINE
  5
3A8
100
AcDbEntity
  8
vector
  6
ByLayer
 62
  256
370
   -1
100
AcDbLine
 10
3.600000000000001
 20
1.8625
 11
3.600000000000001
 21
1.9125
  0
ARC
  5
3A9
100
AcDbEntity
  8
vector
  6
ByLayer
 62
  256
370
   -1
100
AcDbCircle
 10
3.575
 20
1.9125
 40
0.025
100
AcDbArc
 50
360
 51
90
  0
LINE
  5
3AA
100
AcDbEntity
  8
vector
  6
ByLayer
 62
  256
370
   -1
100
AcDbLine
 10
3.575
 20
1.837500000000001
 11
3.425
 21
1.837500000000001
  0
ARC
  5
3AB
100
AcDbEntity
  8
vector
  6
ByLayer
 62
  256
370
   -1
100
AcDbCircle
 10
3.425
 20
1.8625
 40
0.025
100
AcDbArc
 50
180
 51
270
  0
LINE
  5
3AC
100
AcDbEntity
  8
vector
  6
ByLayer
 62
  256
370
   -1
100
AcDbLine
 10
3.4
 20
1.9125
 11
3.4
 21
1.8625
  0
ARC
  5
3AD
100
AcDbEntity
  8
vector
  6
ByLayer
 62
  256
370
   -1
100
AcDbCircle
 10
3.425
 20
1.9125
 40
0.025
100
AcDbArc
 50
90
 51
180
  0
LINE
  5
3AE
100
AcDbEntity
  8
vector
  6
ByLayer
 62
  256
370
   -1
100
AcDbLine
 10
3.425
 20
1.9375
 11
3.575
 21
1.9375
  0
ARC
  5
3AF
100
AcDbEntity
  8
vector
  6
ByLayer
 62
  256
370
   -1
100
AcDbCircle
 10
3.575
 20
2.0875
 40
0.025
100
AcDbArc
 50
270
 51
360
  0
ARC
  5
3B0
100
AcDbEntity
  8
vector
  6
ByLayer
 62
  256
370
   -1
100
AcDbCircle
 10
3.425
 20
2.0875
 40
0.025
100
AcDbArc
 50
180
 51
270
  0
LINE
  5
3B1
100
AcDbEntity
  8
vector
  6
ByLayer
 62
  256
370
   -1
100
AcDbLine
 10
3.4
 20
2.0875
 11
3.4
 21
2.137500000000001
  0
ARC
  5
3B2
100
AcDbEntity
  8
vector
  6
ByLayer
 62
  256
370
   -1
100
AcDbCircle
 10
3.425
 20
2.137500000000001
 40
0.025
100
AcDbArc
 50
90
 51
180
  0
LINE
  5
3B3
100
AcDbEntity
  8
vector
  6
ByLayer
 62
  256
370
   -1
100
AcDbLine
 10
3.575
 20
2.162500000000001
 11
3.425
 21
2.162500000000001
  0
LINE
  5
3B4
100
AcDbEntity
  8
vector
  6
ByLayer
 62
  256
370
   -1
100
AcDbLine
 10
3.600000000000001
 20
2.0875
 11
3.600000000000001
 21
2.137500000000001
  0
ARC
  5
3B5
100
AcDbEntity
  8
vector
  6
ByLayer
 62
  256
370
   -1
100
AcDbCircle
 10
3.575
 20
2.137500000000001
 40
0.025
100
AcDbArc
 50
360
 51
90
  0
LINE
  5
3B6
100
AcDbEntity
  8
vector
  6
ByLayer
 62
  256
370
   -1
100
AcDbLine
 10
3.425
 20
2.0625
 11
3.575
 21
2.0625
  0
LINE
  5
3B7
100
AcDbEntity
  8
const2
  6
ByLayer
 62
  256
370
   -1
100
AcDbLine
 10
3.5
 20
2.0625
 11
3.5
 21
1.9375
  0
ARC
  5
3B8
100
AcDbEntity
  8
vector
  6
ByLayer
 62
  256
370
   -1
100
AcDbCircle
 10
2.575
 20
1.8625
 40
0.025
100
AcDbArc
 50
270
 51
360
  0
LINE
  5
3B9
100
AcDbEntity
  8
vector
  6
ByLayer
 62
  256
370
   -1
100
AcDbLine
 10
2.600000000000001
 20
1.8625
 11
2.600000000000001
 21
1.9125
  0
ARC
  5
3BA
100
AcDbEntity
  8
vector
  6
ByLayer
 62
  256
370
   -1
100
AcDbCircle
 10
2.575
 20
1.9125
 40
0.025
100
AcDbArc
 50
360
 51
90
  0
LINE
  5
3BB
100
AcDbEntity
  8
vector
  6
ByLayer
 62
  256
370
   -1
100
AcDbLine
 10
2.575
 20
1.837500000000001
 11
2.425
 21
1.837500000000001
  0
ARC
  5
3BC
100
AcDbEntity
  8
vector
  6
ByLayer
 62
  256
370
   -1
100
AcDbCircle
 10
2.425
 20
1.8625
 40
0.025
100
AcDbArc
 50
180
 51
270
  0
LINE
  5
3BD
100
AcDbEntity
  8
vector
  6
ByLayer
 62
  256
370
   -1
100
AcDbLine
 10
2.4
 20
1.9125
 11
2.4
 21
1.8625
  0
ARC
  5
3BE
100
AcDbEntity
  8
vector
  6
ByLayer
 62
  256
370
   -1
100
AcDbCircle
 10
2.425
 20
1.9125
 40
0.025
100
AcDbArc
 50
90
 51
180
  0
LINE
  5
3BF
100
AcDbEntity
  8
vector
  6
ByLayer
 62
  256
370
   -1
100
AcDbLine
 10
2.425
 20
1.9375
 11
2.575
 21
1.9375
  0
ARC
  5
3C0
100
AcDbEntity
  8
vector
  6
ByLayer
 62
  256
370
   -1
100
AcDbCircle
 10
2.575
 20
2.0875
 40
0.025
100
AcDbArc
 50
270
 51
360
  0
ARC
  5
3C1
100
AcDbEntity
  8
vector
  6
ByLayer
 62
  256
370
   -1
100
AcDbCircle
 10
2.425
 20
2.0875
 40
0.025
100
AcDbArc
 50
180
 51
270
  0
LINE
  5
3C2
100
AcDbEntity
  8
vector
  6
ByLayer
 62
  256
370
   -1
100
AcDbLine
 10
2.4
 20
2.0875
 11
2.4
 21
2.137500000000001
  0
ARC
  5
3C3
100
AcDbEntity
  8
vector
  6
ByLayer
 62
  256
370
   -1
100
AcDbCircle
 10
2.425
 20
2.137500000000001
 40
0.025
100
AcDbArc
 50
90
 51
180
  0
LINE
  5
3C4
100
AcDbEntity
  8
vector
  6
ByLayer
 62
  256
370
   -1
100
AcDbLine
 10
2.575
 20
2.162500000000001
 11
2.425
 21
2.162500000000001
  0
LINE
  5
3C5
100
AcDbEntity
  8
vector
  6
ByLayer
 62
  256
370
   -1
100
AcDbLine
 10
2.600000000000001
 20
2.0875
 11
2.600000000000001
 21
2.137500000000001
  0
ARC
  5
3C6
100
AcDbEntity
  8
vector
  6
ByLayer
 62
  256
370
   -1
100
AcDbCircle
 10
2.575
 20
2.137500000000001
 40
0.025
100
AcDbArc
 50
360
 51
90
  0
LINE
  5
3C7
100
AcDbEntity
  8
vector
  6
ByLayer
 62
  256
370
   -1
100
AcDbLine
 10
2.425
 20
2.0625
 11
2.575
 21
2.0625
  0
LINE
  5
3C8
100
AcDbEntity
  8
const2
  6
ByLayer
 62
  256
370
   -1
100
AcDbLine
 10
2.5
 20
2.0625
 11
2.5
 21
1.9375
  0
ARC
  5
3C9
100
AcDbEntity
  8
vector
  6
ByLayer
 62
  256
370
   -1
100
AcDbCircle
 10
1.575
 20
1.8625
 40
0.025
100
AcDbArc
 50
270
 51
360
  0
LINE
  5
3CA
100
AcDbEntity
  8
vector
  6
ByLayer
 62
  256
370
   -1
100
AcDbLine
 10
1.600000000000001
 20
1.8625
 11
1.600000000000001
 21
1.9125
  0
ARC
  5
3CB
100
AcDbEntity
  8
vector
  6
ByLayer
 62
  256
370
   -1
100
AcDbCircle
 10
1.575
 20
1.9125
 40
0.025
100
AcDbArc
 50
360
 51
90
  0
LINE
  5
3CC
100
AcDbEntity
  8
vector
  6
ByLayer
 62
  256
370
   -1
100
AcDbLine
 10
1.575
 20
1.837500000000001
 11
1.425
 21
1.837500000000001
  0
ARC
  5
3CD
100
AcDbEntity
  8
vector
  6
ByLayer
 62
  256
370
   -1
100
AcDbCircle
 10
1.425
 20
1.8625
 40
0.025
100
AcDbArc
 50
180
 51
270
  0
LINE
  5
3CE
100
AcDbEntity
  8
vector
  6
ByLayer
 62
  256
370
   -1
100
AcDbLine
 10
1.4
 20
1.9125
 11
1.4
 21
1.8625
  0
ARC
  5
3CF
100
AcDbEntity
  8
vector
  6
ByLayer
 62
  256
370
   -1
100
AcDbCircle
 10
1.425
 20
1.9125
 40
0.025
100
AcDbArc
 50
90
 51
180
  0
LINE
  5
3D0
100
AcDbEntity
  8
vector
  6
ByLayer
 62
  256
370
   -1
100
AcDbLine
 10
1.425
 20
1.9375
 11
1.575
 21
1.9375
  0
ARC
  5
3D1
100
AcDbEntity
  8
vector
  6
ByLayer
 62
  256
370
   -1
100
AcDbCircle
 10
1.575
 20
2.0875
 40
0.025
100
AcDbArc
 50
270
 51
360
  0
ARC
  5
3D2
100
AcDbEntity
  8
vector
  6
ByLayer
 62
  256
370
   -1
100
AcDbCircle
 10
1.425
 20
2.0875
 40
0.025
100
AcDbArc
 50
180
 51
270
  0
LINE
  5
3D3
100
AcDbEntity
  8
vector
  6
ByLayer
 62
  256
370
   -1
100
AcDbLine
 10
1.4
 20
2.0875
 11
1.4
 21
2.137500000000001
  0
ARC
  5
3D4
100
AcDbEntity
  8
vector
  6
ByLayer
 62
  256
370
   -1
100
AcDbCircle
 10
1.425
 20
2.137500000000001
 40
0.025
100
AcDbArc
 50
90
 51
180
  0
LINE
  5
3D5
100
AcDbEntity
  8
vector
  6
ByLayer
 62
  256
370
   -1
100
AcDbLine
 10
1.575
 20
2.162500000000001
 11
1.425
 21
2.162500000000001
  0
LINE
  5
3D6
100
AcDbEntity
  8
vector
  6
ByLayer
 62
  256
370
   -1
100
AcDbLine
 10
1.600000000000001
 20
2.0875
 11
1.600000000000001
 21
2.137500000000001
  0
ARC
  5
3D7
100
AcDbEntity
  8
vector
  6
ByLayer
 62
  256
370
   -1
100
AcDbCircle
 10
1.575
 20
2.137500000000001
 40
0.025
100
AcDbArc
 50
360
 51
90
  0
LINE
  5
3D8
100
AcDbEntity
  8
vector
  6
ByLayer
 62
  256
370
   -1
100
AcDbLine
 10
1.425
 20
2.0625
 11
1.575
 21
2.0625
  0
LINE
  5
3D9
100
AcDbEntity
  8
const2
  6
ByLayer
 62
  256
370
   -1
100
AcDbLine
 10
1.5
 20
2.0625
 11
1.5
 21
1.9375
  0
ENDSEC
  0
SECTION
  2
OBJECTS
  0
DICTIONARY
  5
C
330
0
100
AcDbDictionary
281
    1
  3
ACAD_GROUP
350
D
  0
DICTIONARY
  5
D
330
C
100
AcDbDictionary
281
    1
  0
ENDSEC
  0
EOF
